{"glyphs":{"0":{"ha":503,"x_min":43,"x_max":458,"o":"m 458 315 q 414 106 458 200 q 251 -15 357 -15 q 88 106 144 -15 q 43 315 43 199 q 92 553 43 456 q 251 665 149 665 q 411 553 354 665 q 458 315 458 456 m 403 317 q 368 521 403 438 q 251 618 326 618 q 133 521 175 618 q 99 317 99 439 q 132 136 99 217 q 251 32 174 32 q 369 136 328 32 q 403 317 403 217 z "},"1":{"ha":503,"x_min":104,"x_max":399,"o":"m 399 0 l 135 0 l 135 50 l 239 50 l 239 579 l 135 489 l 104 524 l 264 664 q 294 611 294 664 l 294 50 l 399 50 l 399 0 z "},"2":{"ha":503,"x_min":36,"x_max":465,"o":"m 465 54 l 454 0 l 36 0 q 56 79 42 35 q 188 210 115 140 q 349 386 260 279 q 393 500 393 446 q 358 583 393 554 q 268 613 324 613 q 126 488 143 613 l 76 501 q 140 625 85 582 q 269 664 190 664 q 398 616 347 664 q 449 496 449 568 q 282 231 449 390 q 111 54 161 111 l 465 54 z "},"3":{"ha":503,"x_min":47,"x_max":456,"o":"m 456 224 q 383 53 456 118 q 197 -15 311 -12 q 47 36 106 -18 l 71 79 q 206 40 122 40 q 343 94 286 40 q 400 221 400 149 q 367 311 400 275 q 282 347 333 347 q 189 315 222 347 l 163 360 q 268 442 215 400 q 347 546 347 508 q 253 614 347 614 q 97 510 149 614 l 58 531 q 135 628 81 592 q 257 664 189 664 q 357 633 315 664 q 399 547 399 601 q 285 397 399 483 l 293 397 q 411 348 367 397 q 456 224 456 299 z "},"4":{"ha":503,"x_min":44,"x_max":479,"o":"m 325 206 l 325 607 q 167 442 229 560 q 104 206 107 329 l 325 206 m 381 206 l 479 206 l 472 154 l 381 154 l 381 0 l 325 0 l 325 154 l 44 154 q 138 504 47 361 q 381 678 229 647 l 381 206 z "},"5":{"ha":503,"x_min":33,"x_max":442,"o":"m 442 228 q 369 55 442 121 q 183 -11 297 -11 q 33 40 88 -11 l 57 83 q 99 60 76 71 q 194 42 138 42 q 327 90 269 42 q 385 226 385 139 q 335 339 385 301 q 226 372 293 372 q 133 326 168 372 l 104 324 l 125 660 l 421 660 l 411 607 l 178 607 l 165 411 q 243 425 201 425 q 381 375 324 425 q 442 228 442 319 z "},"6":{"ha":503,"x_min":53,"x_max":447,"o":"m 447 201 q 397 50 447 111 q 258 -11 346 -11 q 103 64 160 -11 q 53 232 53 131 q 151 517 53 392 q 403 672 250 643 l 407 632 q 238 533 314 606 q 119 342 151 453 q 160 386 125 363 q 263 414 204 414 q 396 351 344 414 q 447 201 447 289 m 392 201 q 354 319 392 271 q 251 368 317 368 q 150 319 192 368 q 108 201 108 271 q 150 85 108 133 q 251 36 192 36 q 355 85 318 36 q 392 201 392 133 z "},"7":{"ha":503,"x_min":46,"x_max":457,"o":"m 240 0 l 182 0 q 265 401 182 210 q 332 526 285 446 q 381 607 379 606 l 46 607 l 67 660 l 457 660 l 446 604 q 297 340 353 482 q 240 0 240 197 z "},"8":{"ha":503,"x_min":46,"x_max":456,"o":"m 400 174 q 363 277 400 228 q 250 331 325 326 q 139 277 176 326 q 101 174 101 228 q 144 74 101 111 q 251 38 186 38 q 358 74 315 38 q 400 174 400 111 m 379 501 q 344 582 379 550 q 251 614 310 614 q 157 582 192 614 q 122 501 122 550 q 250 383 122 415 q 379 501 379 415 m 456 178 q 400 39 456 89 q 250 -11 344 -11 q 101 39 157 -11 q 46 178 46 89 q 85 295 46 246 q 186 357 125 344 q 101 412 135 372 q 67 497 67 451 q 118 618 67 571 q 251 665 169 665 q 383 618 332 665 q 435 497 435 571 q 401 412 435 451 q 315 357 367 372 q 416 295 376 344 q 456 178 456 246 z "},"9":{"ha":503,"x_min":53,"x_max":447,"o":"m 447 424 q 349 138 447 264 q 97 -17 250 13 l 93 24 q 263 122 186 50 q 381 314 349 203 q 340 269 375 293 q 238 242 296 242 q 104 304 156 242 q 53 454 53 367 q 103 606 53 544 q 242 667 154 667 q 397 592 340 667 q 447 424 447 525 m 392 454 q 350 571 392 522 q 249 619 308 619 q 145 571 182 619 q 108 454 108 522 q 146 336 108 385 q 249 288 183 288 q 350 336 308 288 q 392 454 392 385 z "}," ":{"ha":300,"x_min":0,"x_max":0,"o":""},"!":{"ha":204,"x_min":53,"x_max":149,"o":"m 122 167 l 78 167 l 68 660 l 133 660 l 122 167 m 149 39 q 134 6 149 19 q 100 -8 119 -8 q 67 6 81 -8 q 53 39 53 19 q 67 73 53 58 q 100 88 81 88 q 134 73 119 88 q 149 39 149 58 z "},"\"":{"ha":289,"x_min":51,"x_max":238,"o":"m 224 469 l 186 469 l 172 693 l 238 693 l 224 469 m 103 469 l 65 469 l 51 693 l 117 693 l 103 469 z "},"#":{"ha":560,"x_min":47,"x_max":507,"o":"m 507 190 l 379 190 l 340 6 l 300 6 l 340 190 l 165 190 l 125 6 l 85 6 l 125 190 l 47 190 l 47 232 l 132 232 l 168 408 l 47 408 l 47 450 l 176 450 l 215 636 l 257 636 l 218 450 l 390 450 l 431 636 l 474 636 l 435 450 l 507 450 l 507 408 l 426 408 l 390 232 l 507 232 l 507 190 m 383 408 l 210 408 l 172 232 l 347 232 l 383 408 z "},"$":{"ha":501,"x_min":72,"x_max":428,"o":"m 428 185 q 390 85 428 129 q 272 22 347 36 l 272 -81 l 224 -81 l 224 22 q 72 71 135 22 l 97 114 q 236 67 153 67 q 337 99 299 67 q 375 182 375 132 q 253 314 375 263 q 86 486 86 383 q 126 588 86 546 q 235 639 167 629 l 235 744 l 282 744 l 282 639 q 410 599 350 635 l 385 554 q 260 594 338 594 q 165 560 199 594 q 138 493 138 532 q 167 424 138 451 q 268 365 196 397 q 385 294 350 329 q 428 185 428 250 z "},"%":{"ha":813,"x_min":47,"x_max":764,"o":"m 629 661 l 226 -12 l 179 -12 l 582 661 l 629 661 m 344 464 q 196 267 344 267 q 47 464 47 267 q 196 661 47 661 q 344 464 344 661 m 294 464 q 196 617 294 617 q 97 464 97 617 q 196 311 97 311 q 294 464 294 311 m 764 193 q 615 -4 764 -4 q 467 193 467 -4 q 615 390 467 390 q 764 193 764 390 m 714 193 q 615 346 714 346 q 517 193 517 346 q 615 40 517 40 q 714 193 714 40 z "},"&":{"ha":588,"x_min":26,"x_max":597,"o":"m 574 356 q 481 111 540 179 q 597 0 533 58 l 528 0 q 450 74 501 25 q 226 -12 347 -12 q 85 42 143 -12 q 26 178 26 97 q 167 379 26 310 q 107 521 107 458 q 151 636 107 588 q 271 685 196 685 q 371 647 332 685 q 410 549 410 608 q 240 361 410 438 q 449 140 321 272 q 522 356 496 204 l 574 356 m 361 543 q 339 611 361 583 q 265 643 313 643 q 188 608 217 643 q 158 526 158 574 q 217 396 158 472 q 361 543 361 465 m 418 107 q 194 344 292 233 q 79 185 79 283 q 125 74 79 117 q 239 32 171 32 q 418 107 343 32 z "},"'":{"ha":167,"x_min":51,"x_max":115,"o":"m 103 469 l 65 469 l 51 693 l 115 693 l 103 469 z "},"(":{"ha":264,"x_min":28,"x_max":236,"o":"m 235 -81 l 182 -81 q 28 325 28 88 q 181 739 28 550 l 236 739 q 81 325 81 561 q 235 -81 81 104 z "},")":{"ha":264,"x_min":28,"x_max":235,"o":"m 235 329 q 81 -81 235 99 l 28 -81 q 182 329 182 113 q 28 739 182 549 l 81 739 q 235 329 235 565 z "},"*":{"ha":396,"x_min":25,"x_max":371,"o":"m 371 494 l 228 507 l 317 388 l 271 358 l 197 496 l 125 358 l 79 388 l 168 507 l 25 494 l 25 547 l 168 538 l 79 656 l 132 686 l 199 558 l 264 686 l 317 656 l 228 538 l 371 547 l 371 494 z "},"+":{"ha":571,"x_min":53,"x_max":518,"o":"m 518 229 l 310 229 l 310 0 l 261 0 l 261 229 l 53 229 l 53 275 l 261 275 l 261 496 l 310 496 l 310 275 l 518 275 l 518 229 z "},",":{"ha":225,"x_min":42,"x_max":171,"o":"m 171 38 q 125 -94 168 -37 q 61 -151 96 -135 l 42 -131 q 122 -10 114 -82 q 84 6 100 -10 q 68 42 68 21 q 83 78 68 63 q 119 94 99 94 q 156 78 142 94 q 171 38 171 61 z "},"-":{"ha":300,"x_min":28,"x_max":271,"o":"m 271 229 l 28 229 l 28 275 l 271 275 l 271 229 z "},".":{"ha":225,"x_min":64,"x_max":160,"o":"m 160 39 q 145 6 160 19 q 111 -8 131 -8 q 78 6 92 -8 q 64 39 64 19 q 78 73 64 58 q 111 88 92 88 q 145 73 131 88 q 160 39 160 58 z "},"/":{"ha":375,"x_min":-25,"x_max":386,"o":"m 386 685 l 28 -40 l -25 -40 l 329 685 l 386 685 z "},":":{"ha":225,"x_min":64,"x_max":160,"o":"m 160 39 q 145 6 160 19 q 111 -8 131 -8 q 78 6 92 -8 q 64 39 64 19 q 78 73 64 58 q 111 88 92 88 q 145 73 131 88 q 160 39 160 58 m 160 393 q 145 360 160 374 q 111 346 131 346 q 78 360 92 346 q 64 393 64 374 q 78 427 64 413 q 111 442 92 442 q 145 427 131 442 q 160 393 160 413 z "},";":{"ha":225,"x_min":42,"x_max":171,"o":"m 171 38 q 125 -94 168 -37 q 61 -151 96 -135 l 42 -131 q 122 -10 114 -82 q 84 6 100 -10 q 68 42 68 21 q 83 78 68 63 q 119 94 99 94 q 156 78 142 94 q 171 38 171 61 m 160 393 q 145 360 160 374 q 111 346 131 346 q 78 360 92 346 q 64 393 64 374 q 78 427 64 413 q 111 442 92 442 q 145 427 131 442 q 160 393 160 413 z "},"<":{"ha":571,"x_min":61,"x_max":508,"o":"m 508 50 l 508 -3 l 61 242 l 61 279 l 508 524 l 508 472 l 117 260 l 508 50 z "},"=":{"ha":571,"x_min":76,"x_max":494,"o":"m 494 368 l 494 322 l 76 322 l 76 368 l 494 368 m 494 188 l 494 142 l 76 142 l 76 188 l 494 188 z "},">":{"ha":571,"x_min":61,"x_max":508,"o":"m 508 279 l 508 242 l 61 -3 l 61 50 l 453 261 l 61 472 l 61 524 l 508 279 z "},"?":{"ha":393,"x_min":43,"x_max":343,"o":"m 192 171 l 144 171 q 138 219 138 192 q 213 378 138 293 q 289 522 289 463 q 175 622 289 622 q 64 586 110 622 l 43 628 q 185 671 110 671 q 306 625 264 671 q 343 525 343 585 q 256 358 343 451 q 188 215 188 286 q 192 171 188 190 m 214 39 q 199 6 214 19 q 165 -8 185 -8 q 132 6 146 -8 q 118 39 118 19 q 132 73 118 58 q 165 88 146 88 q 199 73 185 88 q 214 39 214 58 z "},"@":{"ha":744,"x_min":32,"x_max":708,"o":"m 708 244 q 650 83 708 150 q 524 13 592 17 l 481 10 l 467 72 q 319 1 411 1 q 293 3 303 1 q 217 42 249 10 q 186 115 186 74 q 464 271 186 271 l 464 278 q 351 396 464 396 q 247 363 290 396 l 232 397 q 354 438 286 438 q 513 261 513 438 l 513 113 q 518 56 513 82 q 617 113 572 58 q 661 240 661 167 q 589 431 661 356 q 393 507 517 507 q 176 421 263 507 q 85 185 85 329 q 161 -13 85 65 q 350 -92 238 -92 q 513 -50 446 -92 l 532 -90 q 346 -135 449 -135 q 124 -46 215 -135 q 32 181 32 43 q 129 436 32 332 q 400 547 232 547 q 624 461 539 547 q 708 244 708 375 m 464 146 l 464 231 q 238 124 238 228 q 322 40 238 40 q 461 128 422 40 q 464 146 464 133 z "},"A":{"ha":556,"x_min":0,"x_max":556,"o":"m 556 0 l 496 0 l 419 213 l 135 213 l 60 0 l 0 0 l 250 671 l 306 671 l 556 0 m 403 258 l 278 611 l 151 258 l 403 258 z "},"B":{"ha":525,"x_min":75,"x_max":481,"o":"m 481 185 q 201 -8 481 -8 q 75 6 140 -8 l 75 651 q 214 669 144 669 q 454 503 454 669 q 424 412 454 453 q 344 353 394 371 q 438 297 394 340 q 481 185 481 253 m 400 501 q 214 624 400 624 q 129 614 171 624 l 129 372 l 242 372 q 360 411 315 372 q 400 501 400 447 m 428 183 q 370 292 428 257 q 225 328 313 328 l 129 328 l 129 44 q 213 36 167 36 q 358 68 301 36 q 428 183 428 107 z "},"C":{"ha":564,"x_min":32,"x_max":526,"o":"m 510 69 l 526 25 q 346 -10 453 -10 q 122 87 211 -10 q 32 332 32 183 q 122 576 32 481 q 346 671 211 671 q 526 636 453 671 l 510 592 q 349 624 435 624 q 167 544 242 624 q 88 331 88 461 q 167 117 88 200 q 349 38 242 38 q 510 69 435 38 z "},"D":{"ha":599,"x_min":75,"x_max":558,"o":"m 558 344 q 244 -6 558 -6 q 75 7 203 -6 l 75 651 q 272 668 203 668 q 478 583 399 668 q 558 344 558 494 m 504 344 q 435 551 504 476 q 268 621 371 621 q 129 610 225 621 l 129 50 q 261 42 199 42 q 439 122 374 42 q 504 344 504 201 z "},"E":{"ha":488,"x_min":75,"x_max":435,"o":"m 435 0 l 75 0 l 75 661 l 435 661 l 435 615 l 129 615 l 129 372 l 401 372 l 401 326 l 129 326 l 129 46 l 435 46 l 435 0 z "},"F":{"ha":488,"x_min":75,"x_max":449,"o":"m 428 318 l 129 318 l 129 0 l 75 0 l 75 661 l 449 661 l 449 615 l 129 615 l 129 364 l 428 364 l 428 318 z "},"G":{"ha":590,"x_min":32,"x_max":532,"o":"m 532 331 l 532 14 q 503 22 521 22 q 421 8 503 22 q 311 -7 339 -7 q 108 85 185 -7 q 32 332 32 178 q 111 571 32 479 q 335 668 193 668 q 513 635 436 668 l 496 590 q 332 622 413 622 q 158 540 228 622 q 88 331 88 458 q 148 116 88 194 q 319 38 208 38 q 479 72 407 38 l 479 286 l 311 286 l 311 331 l 532 331 z "},"H":{"ha":613,"x_min":75,"x_max":538,"o":"m 538 0 l 483 0 l 483 329 l 129 329 l 129 0 l 75 0 l 75 661 l 129 661 l 129 375 l 483 375 l 483 661 l 538 661 l 538 0 z "},"I":{"ha":204,"x_min":75,"x_max":129,"o":"m 129 0 l 75 0 l 75 661 l 129 661 l 129 0 z "},"J":{"ha":367,"x_min":-1,"x_max":292,"o":"m 292 217 q 97 -12 292 -12 q -1 8 43 -12 l 13 51 q 97 35 44 35 q 203 77 169 35 q 238 231 238 119 l 238 661 l 292 661 l 292 217 z "},"K":{"ha":522,"x_min":75,"x_max":542,"o":"m 542 13 l 493 -7 l 200 344 l 129 274 l 129 0 l 75 0 l 75 661 l 129 661 l 129 343 l 458 669 l 513 654 l 238 379 l 542 13 z "},"L":{"ha":490,"x_min":75,"x_max":454,"o":"m 454 0 l 75 0 l 75 661 l 129 661 l 129 46 l 454 46 l 454 0 z "},"M":{"ha":761,"x_min":56,"x_max":706,"o":"m 706 0 l 654 0 l 613 583 l 399 0 l 363 0 l 149 583 l 107 0 l 56 0 l 101 661 l 165 661 l 381 68 l 596 661 l 660 661 l 706 0 z "},"N":{"ha":613,"x_min":75,"x_max":538,"o":"m 538 0 l 481 0 l 131 585 l 131 0 l 75 0 l 75 661 l 138 661 l 485 85 l 485 661 l 538 661 l 538 0 z "},"O":{"ha":675,"x_min":31,"x_max":644,"o":"m 644 329 q 559 83 644 181 q 338 -14 474 -14 q 116 83 201 -14 q 31 329 31 181 q 116 575 31 478 q 338 672 201 672 q 559 575 474 672 q 644 329 644 478 m 590 329 q 519 538 590 451 q 338 625 449 625 q 156 538 226 625 q 85 329 85 451 q 156 120 85 207 q 338 33 226 33 q 519 120 449 33 q 590 329 590 207 z "},"P":{"ha":525,"x_min":75,"x_max":479,"o":"m 479 478 q 396 317 479 374 q 215 269 324 268 q 129 278 171 269 l 129 0 l 75 0 l 75 654 q 235 668 158 668 q 403 622 335 668 q 479 478 479 569 m 428 474 q 233 621 428 621 q 129 614 164 621 l 129 325 q 226 315 167 315 q 428 474 428 326 z "},"Q":{"ha":676,"x_min":31,"x_max":644,"o":"m 644 329 q 586 119 644 210 q 419 -1 525 25 q 608 -42 501 -36 l 589 -93 q 338 -14 451 -61 q 116 83 201 -14 q 31 329 31 181 q 116 575 31 478 q 338 672 201 672 q 559 575 474 672 q 644 329 644 478 m 590 329 q 519 538 590 451 q 338 625 449 625 q 156 538 226 625 q 85 329 85 451 q 156 120 85 207 q 338 33 226 33 q 519 120 449 33 q 590 329 590 207 z "},"R":{"ha":526,"x_min":75,"x_max":497,"o":"m 497 0 l 444 0 q 257 301 407 301 l 129 301 l 129 0 l 75 0 l 75 653 q 238 668 153 668 q 407 626 344 667 q 479 490 479 579 q 351 319 479 367 q 463 169 425 279 q 497 0 481 113 m 428 483 q 238 621 428 621 q 129 611 161 621 l 129 344 l 253 344 q 381 381 335 344 q 428 483 428 418 z "},"S":{"ha":489,"x_min":38,"x_max":444,"o":"m 444 172 q 390 47 444 97 q 219 -12 329 -12 q 38 38 111 -12 l 60 85 q 225 33 128 33 q 347 70 303 33 q 392 168 392 107 q 358 258 392 224 q 244 317 324 292 q 60 503 60 376 q 117 625 60 576 q 265 674 174 674 q 417 639 358 674 q 393 596 404 615 q 264 628 333 628 q 144 588 186 628 q 111 510 111 554 q 258 368 111 418 q 396 296 354 335 q 444 172 444 250 z "},"T":{"ha":526,"x_min":-7,"x_max":533,"o":"m 533 615 l 290 615 l 290 0 l 238 0 l 238 615 l -7 615 l -7 661 l 533 661 l 533 615 z "},"U":{"ha":647,"x_min":75,"x_max":572,"o":"m 572 279 q 324 -12 572 -12 q 75 279 75 -12 l 75 661 l 129 661 l 129 281 q 183 92 129 150 q 324 33 236 33 q 466 92 413 33 q 518 281 519 150 l 518 661 l 572 661 l 572 279 z "},"V":{"ha":542,"x_min":0,"x_max":542,"o":"m 542 661 l 300 0 l 242 0 l 0 661 l 61 661 l 271 63 l 481 661 l 542 661 z "},"W":{"ha":817,"x_min":0,"x_max":817,"o":"m 817 661 l 617 0 l 558 0 l 408 600 l 258 0 l 200 0 l 0 661 l 61 661 l 229 63 l 378 661 l 439 661 l 588 63 l 756 661 l 817 661 z "},"X":{"ha":581,"x_min":24,"x_max":557,"o":"m 557 0 l 493 0 l 290 299 l 88 0 l 24 0 l 258 339 l 33 661 l 99 661 l 290 372 l 482 661 l 547 661 l 322 339 l 557 0 z "},"Y":{"ha":508,"x_min":0,"x_max":508,"o":"m 508 661 l 281 292 l 281 0 l 228 0 l 228 290 l 0 661 l 63 661 l 254 338 l 446 661 l 508 661 z "},"Z":{"ha":589,"x_min":31,"x_max":567,"o":"m 567 46 l 556 0 l 31 0 l 31 36 l 479 615 l 58 615 l 67 661 l 549 661 l 549 624 l 101 46 l 567 46 z "},"[":{"ha":272,"x_min":72,"x_max":257,"o":"m 257 -67 l 257 -108 l 72 -108 l 72 703 l 257 703 l 257 661 l 121 661 l 121 -67 l 257 -67 z "},"\\":{"ha":364,"x_min":-12,"x_max":388,"o":"m 388 -39 l 332 -39 l -12 671 l 42 671 l 388 -39 z "},"]":{"ha":272,"x_min":15,"x_max":201,"o":"m 201 -108 l 15 -108 l 15 -67 l 151 -67 l 151 661 l 15 661 l 15 703 l 201 703 l 201 -108 z "},"^":{"ha":572,"x_min":60,"x_max":510,"o":"m 310 667 l 510 221 l 458 221 l 285 614 l 111 221 l 60 221 l 260 667 l 310 667 z "},"_":{"ha":489,"x_min":0,"x_max":489,"o":"m 489 -211 l 489 -254 l 0 -254 l 0 -211 l 489 -211 z "},"`":{"ha":283,"x_min":82,"x_max":206,"o":"m 206 542 l 163 542 l 82 654 l 136 668 l 206 542 z "},"a":{"ha":478,"x_min":36,"x_max":422,"o":"m 422 0 l 374 -10 l 354 67 q 186 -12 290 -12 q 81 22 125 -12 q 36 118 36 57 q 343 294 36 294 l 351 294 l 351 303 q 331 383 351 349 q 222 439 299 439 q 72 407 174 439 l 65 457 q 226 482 143 482 q 406 285 406 482 l 406 115 q 422 0 406 57 m 351 153 l 351 247 q 93 128 93 247 q 121 58 93 82 q 190 33 149 33 q 344 126 300 33 q 351 153 351 142 z "},"b":{"ha":557,"x_min":68,"x_max":518,"o":"m 518 242 q 458 58 518 128 q 297 -12 399 -12 q 121 83 186 -12 q 118 0 121 36 l 68 0 q 72 115 72 36 l 72 701 l 126 701 l 126 382 q 306 482 188 482 q 461 414 404 482 q 518 242 518 346 m 465 240 q 421 383 465 328 q 296 439 376 439 q 181 393 229 439 q 126 268 126 344 l 126 189 q 174 78 126 122 q 290 33 221 33 q 465 240 465 33 z "},"c":{"ha":460,"x_min":38,"x_max":433,"o":"m 414 65 l 433 21 q 288 -12 374 -12 q 104 55 171 -12 q 38 235 38 122 q 104 415 38 347 q 288 482 171 482 q 433 449 374 482 l 414 404 q 285 438 363 438 q 145 383 200 438 q 90 235 90 329 q 145 86 90 140 q 285 32 200 32 q 414 65 363 32 z "},"d":{"ha":557,"x_min":39,"x_max":489,"o":"m 489 0 l 439 0 q 436 83 436 36 q 260 -12 371 -12 q 99 58 158 -12 q 39 242 39 128 q 96 414 39 346 q 251 482 153 482 q 431 382 369 482 l 431 701 l 485 701 l 485 115 q 489 0 485 36 m 431 189 l 431 268 q 376 393 431 344 q 261 439 328 439 q 136 383 181 439 q 92 240 92 328 q 267 33 92 33 q 383 78 336 33 q 431 189 431 122 z "},"e":{"ha":519,"x_min":38,"x_max":476,"o":"m 450 67 l 454 21 q 279 -12 374 -12 q 104 54 171 -12 q 38 224 38 121 q 104 411 38 340 q 274 482 171 482 q 476 233 472 482 l 90 233 q 147 87 93 139 q 285 35 200 35 q 450 67 368 35 m 425 276 q 393 378 424 333 q 267 439 351 439 q 142 383 190 439 q 93 276 103 339 l 425 276 z "},"f":{"ha":286,"x_min":7,"x_max":335,"o":"m 335 690 l 319 651 q 251 667 289 667 q 140 490 140 667 l 140 472 l 276 472 l 276 429 l 140 429 l 140 0 l 86 0 l 86 429 l 7 429 l 7 472 l 88 472 l 88 490 q 256 713 88 713 q 335 690 308 713 z "},"g":{"ha":432,"x_min":50,"x_max":393,"o":"m 382 317 q 334 193 382 239 q 215 147 286 147 q 142 163 172 147 q 133 122 133 142 q 246 54 133 86 q 379 -82 379 17 q 336 -180 379 -142 q 210 -218 293 -218 q 75 -181 136 -218 l 94 -136 q 214 -171 154 -171 q 299 -147 265 -171 q 332 -86 332 -124 q 222 17 332 -19 q 131 54 156 38 q 88 122 88 81 q 101 189 88 147 q 50 307 50 244 q 97 428 50 382 q 208 474 144 474 l 393 474 l 393 429 l 325 436 q 382 317 382 381 m 335 310 q 306 390 335 356 q 215 432 272 432 q 129 395 160 432 q 99 308 99 358 q 136 219 99 253 q 215 189 171 189 q 300 221 265 189 q 335 310 335 253 z "},"h":{"ha":542,"x_min":72,"x_max":469,"o":"m 469 268 l 469 0 l 415 0 l 415 268 q 274 438 415 438 q 172 390 217 438 q 126 286 126 342 l 126 0 l 72 0 l 72 701 l 126 701 l 126 388 q 285 482 183 482 q 469 268 469 482 z "},"i":{"ha":199,"x_min":54,"x_max":142,"o":"m 126 0 l 72 0 l 72 472 l 126 472 l 126 0 m 142 615 q 129 584 142 596 q 97 572 117 572 q 66 584 78 572 q 54 615 54 596 q 66 647 54 635 q 97 660 78 660 q 129 647 117 660 q 142 615 142 635 z "},"j":{"ha":215,"x_min":-58,"x_max":158,"o":"m 143 10 q -53 -206 140 -201 l -58 -162 q 68 -96 38 -154 q 89 25 89 -56 l 89 472 l 143 472 l 143 10 m 158 615 q 146 584 158 596 q 114 572 133 572 q 83 584 94 572 q 71 615 71 596 q 83 647 71 635 q 114 660 94 660 q 146 647 133 660 q 158 615 158 635 z "},"k":{"ha":439,"x_min":72,"x_max":454,"o":"m 454 1 l 400 -14 l 175 246 l 126 199 l 126 0 l 72 0 l 72 701 l 126 701 l 126 260 l 361 479 l 417 468 l 214 276 l 454 1 z "},"l":{"ha":278,"x_min":72,"x_max":253,"o":"m 253 38 l 247 -10 q 72 238 72 -1 l 72 701 l 126 701 l 126 258 q 144 111 126 157 q 253 38 172 39 z "},"m":{"ha":835,"x_min":63,"x_max":763,"o":"m 763 0 l 708 0 l 708 261 q 676 390 708 342 q 581 438 643 438 q 485 395 526 438 q 444 300 444 353 l 444 0 l 390 0 l 390 286 q 271 438 390 438 q 171 390 215 438 q 126 286 126 342 l 126 0 l 72 0 l 72 356 q 63 472 72 393 l 114 472 q 125 388 124 443 q 283 482 179 482 q 426 376 379 482 q 596 482 482 482 q 718 423 674 482 q 763 263 763 364 l 763 0 z "},"n":{"ha":542,"x_min":63,"x_max":469,"o":"m 469 0 l 415 0 l 415 268 q 274 438 415 438 q 172 390 217 438 q 126 286 126 342 l 126 0 l 72 0 l 72 356 q 63 472 72 393 l 114 472 q 125 388 124 443 q 285 482 179 482 q 469 268 469 482 l 469 0 z "},"o":{"ha":553,"x_min":39,"x_max":514,"o":"m 514 235 q 449 58 514 131 q 276 -14 383 -14 q 104 58 169 -14 q 39 235 39 131 q 104 410 39 339 q 276 482 169 482 q 449 410 383 482 q 514 235 514 339 m 461 235 q 409 378 461 321 q 276 436 357 436 q 144 378 196 436 q 92 235 92 321 q 144 90 92 149 q 276 32 196 32 q 409 90 357 32 q 461 235 461 149 z "},"p":{"ha":557,"x_min":68,"x_max":518,"o":"m 518 228 q 463 58 518 124 q 306 -12 404 -12 q 126 88 188 -12 l 126 -232 l 72 -232 l 72 354 q 68 469 72 435 l 118 469 q 121 386 121 433 q 297 482 186 482 q 458 412 399 482 q 518 228 518 342 m 467 229 q 422 381 467 326 q 290 436 376 436 q 174 392 221 436 q 126 281 126 347 l 126 201 q 181 76 126 125 q 296 31 229 31 q 424 88 376 31 q 467 229 467 142 z "},"q":{"ha":557,"x_min":68,"x_max":518,"o":"m 514 -232 l 460 -232 l 460 88 q 281 -12 399 -12 q 124 58 182 -12 q 68 228 68 124 q 128 412 68 342 q 289 482 188 482 q 465 386 400 482 q 468 469 465 433 l 518 469 q 514 354 514 435 l 514 -232 m 460 201 l 460 281 q 413 392 460 347 q 296 436 365 436 q 165 381 210 436 q 119 229 119 326 q 163 88 119 142 q 290 31 210 31 q 406 76 357 31 q 460 201 460 125 z "},"r":{"ha":301,"x_min":58,"x_max":289,"o":"m 289 433 q 272 435 285 435 q 131 301 165 435 q 126 254 126 286 l 126 0 l 72 0 l 72 318 q 58 472 72 422 l 104 472 q 119 378 119 442 q 263 482 164 482 q 289 479 275 482 l 289 433 z "},"s":{"ha":392,"x_min":40,"x_max":344,"o":"m 344 125 q 299 26 344 65 q 174 -12 254 -12 q 40 25 104 -12 l 61 69 q 178 33 128 33 q 294 121 294 33 q 185 222 294 189 q 58 350 58 261 q 99 443 58 404 q 214 482 140 482 q 331 450 288 482 l 308 406 q 204 439 267 439 q 135 415 160 439 q 110 357 110 392 q 218 264 110 301 q 344 125 344 221 z "},"t":{"ha":331,"x_min":8,"x_max":308,"o":"m 292 43 l 297 0 q 224 -12 269 -12 q 131 35 163 -12 q 103 139 103 76 l 103 429 l 8 429 l 8 472 l 103 472 l 103 613 l 157 638 l 157 472 l 308 472 l 308 429 l 157 429 l 157 140 q 228 35 157 35 q 292 43 271 35 z "},"u":{"ha":542,"x_min":72,"x_max":493,"o":"m 493 1 l 442 -10 q 419 82 425 38 q 242 -12 358 -12 q 72 207 72 -12 l 72 472 l 126 472 l 126 217 q 254 35 126 35 q 363 74 314 35 q 415 186 415 118 l 415 472 l 469 472 l 469 115 q 493 1 469 64 z "},"v":{"ha":474,"x_min":4,"x_max":469,"o":"m 469 472 l 257 0 l 208 0 l 4 472 l 60 472 l 235 58 l 414 472 l 469 472 z "},"w":{"ha":704,"x_min":4,"x_max":704,"o":"m 704 472 l 535 0 l 488 0 l 351 417 l 208 0 l 158 0 l 4 472 l 61 472 l 186 64 l 328 472 l 379 472 l 513 64 l 650 472 l 704 472 z "},"x":{"ha":442,"x_min":0,"x_max":442,"o":"m 442 0 l 378 0 l 219 204 l 63 0 l 0 0 l 192 240 l 13 472 l 74 472 l 224 281 l 372 472 l 432 472 l 251 242 l 442 0 z "},"y":{"ha":468,"x_min":4,"x_max":464,"o":"m 256 0 q 38 -217 174 -185 l 25 -174 q 204 15 143 -147 q 200 32 204 19 l 4 472 l 63 472 l 239 72 l 404 472 l 464 472 l 256 0 z "},"z":{"ha":446,"x_min":21,"x_max":429,"o":"m 418 0 l 21 0 l 21 33 l 354 428 l 38 428 l 46 472 l 422 472 l 421 435 l 89 44 l 429 44 l 418 0 z "},"{":{"ha":289,"x_min":18,"x_max":250,"o":"m 250 -65 l 250 -107 l 235 -107 q 85 25 85 -107 q 94 106 85 51 q 104 189 104 161 q 18 261 104 258 l 18 303 q 104 375 104 306 q 94 458 104 403 q 85 539 85 513 q 235 671 85 671 l 250 671 l 250 629 l 229 629 q 133 533 133 629 q 153 379 153 393 q 97 282 153 308 q 153 185 153 256 q 133 31 153 171 q 229 -65 133 -65 l 250 -65 z "},"|":{"ha":213,"x_min":83,"x_max":129,"o":"m 129 733 l 129 -242 l 83 -242 l 83 733 l 129 733 z "},"}":{"ha":289,"x_min":39,"x_max":271,"o":"m 39 -107 l 39 -65 l 60 -65 q 156 31 156 -65 q 136 185 136 171 q 192 282 136 256 q 136 379 136 308 q 156 533 136 393 q 60 629 156 629 l 39 629 l 39 671 l 54 671 q 204 539 204 671 q 194 458 204 513 q 185 375 185 403 q 271 303 185 306 l 271 261 q 185 189 185 258 q 194 106 185 161 q 204 25 204 51 q 54 -107 204 -107 l 39 -107 z "},"~":{"ha":578,"x_min":36,"x_max":540,"o":"m 540 346 l 540 338 q 506 239 540 274 q 432 210 476 210 q 287 255 378 210 q 147 300 196 300 q 79 210 82 300 l 36 210 l 36 221 q 69 313 36 279 q 147 346 101 346 q 292 302 200 346 q 435 258 385 258 q 497 346 494 258 l 540 346 z "},"¡":{"ha":210,"x_min":53,"x_max":156,"o":"m 142 -194 l 65 -194 l 79 289 l 128 289 l 142 -194 m 156 422 q 140 386 156 401 q 104 371 125 371 q 68 386 83 371 q 53 422 53 401 q 68 458 53 443 q 104 474 83 474 q 140 458 125 474 q 156 422 156 443 z "},"¢":{"ha":571,"x_min":44,"x_max":525,"o":"m 525 67 q 343 31 458 31 l 336 31 l 336 -82 l 290 -82 l 290 33 q 118 118 185 49 q 44 331 44 194 q 106 522 44 446 q 290 626 172 606 l 290 753 l 336 753 l 336 632 q 365 633 346 633 q 521 607 449 633 l 510 557 q 368 589 447 589 q 169 522 240 589 q 99 328 99 454 q 164 146 99 208 q 360 79 233 79 q 508 107 447 79 l 525 67 z "},"£":{"ha":571,"x_min":79,"x_max":490,"o":"m 490 0 l 79 0 l 79 35 q 197 219 197 107 q 190 300 197 251 l 81 300 l 81 343 l 186 343 q 175 456 175 410 q 353 640 175 640 q 468 613 410 640 l 451 572 q 350 594 396 594 q 224 454 224 594 q 236 343 224 403 l 393 343 l 393 300 l 242 300 q 247 229 247 268 q 172 46 247 113 l 490 46 l 490 0 z "},"¤":{"ha":571,"x_min":31,"x_max":540,"o":"m 538 313 q 485 158 538 221 l 540 101 l 500 60 l 442 118 q 283 60 378 60 q 126 118 193 60 l 71 60 l 31 101 l 85 158 q 31 313 31 225 q 85 471 31 401 l 31 526 l 71 569 l 126 511 q 283 568 199 568 q 442 511 372 568 l 501 569 l 540 526 l 485 471 q 538 313 538 410 m 482 313 q 424 458 482 396 q 283 519 367 519 q 144 458 203 519 q 85 313 85 397 q 144 169 85 228 q 283 110 203 110 q 424 170 367 110 q 482 313 482 231 z "},"¥":{"ha":571,"x_min":47,"x_max":524,"o":"m 479 132 l 311 132 l 311 26 l 260 26 l 260 132 l 93 132 l 93 172 l 260 172 l 260 251 l 93 251 l 93 292 l 260 292 l 47 638 l 111 638 l 285 344 l 458 638 l 524 638 l 311 293 l 479 293 l 479 251 l 311 251 l 311 172 l 479 172 l 479 132 z "},"¦":{"ha":213,"x_min":83,"x_max":129,"o":"m 129 315 l 83 315 l 83 660 l 129 660 l 129 315 m 129 -171 l 83 -171 l 83 175 l 129 175 l 129 -171 z "},"§":{"ha":519,"x_min":76,"x_max":443,"o":"m 418 90 q 368 -15 418 24 q 243 -54 318 -54 q 100 -8 156 -54 l 122 31 q 246 -12 168 -12 q 337 14 303 -12 q 371 83 371 40 q 294 178 371 143 q 153 235 224 206 q 76 346 76 274 q 139 457 76 407 q 107 532 107 489 q 153 628 107 592 q 274 665 200 665 q 408 629 347 665 l 385 589 q 267 625 336 625 q 188 601 219 625 q 157 540 157 576 q 197 478 157 503 q 296 436 224 461 q 443 293 443 386 q 385 174 443 229 q 418 90 418 140 m 392 286 q 363 342 392 314 q 286 388 333 371 q 171 435 203 415 q 124 349 124 394 q 172 281 124 310 q 272 238 201 263 q 356 200 338 214 q 392 286 392 243 z "},"¨":{"ha":294,"x_min":19,"x_max":276,"o":"m 104 586 q 92 556 104 568 q 61 544 79 544 q 31 556 43 544 q 19 586 19 568 q 31 617 19 604 q 61 629 43 629 q 92 617 79 629 q 104 586 104 604 m 276 586 q 264 556 276 568 q 233 544 251 544 q 203 556 215 544 q 192 586 192 568 q 203 617 192 604 q 233 629 215 629 q 264 617 251 629 q 276 586 276 604 z "},"©":{"ha":744,"x_min":35,"x_max":710,"o":"m 514 163 q 368 122 461 122 q 224 181 278 122 q 169 324 169 239 q 226 477 169 421 q 375 533 283 533 q 507 500 463 533 l 490 458 q 375 489 438 489 q 225 331 225 481 q 376 171 225 179 q 496 206 447 171 l 514 163 m 710 333 q 610 95 710 194 q 372 -4 511 -4 q 134 95 233 -4 q 35 333 35 194 q 134 572 35 472 q 372 671 233 671 q 610 572 511 671 q 710 333 710 472 m 660 333 q 576 537 660 453 q 372 621 492 621 q 169 537 253 621 q 85 333 85 453 q 169 130 85 214 q 372 46 253 46 q 576 130 492 46 q 660 333 660 214 z "},"ª":{"ha":342,"x_min":33,"x_max":294,"o":"m 294 343 l 251 343 l 244 389 q 140 339 206 339 q 33 433 33 339 q 242 544 33 542 l 242 554 q 231 592 242 574 q 160 624 208 624 q 74 594 113 624 l 58 629 q 169 665 110 665 q 290 517 290 665 l 290 424 q 294 343 290 383 m 242 447 l 242 506 q 82 433 82 506 q 149 381 82 381 q 208 401 175 381 q 242 447 242 421 z "},"«":{"ha":414,"x_min":15,"x_max":382,"o":"m 324 67 l 169 246 l 322 429 l 381 429 l 228 246 l 382 67 l 324 67 m 169 67 l 15 246 l 168 429 l 226 429 l 74 246 l 228 67 l 169 67 z "},"¬":{"ha":583,"x_min":32,"x_max":538,"o":"m 538 126 l 483 126 l 483 332 l 32 332 l 32 378 l 538 378 l 538 126 z "},"®":{"ha":744,"x_min":35,"x_max":710,"o":"m 710 333 q 610 95 710 194 q 372 -4 511 -4 q 134 95 233 -4 q 35 333 35 194 q 134 572 35 472 q 372 671 233 671 q 610 572 511 671 q 710 333 710 472 m 660 333 q 576 537 660 453 q 372 621 492 621 q 169 537 253 621 q 85 333 85 453 q 169 130 85 214 q 372 46 253 46 q 576 130 492 46 q 660 333 660 214 m 528 129 l 474 129 q 383 306 449 306 l 299 306 l 299 129 l 243 129 l 243 533 q 358 544 293 543 q 473 513 432 544 q 514 428 514 482 q 457 325 514 356 q 528 129 511 276 m 460 421 q 364 496 460 496 q 299 492 326 496 l 299 357 l 374 357 q 436 374 413 357 q 460 421 460 390 z "},"¯":{"ha":489,"x_min":0,"x_max":489,"o":"m 489 776 l 489 733 l 0 733 l 0 776 l 489 776 z "},"°":{"ha":294,"x_min":28,"x_max":265,"o":"m 265 551 q 230 468 265 503 q 146 433 194 433 q 63 468 97 433 q 28 551 28 503 q 63 635 28 600 q 146 671 97 671 q 230 635 194 671 q 265 551 265 600 m 224 551 q 201 607 224 583 q 146 631 178 631 q 92 607 114 631 q 69 551 69 583 q 92 497 69 519 q 146 474 114 474 q 201 497 178 474 q 224 551 224 519 z "},"±":{"ha":571,"x_min":53,"x_max":518,"o":"m 518 279 l 310 279 l 310 94 l 261 94 l 261 279 l 53 279 l 53 324 l 261 324 l 261 496 l 310 496 l 310 324 l 518 324 l 518 279 m 518 0 l 53 0 l 53 44 l 518 44 l 518 0 z "},"²":{"ha":353,"x_min":35,"x_max":292,"o":"m 292 315 l 286 272 l 35 272 q 131 418 38 329 q 203 490 168 453 q 239 565 239 528 q 179 625 239 625 q 106 549 113 625 l 58 557 q 96 639 64 610 q 175 668 128 668 q 255 640 224 668 q 286 565 286 613 q 211 431 286 508 q 99 315 156 372 l 292 315 z "},"³":{"ha":353,"x_min":49,"x_max":299,"o":"m 299 414 q 257 312 299 350 q 147 272 215 274 q 49 300 86 271 l 69 344 q 143 318 101 318 q 224 344 194 318 q 253 413 253 371 q 194 474 253 474 q 133 454 156 474 l 114 489 q 192 544 183 538 q 224 596 224 571 q 178 624 224 624 q 97 563 121 624 l 57 583 q 182 669 94 669 q 269 597 269 669 q 250 546 269 572 q 207 510 231 519 q 299 414 299 504 z "},"´":{"ha":294,"x_min":75,"x_max":214,"o":"m 118 733 l 75 733 l 144 860 l 214 860 l 118 733 z "},"µ":{"ha":564,"x_min":79,"x_max":497,"o":"m 497 0 l 446 0 q 439 72 439 39 l 439 88 q 261 -12 360 -12 q 132 58 181 -12 l 132 -194 l 79 -194 l 79 472 l 132 472 l 132 203 q 274 35 132 35 q 385 81 335 35 q 435 185 435 128 l 435 472 l 488 472 l 488 115 q 497 0 488 29 z "},"¶":{"ha":519,"x_min":63,"x_max":446,"o":"m 446 -87 l 399 -87 l 399 615 l 332 615 l 332 -87 l 283 -87 l 283 250 l 278 250 q 133 299 194 250 q 63 446 63 354 q 338 660 63 660 q 446 653 411 660 l 446 -87 z "},"·":{"ha":225,"x_min":64,"x_max":160,"o":"m 160 251 q 145 218 160 232 q 111 204 131 204 q 78 218 92 204 q 64 251 64 232 q 78 285 64 271 q 111 300 92 300 q 145 285 131 300 q 160 251 160 271 z "},"¸":{"ha":294,"x_min":49,"x_max":213,"o":"m 213 -112 q 115 -193 213 -193 q 49 -175 82 -193 l 63 -144 q 117 -158 92 -158 q 169 -119 169 -158 q 82 -78 169 -85 l 136 6 l 181 6 l 143 -47 q 213 -112 213 -64 z "},"¹":{"ha":353,"x_min":82,"x_max":269,"o":"m 269 279 l 100 279 l 100 313 l 161 313 l 161 597 l 108 551 l 82 585 l 181 672 q 210 633 210 669 l 210 313 l 269 313 l 269 279 z "},"º":{"ha":396,"x_min":28,"x_max":368,"o":"m 368 500 q 317 381 368 431 q 197 331 265 331 q 78 381 128 331 q 28 500 28 431 q 78 619 28 568 q 197 671 128 671 q 317 619 265 671 q 368 500 368 568 m 319 500 q 283 586 319 550 q 197 622 247 622 q 112 586 147 622 q 76 500 76 550 q 112 415 76 450 q 197 379 147 379 q 283 415 247 379 q 319 500 319 450 z "},"»":{"ha":408,"x_min":26,"x_max":393,"o":"m 85 67 l 26 67 l 181 246 l 28 429 l 86 429 l 239 246 l 85 67 m 239 67 l 181 67 l 335 246 l 182 429 l 240 429 l 393 246 l 239 67 z "},"¼":{"ha":744,"x_min":42,"x_max":697,"o":"m 588 132 l 588 338 q 517 238 549 304 q 483 132 486 176 l 588 132 m 694 86 l 636 86 l 636 0 l 588 0 l 588 86 l 432 86 q 485 276 433 179 q 636 397 546 394 l 636 132 l 697 132 l 694 86 m 203 -12 l 157 -12 l 551 649 l 597 649 l 203 -12 m 229 258 l 60 258 l 60 292 l 121 292 l 121 571 l 68 525 l 42 558 l 140 646 q 169 607 169 643 l 169 292 l 229 292 l 229 258 z "},"½":{"ha":744,"x_min":42,"x_max":708,"o":"m 203 -12 l 157 -12 l 551 649 l 597 649 l 203 -12 m 229 258 l 60 258 l 60 292 l 121 292 l 121 571 l 68 525 l 42 558 l 140 646 q 169 607 169 643 l 169 292 l 229 292 l 229 258 m 703 0 l 451 0 q 547 146 454 57 q 620 218 585 181 q 656 293 656 256 q 596 353 656 353 q 522 276 529 353 l 475 285 q 513 367 481 338 q 592 396 544 396 q 673 369 642 396 q 704 293 704 342 q 629 158 704 236 q 521 43 572 100 l 708 43 l 703 0 z "},"¾":{"ha":744,"x_min":49,"x_max":697,"o":"m 203 -12 l 157 -12 l 551 649 l 597 649 l 203 -12 m 299 397 q 257 295 299 333 q 147 256 215 257 q 49 283 86 254 l 69 328 q 143 301 101 301 q 224 328 194 301 q 253 396 253 354 q 194 457 253 457 q 133 438 156 457 l 114 472 q 192 528 183 521 q 224 579 224 554 q 178 607 224 607 q 97 546 115 607 l 57 567 q 182 653 94 653 q 269 581 269 653 q 250 529 269 556 q 207 493 231 503 q 299 397 299 479 m 588 132 l 588 338 q 517 238 549 304 q 483 132 486 176 l 588 132 m 694 86 l 636 86 l 636 0 l 588 0 l 588 86 l 432 86 q 485 276 433 179 q 636 397 546 394 l 636 132 l 697 132 l 694 86 z "},"¿":{"ha":401,"x_min":47,"x_max":347,"o":"m 347 -169 q 206 -212 281 -212 q 85 -167 126 -212 q 47 -67 47 -126 q 135 100 47 7 q 203 243 203 172 q 199 288 203 268 l 246 288 q 253 239 253 267 q 177 81 253 165 q 101 -64 101 -4 q 215 -164 101 -164 q 326 -128 281 -164 l 347 -169 m 275 422 q 260 386 275 401 q 224 371 244 371 q 188 386 203 371 q 172 422 172 401 q 188 458 172 443 q 224 474 203 474 q 260 458 244 474 q 275 422 275 443 z "},"À":{"ha":556,"x_min":0,"x_max":556,"o":"m 556 0 l 496 0 l 419 213 l 135 213 l 60 0 l 0 0 l 250 671 l 306 671 l 556 0 m 403 258 l 278 611 l 151 258 l 403 258 m 339 731 l 296 731 l 215 843 l 269 857 l 339 731 z "},"Á":{"ha":556,"x_min":0,"x_max":556,"o":"m 556 0 l 496 0 l 419 213 l 135 213 l 60 0 l 0 0 l 250 671 l 306 671 l 556 0 m 403 258 l 278 611 l 151 258 l 403 258 m 258 731 l 215 731 l 285 857 l 339 843 l 258 731 z "},"Â":{"ha":556,"x_min":0,"x_max":556,"o":"m 556 0 l 496 0 l 419 213 l 135 213 l 60 0 l 0 0 l 250 671 l 306 671 l 556 0 m 403 258 l 278 611 l 151 258 l 403 258 m 297 842 l 393 733 l 342 733 l 278 806 l 214 733 l 163 733 l 258 842 l 297 842 z "},"Ã":{"ha":556,"x_min":0,"x_max":556,"o":"m 556 0 l 496 0 l 419 213 l 135 213 l 60 0 l 0 0 l 250 671 l 306 671 l 556 0 m 403 258 l 278 611 l 151 258 l 403 258 m 397 817 q 328 733 394 733 q 299 740 314 733 q 269 756 283 747 q 241 772 254 765 q 218 779 228 779 q 197 767 207 779 q 186 731 188 754 l 151 731 q 172 793 153 772 q 219 814 190 814 q 249 807 235 814 q 278 791 264 800 q 307 775 293 782 q 335 768 321 768 q 363 817 358 768 l 397 817 z "},"Ä":{"ha":556,"x_min":0,"x_max":556,"o":"m 556 0 l 496 0 l 419 213 l 135 213 l 60 0 l 0 0 l 250 671 l 306 671 l 556 0 m 403 258 l 278 611 l 151 258 l 403 258 m 233 775 q 221 745 233 757 q 190 733 208 733 q 160 745 172 733 q 149 775 149 757 q 160 806 149 793 q 190 818 172 818 q 221 806 208 818 q 233 775 233 793 m 406 775 q 393 745 406 757 q 363 733 381 733 q 333 745 344 733 q 321 775 321 757 q 333 806 321 793 q 363 818 344 818 q 393 806 381 818 q 406 775 406 793 z "},"Å":{"ha":556,"x_min":0,"x_max":556,"o":"m 556 0 l 496 0 l 419 213 l 135 213 l 60 0 l 0 0 l 250 671 l 306 671 l 556 0 m 403 258 l 278 611 l 151 258 l 403 258 m 379 800 q 349 730 379 760 q 276 700 319 700 q 206 730 236 700 q 176 800 176 760 q 206 874 176 843 q 276 904 236 904 q 349 874 319 904 q 379 800 379 843 m 339 799 q 322 842 339 825 q 278 860 304 860 q 236 842 253 860 q 219 799 219 825 q 236 758 219 775 q 278 742 253 742 q 322 758 304 742 q 339 799 339 775 z "},"Æ":{"ha":808,"x_min":-10,"x_max":756,"o":"m 756 0 l 458 0 l 419 272 l 192 272 l 47 0 l -10 0 l 344 661 l 739 661 l 739 615 l 422 615 l 456 371 l 724 371 l 724 325 l 463 325 l 504 46 l 756 46 l 756 0 m 413 317 l 375 622 l 214 317 l 413 317 z "},"Ç":{"ha":564,"x_min":32,"x_max":526,"o":"m 510 69 l 526 25 q 346 -10 453 -10 q 122 87 211 -10 q 32 332 32 183 q 122 576 32 481 q 346 671 211 671 q 526 636 453 671 l 510 592 q 349 624 435 624 q 167 544 242 624 q 88 331 88 461 q 167 117 88 200 q 349 38 242 38 q 510 69 435 38 m 364 -112 q 267 -193 364 -193 q 200 -175 233 -193 l 214 -144 q 268 -158 243 -158 q 321 -119 321 -158 q 233 -78 321 -85 l 288 6 l 332 6 l 294 -47 q 364 -112 364 -64 z "},"È":{"ha":488,"x_min":75,"x_max":435,"o":"m 435 0 l 75 0 l 75 661 l 435 661 l 435 615 l 129 615 l 129 372 l 401 372 l 401 326 l 129 326 l 129 46 l 435 46 l 435 0 m 306 731 l 263 731 l 182 843 l 236 857 l 306 731 z "},"É":{"ha":488,"x_min":75,"x_max":435,"o":"m 435 0 l 75 0 l 75 661 l 435 661 l 435 615 l 129 615 l 129 372 l 401 372 l 401 326 l 129 326 l 129 46 l 435 46 l 435 0 m 225 731 l 182 731 l 251 857 l 306 843 l 225 731 z "},"Ê":{"ha":488,"x_min":75,"x_max":435,"o":"m 435 0 l 75 0 l 75 661 l 435 661 l 435 615 l 129 615 l 129 372 l 401 372 l 401 326 l 129 326 l 129 46 l 435 46 l 435 0 m 263 842 l 358 733 l 307 733 l 243 806 l 179 733 l 128 733 l 224 842 l 263 842 z "},"Ë":{"ha":488,"x_min":75,"x_max":435,"o":"m 435 0 l 75 0 l 75 661 l 435 661 l 435 615 l 129 615 l 129 372 l 401 372 l 401 326 l 129 326 l 129 46 l 435 46 l 435 0 m 200 775 q 188 745 200 757 q 157 733 175 733 q 127 745 139 733 q 115 775 115 757 q 127 806 115 793 q 157 818 139 818 q 188 806 175 818 q 200 775 200 793 m 372 775 q 360 745 372 757 q 329 733 347 733 q 299 745 311 733 q 288 775 288 757 q 299 806 288 793 q 329 818 311 818 q 360 806 347 818 q 372 775 372 793 z "},"Ì":{"ha":204,"x_min":40,"x_max":164,"o":"m 129 0 l 75 0 l 75 661 l 129 661 l 129 0 m 164 731 l 121 731 l 40 843 l 94 857 l 164 731 z "},"Í":{"ha":204,"x_min":40,"x_max":164,"o":"m 129 0 l 75 0 l 75 661 l 129 661 l 129 0 m 83 731 l 40 731 l 110 857 l 164 843 l 83 731 z "},"Î":{"ha":204,"x_min":8,"x_max":239,"o":"m 129 0 l 75 0 l 75 661 l 129 661 l 129 0 m 143 842 l 239 733 l 188 733 l 124 806 l 60 733 l 8 733 l 104 842 l 143 842 z "},"Ï":{"ha":204,"x_min":-6,"x_max":251,"o":"m 129 0 l 75 0 l 75 661 l 129 661 l 129 0 m 79 775 q 67 745 79 757 q 36 733 54 733 q 6 745 18 733 q -6 775 -6 757 q 6 806 -6 793 q 36 818 18 818 q 67 806 54 818 q 79 775 79 793 m 251 775 q 239 745 251 757 q 208 733 226 733 q 178 745 190 733 q 167 775 167 757 q 178 806 167 793 q 208 818 190 818 q 239 806 226 818 q 251 775 251 793 z "},"Ð":{"ha":599,"x_min":7,"x_max":558,"o":"m 558 344 q 244 -6 558 -6 q 75 7 203 -6 l 75 296 l 7 296 l 7 342 l 75 342 l 75 651 q 272 668 203 668 q 478 583 399 668 q 558 344 558 494 m 504 344 q 435 551 504 476 q 268 621 371 621 q 129 610 225 621 l 129 342 l 363 342 l 363 296 l 129 296 l 129 50 q 261 42 199 42 q 439 122 374 42 q 504 344 504 201 z "},"Ñ":{"ha":613,"x_min":75,"x_max":538,"o":"m 538 0 l 481 0 l 131 585 l 131 0 l 75 0 l 75 661 l 138 661 l 485 85 l 485 661 l 538 661 l 538 0 m 426 817 q 357 733 424 733 q 328 740 343 733 q 298 756 313 747 q 270 772 283 765 q 247 779 257 779 q 226 767 236 779 q 215 731 217 754 l 181 731 q 201 793 182 772 q 249 814 219 814 q 278 807 264 814 q 308 791 293 800 q 336 775 322 782 q 364 768 350 768 q 392 817 388 768 l 426 817 z "},"Ò":{"ha":675,"x_min":31,"x_max":644,"o":"m 644 329 q 559 83 644 181 q 338 -14 474 -14 q 116 83 201 -14 q 31 329 31 181 q 116 575 31 478 q 338 672 201 672 q 559 575 474 672 q 644 329 644 478 m 590 329 q 519 538 590 451 q 338 625 449 625 q 156 538 226 625 q 85 329 85 451 q 156 120 85 207 q 338 33 226 33 q 519 120 449 33 q 590 329 590 207 m 399 731 l 356 731 l 275 843 l 329 857 l 399 731 z "},"Ó":{"ha":675,"x_min":31,"x_max":644,"o":"m 644 329 q 559 83 644 181 q 338 -14 474 -14 q 116 83 201 -14 q 31 329 31 181 q 116 575 31 478 q 338 672 201 672 q 559 575 474 672 q 644 329 644 478 m 590 329 q 519 538 590 451 q 338 625 449 625 q 156 538 226 625 q 85 329 85 451 q 156 120 85 207 q 338 33 226 33 q 519 120 449 33 q 590 329 590 207 m 318 731 l 275 731 l 344 857 l 399 843 l 318 731 z "},"Ô":{"ha":675,"x_min":31,"x_max":644,"o":"m 644 329 q 559 83 644 181 q 338 -14 474 -14 q 116 83 201 -14 q 31 329 31 181 q 116 575 31 478 q 338 672 201 672 q 559 575 474 672 q 644 329 644 478 m 590 329 q 519 538 590 451 q 338 625 449 625 q 156 538 226 625 q 85 329 85 451 q 156 120 85 207 q 338 33 226 33 q 519 120 449 33 q 590 329 590 207 m 357 842 l 453 733 l 401 733 l 338 806 l 274 733 l 222 733 l 318 842 l 357 842 z "},"Õ":{"ha":675,"x_min":31,"x_max":644,"o":"m 644 329 q 559 83 644 181 q 338 -14 474 -14 q 116 83 201 -14 q 31 329 31 181 q 116 575 31 478 q 338 672 201 672 q 559 575 474 672 q 644 329 644 478 m 590 329 q 519 538 590 451 q 338 625 449 625 q 156 538 226 625 q 85 329 85 451 q 156 120 85 207 q 338 33 226 33 q 519 120 449 33 q 590 329 590 207 m 457 817 q 388 733 454 733 q 358 740 374 733 q 328 756 343 747 q 301 772 314 765 q 278 779 288 779 q 257 767 267 779 q 246 731 247 754 l 211 731 q 231 793 213 772 q 279 814 250 814 q 309 807 294 814 q 338 791 324 800 q 367 775 353 782 q 394 768 381 768 q 422 817 418 768 l 457 817 z "},"Ö":{"ha":675,"x_min":31,"x_max":644,"o":"m 644 329 q 559 83 644 181 q 338 -14 474 -14 q 116 83 201 -14 q 31 329 31 181 q 116 575 31 478 q 338 672 201 672 q 559 575 474 672 q 644 329 644 478 m 590 329 q 519 538 590 451 q 338 625 449 625 q 156 538 226 625 q 85 329 85 451 q 156 120 85 207 q 338 33 226 33 q 519 120 449 33 q 590 329 590 207 m 293 775 q 281 745 293 757 q 250 733 268 733 q 220 745 232 733 q 208 775 208 757 q 220 806 208 793 q 250 818 232 818 q 281 806 268 818 q 293 775 293 793 m 465 775 q 453 745 465 757 q 422 733 440 733 q 392 745 404 733 q 381 775 381 757 q 392 806 381 793 q 422 818 404 818 q 453 806 440 818 q 465 775 465 793 z "},"×":{"ha":571,"x_min":65,"x_max":504,"o":"m 468 15 l 285 207 l 101 15 l 65 49 l 249 242 l 65 435 l 101 468 l 285 276 l 468 468 l 504 435 l 321 242 l 504 49 l 468 15 z "},"Ø":{"ha":675,"x_min":31,"x_max":644,"o":"m 644 329 q 559 83 644 181 q 338 -14 474 -14 q 210 11 267 -14 l 185 -40 l 132 -40 l 168 35 q 115 83 140 56 q 31 329 31 181 q 116 575 31 478 q 338 672 201 672 q 467 644 408 672 l 486 685 l 543 685 l 510 619 q 558 575 536 600 q 644 329 644 478 m 444 600 q 338 625 396 625 q 156 538 226 625 q 85 329 85 451 q 156 119 85 207 q 192 83 172 99 l 444 600 m 590 329 q 519 538 590 451 q 486 571 504 557 l 232 57 q 338 33 279 33 q 519 120 449 33 q 590 329 590 207 z "},"Ù":{"ha":647,"x_min":75,"x_max":572,"o":"m 572 279 q 324 -12 572 -12 q 75 279 75 -12 l 75 661 l 129 661 l 129 281 q 183 92 129 150 q 324 33 236 33 q 466 92 413 33 q 518 281 519 150 l 518 661 l 572 661 l 572 279 m 361 731 l 318 731 l 238 843 l 292 857 l 361 731 z "},"Ú":{"ha":647,"x_min":75,"x_max":572,"o":"m 572 279 q 324 -12 572 -12 q 75 279 75 -12 l 75 661 l 129 661 l 129 281 q 183 92 129 150 q 324 33 236 33 q 466 92 413 33 q 518 281 519 150 l 518 661 l 572 661 l 572 279 m 318 731 l 275 731 l 344 857 l 399 843 l 318 731 z "},"Û":{"ha":647,"x_min":75,"x_max":572,"o":"m 572 279 q 324 -12 572 -12 q 75 279 75 -12 l 75 661 l 129 661 l 129 281 q 183 92 129 150 q 324 33 236 33 q 466 92 413 33 q 518 281 519 150 l 518 661 l 572 661 l 572 279 m 343 842 l 439 733 l 388 733 l 324 806 l 260 733 l 208 733 l 304 842 l 343 842 z "},"Ü":{"ha":647,"x_min":75,"x_max":572,"o":"m 572 279 q 324 -12 572 -12 q 75 279 75 -12 l 75 661 l 129 661 l 129 281 q 183 92 129 150 q 324 33 236 33 q 466 92 413 33 q 518 281 519 150 l 518 661 l 572 661 l 572 279 m 279 775 q 267 745 279 757 q 236 733 254 733 q 206 745 218 733 q 194 775 194 757 q 206 806 194 793 q 236 818 218 818 q 267 806 254 818 q 279 775 279 793 m 451 775 q 439 745 451 757 q 408 733 426 733 q 378 745 390 733 q 367 775 367 757 q 378 806 367 793 q 408 818 390 818 q 439 806 426 818 q 451 775 451 793 z "},"Ý":{"ha":508,"x_min":0,"x_max":508,"o":"m 508 661 l 281 292 l 281 0 l 228 0 l 228 290 l 0 661 l 63 661 l 254 338 l 446 661 l 508 661 m 256 731 l 213 731 l 282 857 l 336 843 l 256 731 z "},"Þ":{"ha":528,"x_min":83,"x_max":488,"o":"m 488 364 q 417 206 488 260 q 226 153 347 153 q 136 164 192 153 l 136 0 l 83 0 l 83 661 l 136 661 l 136 531 q 250 546 194 546 q 411 501 343 546 q 488 364 488 450 m 436 357 q 379 469 436 431 q 250 501 331 501 q 136 482 199 501 l 136 213 q 229 197 186 197 q 383 240 329 197 q 436 357 436 282 z "},"ß":{"ha":544,"x_min":57,"x_max":494,"o":"m 494 142 q 453 32 494 74 q 326 -12 407 -12 q 208 15 258 -12 l 225 61 q 328 33 278 33 q 414 62 383 33 q 444 133 444 90 q 374 242 444 181 q 303 357 303 304 q 350 440 303 394 q 397 513 397 485 q 276 626 397 626 q 138 399 138 626 l 138 -75 q 107 -206 138 -150 l 57 -192 q 83 -75 83 -137 l 83 422 q 286 676 83 676 q 402 633 356 676 q 449 515 449 589 q 403 422 449 460 q 357 353 357 385 q 403 289 357 329 q 458 235 449 249 q 494 142 494 186 z "},"à":{"ha":478,"x_min":36,"x_max":422,"o":"m 422 0 l 374 -10 l 354 67 q 186 -12 290 -12 q 81 22 125 -12 q 36 118 36 57 q 343 294 36 294 l 351 294 l 351 303 q 331 383 351 349 q 222 439 299 439 q 72 407 174 439 l 65 457 q 226 482 143 482 q 406 285 406 482 l 406 115 q 422 0 406 57 m 351 153 l 351 247 q 93 128 93 247 q 121 58 93 82 q 190 33 149 33 q 344 126 300 33 q 351 153 351 142 m 300 542 l 257 542 l 176 654 l 231 668 l 300 542 z "},"á":{"ha":478,"x_min":36,"x_max":422,"o":"m 422 0 l 374 -10 l 354 67 q 186 -12 290 -12 q 81 22 125 -12 q 36 118 36 57 q 343 294 36 294 l 351 294 l 351 303 q 331 383 351 349 q 222 439 299 439 q 72 407 174 439 l 65 457 q 226 482 143 482 q 406 285 406 482 l 406 115 q 422 0 406 57 m 351 153 l 351 247 q 93 128 93 247 q 121 58 93 82 q 190 33 149 33 q 344 126 300 33 q 351 153 351 142 m 219 542 l 176 542 l 246 668 l 300 654 l 219 542 z "},"â":{"ha":478,"x_min":36,"x_max":422,"o":"m 422 0 l 374 -10 l 354 67 q 186 -12 290 -12 q 81 22 125 -12 q 36 118 36 57 q 343 294 36 294 l 351 294 l 351 303 q 331 383 351 349 q 222 439 299 439 q 72 407 174 439 l 65 457 q 226 482 143 482 q 406 285 406 482 l 406 115 q 422 0 406 57 m 351 153 l 351 247 q 93 128 93 247 q 121 58 93 82 q 190 33 149 33 q 344 126 300 33 q 351 153 351 142 m 258 653 l 354 544 l 303 544 l 239 617 l 175 544 l 124 544 l 219 653 l 258 653 z "},"ã":{"ha":478,"x_min":36,"x_max":422,"o":"m 422 0 l 374 -10 l 354 67 q 186 -12 290 -12 q 81 22 125 -12 q 36 118 36 57 q 343 294 36 294 l 351 294 l 351 303 q 331 383 351 349 q 222 439 299 439 q 72 407 174 439 l 65 457 q 226 482 143 482 q 406 285 406 482 l 406 115 q 422 0 406 57 m 351 153 l 351 247 q 93 128 93 247 q 121 58 93 82 q 190 33 149 33 q 344 126 300 33 q 351 153 351 142 m 358 628 q 289 544 356 544 q 260 551 275 544 q 230 567 244 558 q 202 583 215 576 q 179 590 189 590 q 158 578 168 590 q 147 542 149 565 l 113 542 q 133 604 114 583 q 181 625 151 625 q 210 618 196 625 q 240 602 225 611 q 268 586 254 593 q 296 579 282 579 q 324 628 319 579 l 358 628 z "},"ä":{"ha":478,"x_min":36,"x_max":422,"o":"m 422 0 l 374 -10 l 354 67 q 186 -12 290 -12 q 81 22 125 -12 q 36 118 36 57 q 343 294 36 294 l 351 294 l 351 303 q 331 383 351 349 q 222 439 299 439 q 72 407 174 439 l 65 457 q 226 482 143 482 q 406 285 406 482 l 406 115 q 422 0 406 57 m 351 153 l 351 247 q 93 128 93 247 q 121 58 93 82 q 190 33 149 33 q 344 126 300 33 q 351 153 351 142 m 194 586 q 182 556 194 568 q 151 544 169 544 q 122 556 133 544 q 110 586 110 568 q 122 617 110 604 q 151 629 133 629 q 182 617 169 629 q 194 586 194 604 m 367 586 q 354 556 367 568 q 324 544 342 544 q 294 556 306 544 q 282 586 282 568 q 294 617 282 604 q 324 629 306 629 q 354 617 342 629 q 367 586 367 604 z "},"å":{"ha":478,"x_min":36,"x_max":422,"o":"m 422 0 l 374 -10 l 354 67 q 186 -12 290 -12 q 81 22 125 -12 q 36 118 36 57 q 343 294 36 294 l 351 294 l 351 303 q 331 383 351 349 q 222 439 299 439 q 72 407 174 439 l 65 457 q 226 482 143 482 q 406 285 406 482 l 406 115 q 422 0 406 57 m 351 153 l 351 247 q 93 128 93 247 q 121 58 93 82 q 190 33 149 33 q 344 126 300 33 q 351 153 351 142 m 340 611 q 310 541 340 571 q 238 511 281 511 q 167 541 197 511 q 138 611 138 571 q 167 685 138 654 q 238 715 197 715 q 310 685 281 715 q 340 611 340 654 m 300 610 q 283 653 300 636 q 239 671 265 671 q 197 653 214 671 q 181 610 181 636 q 197 569 181 586 q 239 553 214 553 q 283 569 265 553 q 300 610 300 586 z "},"æ":{"ha":844,"x_min":36,"x_max":790,"o":"m 764 67 l 768 21 q 593 -12 688 -12 q 382 108 450 -12 q 186 -12 343 -12 q 81 22 125 -12 q 36 118 36 57 q 343 294 36 294 l 351 294 l 351 303 q 331 383 351 349 q 222 439 299 439 q 72 407 174 439 l 65 457 q 226 482 143 482 q 392 376 354 482 q 588 482 458 482 q 790 233 786 482 l 404 233 q 460 87 407 139 q 599 35 514 35 q 764 67 682 35 m 351 199 l 351 247 q 93 128 93 247 q 121 58 93 82 q 190 33 149 33 q 294 65 251 33 q 351 199 351 108 m 407 276 l 739 276 q 707 378 738 333 q 581 439 665 439 q 456 383 504 439 q 407 276 417 339 z "},"ç":{"ha":460,"x_min":38,"x_max":433,"o":"m 414 65 l 433 21 q 288 -12 374 -12 q 104 55 171 -12 q 38 235 38 122 q 104 415 38 347 q 288 482 171 482 q 433 449 374 482 l 414 404 q 285 438 363 438 q 145 383 200 438 q 90 235 90 329 q 145 86 90 140 q 285 32 200 32 q 414 65 363 32 m 304 -101 q 216 -174 304 -174 q 156 -158 186 -174 l 169 -130 q 218 -143 195 -143 q 265 -108 265 -143 q 186 -70 265 -76 l 235 5 l 275 5 l 241 -43 q 304 -101 304 -58 z "},"è":{"ha":519,"x_min":38,"x_max":476,"o":"m 450 67 l 454 21 q 279 -12 374 -12 q 104 54 171 -12 q 38 224 38 121 q 104 411 38 340 q 274 482 171 482 q 476 233 472 482 l 90 233 q 147 87 93 139 q 285 35 200 35 q 450 67 368 35 m 425 276 q 393 378 424 333 q 267 439 351 439 q 142 383 190 439 q 93 276 103 339 l 425 276 m 321 542 l 278 542 l 197 654 l 251 668 l 321 542 z "},"é":{"ha":519,"x_min":38,"x_max":476,"o":"m 450 67 l 454 21 q 279 -12 374 -12 q 104 54 171 -12 q 38 224 38 121 q 104 411 38 340 q 274 482 171 482 q 476 233 472 482 l 90 233 q 147 87 93 139 q 285 35 200 35 q 450 67 368 35 m 425 276 q 393 378 424 333 q 267 439 351 439 q 142 383 190 439 q 93 276 103 339 l 425 276 m 240 542 l 197 542 l 267 668 l 321 654 l 240 542 z "},"ê":{"ha":519,"x_min":38,"x_max":476,"o":"m 450 67 l 454 21 q 279 -12 374 -12 q 104 54 171 -12 q 38 224 38 121 q 104 411 38 340 q 274 482 171 482 q 476 233 472 482 l 90 233 q 147 87 93 139 q 285 35 200 35 q 450 67 368 35 m 425 276 q 393 378 424 333 q 267 439 351 439 q 142 383 190 439 q 93 276 103 339 l 425 276 m 279 653 l 375 544 l 324 544 l 260 617 l 196 544 l 144 544 l 240 653 l 279 653 z "},"ë":{"ha":519,"x_min":38,"x_max":476,"o":"m 450 67 l 454 21 q 279 -12 374 -12 q 104 54 171 -12 q 38 224 38 121 q 104 411 38 340 q 274 482 171 482 q 476 233 472 482 l 90 233 q 147 87 93 139 q 285 35 200 35 q 450 67 368 35 m 425 276 q 393 378 424 333 q 267 439 351 439 q 142 383 190 439 q 93 276 103 339 l 425 276 m 215 586 q 203 556 215 568 q 172 544 190 544 q 142 556 154 544 q 131 586 131 568 q 142 617 131 604 q 172 629 154 629 q 203 617 190 629 q 215 586 215 604 m 388 586 q 375 556 388 568 q 344 544 363 544 q 315 556 326 544 q 303 586 303 568 q 315 617 303 604 q 344 629 326 629 q 375 617 363 629 q 388 586 388 604 z "},"ì":{"ha":199,"x_min":38,"x_max":161,"o":"m 125 0 l 72 0 l 72 472 l 125 472 l 125 0 m 161 542 l 118 542 l 38 654 l 92 668 l 161 542 z "},"í":{"ha":199,"x_min":38,"x_max":161,"o":"m 125 0 l 72 0 l 72 472 l 125 472 l 125 0 m 81 542 l 38 542 l 107 668 l 161 654 l 81 542 z "},"î":{"ha":199,"x_min":6,"x_max":236,"o":"m 125 0 l 72 0 l 72 472 l 125 472 l 125 0 m 140 653 l 236 544 l 185 544 l 121 617 l 57 544 l 6 544 l 101 653 l 140 653 z "},"ï":{"ha":199,"x_min":-8,"x_max":249,"o":"m 125 0 l 72 0 l 72 472 l 125 472 l 125 0 m 76 586 q 64 556 76 568 q 33 544 51 544 q 3 556 15 544 q -8 586 -8 568 q 3 617 -8 604 q 33 629 15 629 q 64 617 51 629 q 76 586 76 604 m 249 586 q 236 556 249 568 q 206 544 224 544 q 176 556 188 544 q 164 586 164 568 q 176 617 164 604 q 206 629 188 629 q 236 617 224 629 q 249 586 249 604 z "},"ð":{"ha":503,"x_min":53,"x_max":447,"o":"m 447 226 q 397 58 447 125 q 242 -17 340 -17 q 103 44 154 -17 q 53 196 53 106 q 104 346 53 283 q 238 408 156 408 q 340 381 296 408 q 379 339 372 358 q 263 528 347 447 l 142 451 l 118 489 l 226 558 q 93 626 164 606 l 97 667 q 272 588 196 647 l 376 656 l 400 618 l 307 557 q 349 511 329 536 q 447 226 447 386 m 392 196 q 350 314 392 265 q 249 363 308 363 q 146 314 183 363 q 108 196 108 265 q 145 79 108 128 q 249 31 182 31 q 350 79 308 31 q 392 196 392 128 z "},"ñ":{"ha":542,"x_min":63,"x_max":469,"o":"m 469 0 l 415 0 l 415 268 q 274 438 415 438 q 172 390 217 438 q 126 286 126 342 l 126 0 l 72 0 l 72 356 q 63 472 72 393 l 114 472 q 125 388 124 443 q 285 482 179 482 q 469 268 469 482 l 469 0 m 390 628 q 321 544 388 544 q 292 551 307 544 q 262 567 276 558 q 234 583 247 576 q 211 590 221 590 q 190 578 200 590 q 179 542 181 565 l 144 542 q 165 604 146 583 q 213 625 183 625 q 242 618 228 625 q 272 602 257 611 q 300 586 286 593 q 328 579 314 579 q 356 628 351 579 l 390 628 z "},"ò":{"ha":553,"x_min":39,"x_max":514,"o":"m 514 235 q 449 58 514 131 q 276 -14 383 -14 q 104 58 169 -14 q 39 235 39 131 q 104 410 39 339 q 276 482 169 482 q 449 410 383 482 q 514 235 514 339 m 461 235 q 409 378 461 321 q 276 436 357 436 q 144 378 196 436 q 92 235 92 321 q 144 90 92 149 q 276 32 196 32 q 409 90 357 32 q 461 235 461 149 m 338 542 l 294 542 l 214 654 l 268 668 l 338 542 z "},"ó":{"ha":553,"x_min":39,"x_max":514,"o":"m 514 235 q 449 58 514 131 q 276 -14 383 -14 q 104 58 169 -14 q 39 235 39 131 q 104 410 39 339 q 276 482 169 482 q 449 410 383 482 q 514 235 514 339 m 461 235 q 409 378 461 321 q 276 436 357 436 q 144 378 196 436 q 92 235 92 321 q 144 90 92 149 q 276 32 196 32 q 409 90 357 32 q 461 235 461 149 m 257 542 l 214 542 l 283 668 l 338 654 l 257 542 z "},"ô":{"ha":553,"x_min":39,"x_max":514,"o":"m 514 235 q 449 58 514 131 q 276 -14 383 -14 q 104 58 169 -14 q 39 235 39 131 q 104 410 39 339 q 276 482 169 482 q 449 410 383 482 q 514 235 514 339 m 461 235 q 409 378 461 321 q 276 436 357 436 q 144 378 196 436 q 92 235 92 321 q 144 90 92 149 q 276 32 196 32 q 409 90 357 32 q 461 235 461 149 m 296 653 l 392 544 l 340 544 l 276 617 l 213 544 l 161 544 l 257 653 l 296 653 z "},"õ":{"ha":553,"x_min":39,"x_max":514,"o":"m 514 235 q 449 58 514 131 q 276 -14 383 -14 q 104 58 169 -14 q 39 235 39 131 q 104 410 39 339 q 276 482 169 482 q 449 410 383 482 q 514 235 514 339 m 461 235 q 409 378 461 321 q 276 436 357 436 q 144 378 196 436 q 92 235 92 321 q 144 90 92 149 q 276 32 196 32 q 409 90 357 32 q 461 235 461 149 m 396 628 q 326 544 393 544 q 297 551 313 544 q 267 567 282 558 q 240 583 253 576 q 217 590 226 590 q 196 578 206 590 q 185 542 186 565 l 150 542 q 170 604 151 583 q 218 625 189 625 q 248 618 233 625 q 277 602 263 611 q 306 586 292 593 q 333 579 319 579 q 361 628 357 579 l 396 628 z "},"ö":{"ha":553,"x_min":39,"x_max":514,"o":"m 514 235 q 449 58 514 131 q 276 -14 383 -14 q 104 58 169 -14 q 39 235 39 131 q 104 410 39 339 q 276 482 169 482 q 449 410 383 482 q 514 235 514 339 m 461 235 q 409 378 461 321 q 276 436 357 436 q 144 378 196 436 q 92 235 92 321 q 144 90 92 149 q 276 32 196 32 q 409 90 357 32 q 461 235 461 149 m 232 586 q 219 556 232 568 q 189 544 207 544 q 159 556 171 544 q 147 586 147 568 q 159 617 147 604 q 189 629 171 629 q 219 617 207 629 q 232 586 232 604 m 404 586 q 392 556 404 568 q 361 544 379 544 q 331 556 343 544 q 319 586 319 568 q 331 617 319 604 q 361 629 343 629 q 392 617 379 629 q 404 586 404 604 z "},"÷":{"ha":571,"x_min":53,"x_max":518,"o":"m 332 419 q 319 385 332 400 q 288 371 307 371 q 254 385 267 371 q 242 419 242 400 q 256 453 243 439 q 288 467 268 467 q 319 453 307 467 q 332 419 332 439 m 331 82 q 318 49 331 63 q 286 35 306 35 q 253 49 265 35 q 242 82 242 63 q 254 116 242 101 q 288 131 267 131 q 319 116 307 131 q 331 82 331 101 m 518 229 l 53 229 l 53 275 l 518 275 l 518 229 z "},"ø":{"ha":553,"x_min":39,"x_max":514,"o":"m 514 235 q 449 58 514 131 q 276 -14 383 -14 q 160 14 215 -14 l 126 -40 l 71 -40 l 121 42 q 39 235 39 113 q 104 410 39 339 q 276 482 169 482 q 378 461 326 482 l 421 532 l 481 532 l 421 436 q 514 235 514 365 m 461 235 q 394 393 461 333 l 186 56 q 276 32 226 32 q 409 90 357 32 q 461 235 461 149 m 147 85 l 353 419 q 276 436 318 436 q 144 378 196 436 q 92 235 92 321 q 147 85 92 144 z "},"ù":{"ha":542,"x_min":72,"x_max":493,"o":"m 493 1 l 442 -10 q 419 82 425 38 q 242 -12 358 -12 q 72 207 72 -12 l 72 472 l 126 472 l 126 217 q 254 35 126 35 q 363 74 314 35 q 415 186 415 118 l 415 472 l 469 472 l 469 115 q 493 1 469 64 m 332 542 l 289 542 l 208 654 l 263 668 l 332 542 z "},"ú":{"ha":542,"x_min":72,"x_max":493,"o":"m 493 1 l 442 -10 q 419 82 425 38 q 242 -12 358 -12 q 72 207 72 -12 l 72 472 l 126 472 l 126 217 q 254 35 126 35 q 363 74 314 35 q 415 186 415 118 l 415 472 l 469 472 l 469 115 q 493 1 469 64 m 251 542 l 208 542 l 278 668 l 332 654 l 251 542 z "},"û":{"ha":542,"x_min":72,"x_max":493,"o":"m 493 1 l 442 -10 q 419 82 425 38 q 242 -12 358 -12 q 72 207 72 -12 l 72 472 l 126 472 l 126 217 q 254 35 126 35 q 363 74 314 35 q 415 186 415 118 l 415 472 l 469 472 l 469 115 q 493 1 469 64 m 290 653 l 386 544 l 335 544 l 271 617 l 207 544 l 156 544 l 251 653 l 290 653 z "},"ü":{"ha":542,"x_min":72,"x_max":493,"o":"m 493 1 l 442 -10 q 419 82 425 38 q 242 -12 358 -12 q 72 207 72 -12 l 72 472 l 126 472 l 126 217 q 254 35 126 35 q 363 74 314 35 q 415 186 415 118 l 415 472 l 469 472 l 469 115 q 493 1 469 64 m 226 586 q 214 556 226 568 q 183 544 201 544 q 153 556 165 544 q 142 586 142 568 q 153 617 142 604 q 183 629 165 629 q 214 617 201 629 q 226 586 226 604 m 399 586 q 386 556 399 568 q 356 544 374 544 q 326 556 338 544 q 314 586 314 568 q 326 617 314 604 q 356 629 338 629 q 386 617 374 629 q 399 586 399 604 z "},"ý":{"ha":468,"x_min":4,"x_max":464,"o":"m 256 0 q 38 -217 174 -185 l 25 -174 q 204 15 143 -147 q 200 32 204 19 l 4 472 l 63 472 l 239 72 l 404 472 l 464 472 l 256 0 m 215 542 l 172 542 l 242 668 l 296 654 l 215 542 z "},"þ":{"ha":600,"x_min":85,"x_max":557,"o":"m 557 244 q 485 53 557 124 q 315 -12 418 -12 q 138 74 201 -12 l 138 -194 l 85 -194 l 85 653 l 138 653 l 138 386 q 331 482 208 482 q 496 411 431 482 q 557 244 557 344 m 506 243 q 455 383 506 328 q 321 439 404 439 q 149 324 194 439 q 138 268 138 296 l 138 186 q 144 144 138 172 q 212 65 165 97 q 319 33 258 33 q 453 89 401 33 q 506 243 506 144 z "},"ÿ":{"ha":468,"x_min":4,"x_max":464,"o":"m 256 0 q 38 -217 174 -185 l 25 -174 q 204 15 143 -147 q 200 32 204 19 l 4 472 l 63 472 l 239 72 l 404 472 l 464 472 l 256 0 m 190 586 q 178 556 190 568 q 147 544 165 544 q 117 556 129 544 q 106 586 106 568 q 117 617 106 604 q 147 629 129 629 q 178 617 165 629 q 190 586 190 604 m 363 586 q 350 556 363 568 q 319 544 338 544 q 290 556 301 544 q 278 586 278 568 q 290 617 278 604 q 319 629 301 629 q 350 617 338 629 q 363 586 363 604 z "},"ı":{"ha":199,"x_min":72,"x_max":125,"o":"m 125 0 l 72 0 l 72 472 l 125 472 l 125 0 z "},"Ł":{"ha":501,"x_min":25,"x_max":463,"o":"m 463 0 l 83 0 l 83 269 l 38 256 l 25 299 l 83 317 l 83 661 l 138 661 l 138 335 l 439 431 l 439 379 l 138 288 l 138 46 l 463 46 l 463 0 z "},"ł":{"ha":290,"x_min":25,"x_max":264,"o":"m 251 372 l 251 324 l 138 286 l 138 258 q 156 111 138 156 q 264 38 182 40 l 258 -10 q 83 238 83 -1 l 83 269 l 38 256 l 25 299 l 83 317 l 83 701 l 138 701 l 138 335 l 251 372 z "},"Œ":{"ha":988,"x_min":31,"x_max":935,"o":"m 935 46 l 935 0 l 575 0 l 575 103 q 338 -14 488 -14 q 116 83 201 -14 q 31 329 31 181 q 116 575 31 478 q 338 672 201 672 q 575 556 488 672 l 575 661 l 935 661 l 935 615 l 629 615 l 629 372 l 901 372 l 901 326 l 629 326 l 629 46 l 935 46 m 575 201 l 575 444 q 496 568 565 513 q 338 625 422 625 q 156 538 226 625 q 85 329 85 451 q 156 120 85 207 q 338 33 226 33 q 480 79 417 33 q 575 201 543 125 z "},"œ":{"ha":943,"x_min":39,"x_max":900,"o":"m 874 67 l 878 21 q 703 -12 797 -12 q 485 113 550 -12 q 276 -14 422 -14 q 104 58 169 -14 q 39 235 39 131 q 104 410 39 339 q 276 482 169 482 q 488 353 426 482 q 697 482 547 482 q 900 233 896 482 l 514 233 q 568 85 514 135 q 708 35 622 35 q 874 67 790 35 m 461 235 q 410 378 463 319 q 276 436 358 436 q 144 378 196 436 q 92 235 92 321 q 144 90 92 149 q 276 32 196 32 q 408 90 356 32 q 461 235 460 147 m 849 276 q 803 393 846 347 q 690 439 761 439 q 575 394 622 439 q 517 276 528 349 l 849 276 z "},"Š":{"ha":489,"x_min":38,"x_max":444,"o":"m 444 172 q 390 47 444 97 q 219 -12 329 -12 q 38 38 111 -12 l 60 85 q 225 33 128 33 q 347 70 303 33 q 392 168 392 107 q 358 258 392 224 q 244 317 324 292 q 60 503 60 376 q 117 625 60 576 q 265 674 174 674 q 417 639 358 674 q 393 596 404 615 q 264 628 333 628 q 144 588 186 628 q 111 510 111 554 q 258 368 111 418 q 396 296 354 335 q 444 172 444 250 m 264 722 l 225 722 l 129 831 l 181 831 l 244 758 l 308 831 l 360 831 l 264 722 z "},"š":{"ha":392,"x_min":40,"x_max":344,"o":"m 344 125 q 299 26 344 65 q 174 -12 254 -12 q 40 25 104 -12 l 61 69 q 178 33 128 33 q 294 121 294 33 q 185 222 294 189 q 58 350 58 261 q 99 443 58 404 q 214 482 140 482 q 331 450 288 482 l 308 406 q 204 439 267 439 q 135 415 160 439 q 110 357 110 392 q 218 264 110 301 q 344 125 344 221 m 215 533 l 176 533 l 81 642 l 132 642 l 196 569 l 260 642 l 311 642 l 215 533 z "},"Ÿ":{"ha":531,"x_min":10,"x_max":518,"o":"m 518 661 l 290 292 l 290 0 l 238 0 l 238 290 l 10 661 l 72 661 l 264 338 l 456 661 l 518 661 m 222 771 q 210 741 222 753 q 179 729 197 729 q 149 741 161 729 q 138 771 138 753 q 149 801 138 789 q 179 814 161 814 q 210 801 197 814 q 222 771 222 789 m 394 771 q 382 741 394 753 q 351 729 369 729 q 322 741 333 729 q 310 771 310 753 q 322 801 310 789 q 351 814 333 814 q 382 801 369 814 q 394 771 394 789 z "},"Ž":{"ha":589,"x_min":31,"x_max":567,"o":"m 567 46 l 556 0 l 31 0 l 31 36 l 479 615 l 58 615 l 67 661 l 549 661 l 549 624 l 101 46 l 567 46 m 314 722 l 275 722 l 179 831 l 231 831 l 294 758 l 358 831 l 410 831 l 314 722 z "},"ž":{"ha":446,"x_min":21,"x_max":429,"o":"m 418 0 l 21 0 l 21 33 l 354 428 l 38 428 l 46 472 l 422 472 l 421 435 l 89 44 l 429 44 l 418 0 m 242 533 l 203 533 l 107 642 l 158 642 l 222 569 l 286 642 l 338 642 l 242 533 z "},"ƒ":{"ha":553,"x_min":-24,"x_max":568,"o":"m 568 619 l 544 581 q 479 596 518 596 q 331 419 371 596 l 322 383 l 458 383 l 450 340 l 314 340 l 267 122 q 51 -100 218 -100 q -24 -78 -1 -100 l 0 -39 q 65 -54 26 -54 q 213 122 174 -54 l 260 340 l 181 340 l 189 383 l 269 383 l 278 419 q 493 642 329 642 q 568 619 546 642 z "},"ˆ":{"ha":294,"x_min":32,"x_max":263,"o":"m 167 653 l 263 544 l 211 544 l 147 617 l 83 544 l 32 544 l 128 653 l 167 653 z "},"ˇ":{"ha":294,"x_min":32,"x_max":263,"o":"m 167 533 l 128 533 l 32 642 l 83 642 l 147 569 l 211 642 l 263 642 l 167 533 z "},"˘":{"ha":419,"x_min":83,"x_max":332,"o":"m 332 629 q 299 568 325 592 q 208 535 263 535 q 117 568 154 535 q 83 629 92 592 l 132 629 q 147 603 138 614 q 208 578 169 578 q 268 603 247 578 q 285 629 279 614 l 332 629 z "},"˙":{"ha":419,"x_min":163,"x_max":257,"o":"m 257 750 q 243 717 257 731 q 208 704 229 704 q 176 717 189 704 q 163 750 163 731 q 176 784 163 769 q 208 799 189 799 q 243 784 229 799 q 257 750 257 769 z "},"˚":{"ha":419,"x_min":107,"x_max":310,"o":"m 310 611 q 280 541 310 571 q 207 511 250 511 q 137 541 167 511 q 107 611 107 571 q 137 685 107 654 q 207 715 167 715 q 280 685 250 715 q 310 611 310 654 m 269 610 q 252 653 269 636 q 208 671 235 671 q 167 653 183 671 q 150 610 150 636 q 167 569 150 586 q 208 553 183 553 q 252 569 235 553 q 269 610 269 586 z "},"˛":{"ha":419,"x_min":111,"x_max":303,"o":"m 303 -199 q 254 -215 276 -210 q 208 -219 232 -219 q 135 -190 158 -219 q 111 -119 111 -160 q 118 -62 111 -94 q 136 6 125 -31 l 192 6 q 165 -106 165 -62 q 219 -169 165 -165 q 301 -149 261 -169 l 303 -199 z "},"˜":{"ha":294,"x_min":32,"x_max":268,"o":"m 268 635 q 249 574 267 599 q 200 549 232 549 q 173 555 188 549 q 144 568 158 561 q 116 581 129 575 q 93 588 103 588 q 75 575 82 588 q 67 543 68 563 l 32 543 q 47 604 33 576 q 92 632 60 632 q 119 626 106 632 q 147 611 133 619 q 175 597 161 603 q 204 590 189 590 q 222 601 214 590 q 232 635 231 611 l 268 635 z "},"˝":{"ha":388,"x_min":58,"x_max":326,"o":"m 217 458 l 179 458 l 261 682 l 326 682 l 217 458 m 96 458 l 58 458 l 140 682 l 206 682 l 96 458 z "},"฀":{"ha":0,"x_min":0,"x_max":0,"o":""},"ก":{"ha":536,"x_min":50,"x_max":458,"o":"m 458 0 l 408 0 l 408 363 q 366 471 408 431 q 257 511 324 511 q 165 485 210 511 q 104 417 121 458 q 217 356 186 410 q 158 319 183 349 q 133 253 133 289 l 133 0 l 83 0 l 83 251 q 156 363 83 333 q 50 378 110 385 q 120 506 61 456 q 260 556 179 556 q 404 506 350 556 q 458 368 458 456 l 458 0 z "},"ข":{"ha":525,"x_min":21,"x_max":447,"o":"m 447 115 q 319 -11 447 -11 q 194 115 194 -11 l 194 247 q 229 342 194 282 q 264 435 264 401 q 237 491 264 467 q 171 515 210 515 q 78 475 110 515 q 110 481 90 481 q 169 458 146 481 q 192 400 192 435 q 169 340 192 364 q 110 315 146 315 q 44 347 67 315 q 21 425 21 379 q 60 516 21 476 q 171 556 100 556 q 272 525 232 556 q 311 442 311 494 q 278 336 311 401 q 244 240 244 271 l 244 111 q 321 33 244 33 q 397 111 397 33 l 397 544 l 447 544 l 447 115 m 154 399 q 142 431 154 418 q 110 443 129 443 q 78 431 90 443 q 65 399 65 418 q 78 367 65 379 q 110 354 90 354 q 142 367 129 354 q 154 399 154 379 z "},"ฃ":{"ha":531,"x_min":21,"x_max":453,"o":"m 453 115 q 325 -11 453 -11 q 200 115 200 -11 l 200 203 q 242 315 200 247 q 283 425 283 382 q 231 508 283 497 l 182 450 l 132 507 q 72 426 88 476 q 117 435 92 435 q 181 409 157 435 q 204 344 204 383 q 178 279 204 304 q 115 254 153 254 q 43 293 68 254 q 21 378 21 328 q 54 489 21 438 q 147 557 90 546 l 182 508 l 219 557 q 301 510 269 551 q 329 421 329 471 q 290 308 329 378 q 250 199 250 239 l 250 111 q 326 33 250 33 q 403 111 403 33 l 403 544 l 453 544 l 453 115 m 160 346 q 147 378 160 365 q 115 390 135 390 q 83 378 96 390 q 71 346 71 365 q 83 314 71 326 q 115 301 96 301 q 147 314 135 301 q 160 346 160 326 z "},"ค":{"ha":546,"x_min":46,"x_max":468,"o":"m 468 0 l 418 0 l 418 374 q 369 476 418 440 q 257 511 319 511 q 145 467 193 511 q 97 360 97 424 q 108 286 97 329 q 125 217 124 225 q 168 351 138 296 q 269 424 208 424 q 326 401 304 424 q 349 342 349 379 q 325 283 349 307 q 267 258 301 258 q 203 292 231 258 q 164 208 183 263 q 140 90 140 142 l 140 0 l 90 0 l 90 128 q 68 242 90 168 q 46 354 46 315 q 107 500 46 444 q 260 556 168 556 q 406 510 344 556 q 468 378 468 465 l 468 0 m 310 342 q 297 372 310 360 q 267 385 285 385 q 236 372 249 385 q 224 342 224 360 q 236 311 224 324 q 267 299 249 299 q 297 311 285 299 q 310 342 310 324 z "},"ฅ":{"ha":546,"x_min":46,"x_max":468,"o":"m 468 0 l 418 0 l 418 389 q 325 507 417 485 l 258 432 l 185 508 q 117 436 140 485 q 99 368 99 400 q 125 203 99 321 q 267 392 163 392 q 325 369 303 392 q 347 311 347 347 q 324 253 347 276 q 268 229 301 229 q 196 261 224 229 q 161 188 178 242 q 143 75 143 128 l 143 0 l 93 0 l 93 111 q 69 235 93 154 q 46 357 46 315 q 197 558 46 517 l 258 488 l 314 558 q 468 392 467 528 l 468 0 m 310 311 q 297 342 310 329 q 267 354 285 354 q 236 342 249 354 q 224 311 224 329 q 236 281 224 293 q 267 268 249 268 q 297 281 285 268 q 310 311 310 293 z "},"ฆ":{"ha":567,"x_min":21,"x_max":489,"o":"m 243 85 q 228 119 243 104 q 194 133 214 133 q 160 119 175 133 q 146 85 146 104 q 160 51 146 65 q 194 36 175 36 q 228 51 214 36 q 243 85 243 65 m 489 0 l 439 0 q 269 138 379 114 q 289 85 289 115 q 262 17 289 44 q 194 -11 235 -11 q 126 17 153 -11 q 99 85 99 44 q 126 152 99 125 q 194 179 154 179 l 200 179 l 200 203 q 242 315 200 247 q 283 425 283 382 q 231 508 283 497 l 182 450 l 132 507 q 72 426 88 476 q 117 435 92 435 q 181 409 157 435 q 204 344 204 383 q 178 279 204 304 q 115 254 153 254 q 43 293 68 254 q 21 378 21 328 q 54 489 21 438 q 147 557 90 546 l 182 508 l 219 557 q 299 513 269 551 q 329 421 329 475 q 290 308 329 378 q 250 199 250 239 l 250 178 q 439 75 374 164 l 439 544 l 489 544 l 489 0 m 160 346 q 147 378 160 365 q 115 390 135 390 q 83 378 96 390 q 71 346 71 365 q 83 314 71 326 q 115 301 96 301 q 147 314 135 301 q 160 346 160 326 z "},"ง":{"ha":408,"x_min":22,"x_max":331,"o":"m 331 0 l 281 0 l 22 289 l 50 321 l 281 71 l 281 382 q 238 372 261 372 q 173 399 200 372 q 146 463 146 426 q 172 529 146 503 q 238 556 199 556 q 308 526 282 556 q 331 463 331 500 l 331 0 m 285 465 q 271 499 285 485 q 238 513 257 513 q 204 499 218 513 q 190 465 190 485 q 204 432 190 446 q 238 418 218 418 q 271 432 257 418 q 285 465 285 446 z "},"จ":{"ha":510,"x_min":33,"x_max":432,"o":"m 432 90 q 333 -12 432 -12 q 244 65 256 -12 l 221 221 q 174 208 200 208 q 115 232 139 208 q 92 290 92 256 q 115 351 92 326 q 174 375 139 375 q 228 355 204 375 q 257 304 251 335 l 297 68 q 336 33 303 33 q 382 83 382 33 l 382 410 q 339 487 382 464 q 239 510 296 510 q 135 483 176 510 q 85 411 94 457 l 33 411 q 88 508 40 469 q 238 556 144 556 q 432 410 432 556 l 432 90 m 218 290 q 206 321 218 308 q 175 333 193 333 q 145 321 157 333 q 133 290 133 308 q 145 260 133 272 q 175 249 157 249 q 206 260 193 249 q 218 290 218 272 z "},"ฉ":{"ha":524,"x_min":36,"x_max":471,"o":"m 471 76 q 447 15 471 40 q 383 -10 424 -10 q 322 15 347 -10 q 297 76 297 40 q 299 94 297 89 q 178 0 219 61 l 115 0 l 115 129 q 125 190 115 169 l 119 190 q 60 215 85 190 q 36 274 36 239 q 60 334 36 310 q 119 358 85 358 q 180 334 156 358 q 204 274 204 310 q 185 208 204 247 q 165 138 165 168 l 165 49 q 317 147 211 115 q 396 267 396 183 l 396 406 q 346 485 396 454 q 246 510 303 510 q 149 485 193 510 q 88 408 99 456 l 36 408 q 92 508 40 467 q 243 556 150 556 q 388 519 333 556 q 446 404 446 479 l 446 264 q 408 160 446 197 q 471 76 471 140 m 431 76 q 417 109 431 96 q 385 122 404 122 q 353 109 367 122 q 339 76 339 96 q 353 44 339 58 q 385 31 367 31 q 417 44 404 31 q 431 76 431 58 m 163 274 q 151 303 163 292 q 121 315 139 315 q 91 303 103 315 q 79 274 79 292 q 91 244 79 256 q 121 232 103 232 q 151 244 139 232 q 163 274 163 256 z "},"ช":{"ha":528,"x_min":21,"x_max":476,"o":"m 450 115 q 321 -11 450 -11 q 194 115 194 -11 l 194 247 q 229 342 194 282 q 264 435 264 401 q 237 491 264 467 q 171 515 210 515 q 78 475 110 515 q 110 481 90 481 q 169 458 146 481 q 192 400 192 435 q 169 340 192 364 q 110 315 146 315 q 44 347 67 315 q 21 425 21 379 q 60 516 21 476 q 171 556 100 556 q 272 525 232 556 q 311 442 311 494 q 278 336 311 401 q 244 240 244 271 l 244 111 q 322 33 244 33 q 400 111 400 33 l 400 335 q 340 417 400 396 q 343 449 343 425 q 424 578 419 481 l 476 578 q 447 486 472 525 q 396 433 422 447 q 450 340 450 413 l 450 115 m 154 399 q 142 431 154 418 q 110 443 129 443 q 78 431 90 443 q 65 399 65 418 q 78 367 65 379 q 110 354 90 354 q 142 367 129 354 q 154 399 154 379 z "},"ซ":{"ha":533,"x_min":21,"x_max":482,"o":"m 160 346 q 147 378 160 365 q 115 390 135 390 q 83 378 96 390 q 71 346 71 365 q 83 314 71 326 q 115 301 96 301 q 147 314 135 301 q 160 346 160 326 m 456 115 q 326 -11 456 -11 q 200 115 200 -11 l 200 203 q 242 315 200 247 q 283 425 283 382 q 231 508 283 497 l 182 450 l 132 507 q 72 426 88 476 q 117 435 92 435 q 181 409 157 435 q 204 344 204 383 q 178 279 204 304 q 115 254 153 254 q 43 293 68 254 q 21 378 21 328 q 54 489 21 438 q 147 557 90 546 l 182 508 l 219 557 q 301 510 269 551 q 329 421 329 471 q 290 308 329 378 q 250 199 250 239 l 250 113 q 328 33 250 33 q 406 111 406 33 l 406 335 q 350 415 406 396 q 349 449 351 428 q 429 578 425 481 l 482 578 q 453 486 478 525 q 401 433 428 447 q 456 340 456 413 l 456 115 z "},"ฌ":{"ha":721,"x_min":42,"x_max":643,"o":"m 643 0 l 592 0 q 481 97 558 51 q 483 79 483 86 q 459 15 483 42 q 392 -12 435 -12 q 327 15 354 -12 q 300 79 300 42 q 324 142 300 115 q 383 171 349 168 l 383 368 q 240 511 383 511 q 156 484 196 511 q 101 415 117 457 q 213 354 179 410 q 154 318 179 347 q 129 253 129 289 l 129 165 q 161 171 142 171 q 226 144 199 171 q 253 79 253 117 q 227 15 253 42 q 161 -12 201 -12 q 95 15 121 -12 q 69 79 69 42 q 79 119 69 101 l 79 251 q 151 361 79 326 q 42 376 99 382 q 110 505 54 454 q 243 556 167 556 q 382 508 331 556 q 433 374 433 460 l 433 165 q 593 65 547 126 l 593 544 l 643 544 l 643 0 m 438 79 q 424 113 438 99 q 390 126 410 126 q 358 113 371 126 q 344 79 344 99 q 358 47 344 60 q 390 33 371 33 q 424 47 410 33 q 438 79 438 60 m 208 79 q 194 113 208 99 q 161 126 181 126 q 128 113 142 126 q 115 79 115 99 q 128 47 115 60 q 161 33 142 33 q 194 47 181 33 q 208 79 208 60 z "},"ญ":{"ha":721,"x_min":42,"x_max":664,"o":"m 664 -47 q 620 -184 661 -131 q 492 -237 579 -237 q 392 -203 436 -237 q 347 -117 347 -168 q 369 -64 347 -86 q 422 -42 392 -42 q 476 -64 454 -42 q 499 -117 499 -86 q 450 -187 499 -168 q 490 -197 467 -197 q 613 -47 610 -197 l 664 -47 m 461 -117 q 450 -90 461 -101 q 424 -79 439 -79 q 397 -90 408 -79 q 386 -117 386 -101 q 397 -143 386 -132 q 424 -154 408 -154 q 450 -143 439 -154 q 461 -117 461 -132 m 218 79 q 204 113 218 99 q 171 126 190 126 q 138 113 151 126 q 125 79 125 99 q 138 47 125 60 q 171 33 151 33 q 204 47 190 33 q 218 79 218 60 m 643 114 q 507 -11 643 -11 q 372 115 372 -11 l 372 368 q 238 511 372 511 q 155 485 193 511 q 101 415 117 458 q 213 354 179 410 q 154 318 179 347 q 129 253 129 289 l 129 163 q 171 171 147 171 q 236 144 210 171 q 263 81 263 118 q 241 15 263 43 q 171 -12 219 -12 q 105 13 131 -12 q 79 82 79 39 l 79 251 q 151 361 79 326 q 42 376 99 382 q 109 505 54 454 q 240 556 164 556 q 374 508 326 556 q 422 374 422 461 l 422 111 q 508 33 422 33 q 593 111 593 33 l 593 544 l 643 544 l 643 114 z "},"ฎ":{"ha":590,"x_min":33,"x_max":513,"o":"m 513 -299 l 457 -299 q 394 -232 446 -265 q 300 -187 342 -199 l 300 -197 q 274 -273 300 -242 q 203 -304 247 -304 q 138 -280 161 -304 q 114 -219 114 -256 q 144 -151 114 -176 q 218 -126 175 -126 q 254 -131 225 -126 q 306 -53 260 -79 l 343 -75 q 300 -142 301 -101 q 463 -235 411 -181 l 463 361 q 420 470 463 429 q 311 511 378 511 q 220 484 264 511 q 160 415 176 457 q 272 354 233 408 q 197 253 197 329 q 210 142 197 199 q 215 83 215 117 q 188 16 215 43 q 124 -11 161 -11 q 60 15 86 -11 q 33 79 33 42 q 60 144 33 117 q 124 171 86 171 q 157 164 139 171 q 149 261 149 228 q 204 361 149 325 q 131 378 167 378 q 104 376 113 378 q 172 505 111 454 q 313 556 232 556 q 457 505 401 556 q 513 367 513 454 l 513 -299 m 250 -176 q 221 -172 238 -172 q 158 -217 158 -172 q 204 -260 158 -260 q 253 -197 253 -260 q 250 -176 253 -187 m 171 79 q 157 113 171 99 q 124 126 143 126 q 91 113 104 126 q 78 79 78 99 q 91 47 78 60 q 124 33 104 33 q 157 47 143 33 q 171 79 171 60 z "},"ฏ":{"ha":590,"x_min":33,"x_max":513,"o":"m 204 -186 q 163 -174 192 -174 q 108 -221 108 -174 q 153 -262 108 -262 q 204 -186 204 -262 m 513 -299 l 457 -299 l 382 -214 l 321 -297 l 244 -214 q 217 -281 243 -257 q 156 -306 190 -306 q 90 -281 113 -306 q 67 -219 67 -256 q 93 -155 67 -179 q 158 -131 119 -131 q 204 -140 185 -131 q 261 -60 207 -92 l 299 -82 q 249 -160 251 -111 l 317 -232 l 382 -144 l 463 -235 l 463 361 q 420 470 463 429 q 311 511 378 511 q 220 484 264 511 q 160 415 176 457 q 272 354 233 408 q 197 253 197 329 q 210 142 197 199 q 215 83 215 117 q 188 16 215 43 q 124 -11 161 -11 q 60 15 86 -11 q 33 79 33 42 q 60 144 33 117 q 124 171 86 171 q 157 164 139 171 q 149 261 149 228 q 204 361 149 325 q 131 378 167 378 q 104 376 113 378 q 172 505 111 454 q 313 556 232 556 q 457 505 401 556 q 513 367 513 454 l 513 -299 m 171 79 q 157 113 171 99 q 124 126 143 126 q 91 113 104 126 q 78 79 78 99 q 91 47 78 60 q 124 33 104 33 q 157 47 143 33 q 171 79 171 60 z "},"ฐ":{"ha":476,"x_min":-19,"x_max":440,"o":"m 393 110 q 282 -12 393 -12 q 172 110 172 -12 l 172 181 q 138 175 157 175 q 79 198 103 175 q 56 256 56 221 q 79 316 56 292 q 138 340 103 340 q 198 319 174 340 q 222 258 222 297 l 222 106 q 282 33 222 33 q 343 106 343 33 l 343 307 q 208 374 343 340 q 36 407 128 394 q 85 513 40 471 q 203 556 129 556 q 281 540 232 556 q 357 525 331 525 q 397 556 390 525 l 440 546 q 360 474 418 474 q 276 490 329 474 q 194 507 222 507 q 133 488 163 507 q 100 444 103 469 q 297 394 239 417 q 393 311 393 360 l 393 110 m 397 -300 l 343 -300 l 283 -262 l 222 -299 l 160 -222 q 132 -283 158 -261 q 69 -306 106 -306 q -19 -226 -19 -304 q 8 -175 -19 -193 q 74 -157 36 -157 q 122 -164 106 -157 q 183 -79 131 -107 l 221 -100 q 163 -182 164 -128 l 224 -253 l 283 -222 l 350 -264 l 350 -201 q 328 -203 343 -203 q 278 -184 299 -203 q 257 -139 257 -165 q 278 -94 257 -112 q 328 -75 299 -75 q 376 -92 356 -75 q 397 -139 397 -110 l 397 -300 m 117 -204 q 69 -194 103 -194 q 24 -231 24 -197 q 67 -267 24 -267 q 119 -222 119 -267 q 117 -204 119 -215 m 361 -139 q 328 -108 361 -108 q 294 -139 294 -108 q 328 -171 294 -171 q 361 -139 361 -171 m 175 257 q 164 283 175 272 q 138 294 153 294 q 112 283 122 294 q 101 257 101 272 q 112 231 101 242 q 138 221 122 221 q 164 231 153 221 q 175 257 175 242 z "},"ฑ":{"ha":640,"x_min":21,"x_max":563,"o":"m 563 0 l 513 0 l 513 444 q 472 507 513 507 q 439 471 457 507 l 263 0 l 200 0 l 200 203 q 238 315 200 247 q 275 425 275 382 q 231 508 275 500 l 182 450 l 132 507 q 72 426 88 476 q 117 435 92 435 q 181 409 157 435 q 204 344 204 383 q 178 279 204 304 q 115 254 153 254 q 43 293 68 254 q 21 378 21 328 q 56 492 21 438 q 147 557 90 546 l 182 508 l 219 557 q 321 421 321 544 q 285 307 321 378 q 250 192 250 236 l 244 74 q 278 178 260 132 l 392 478 q 476 556 421 556 q 563 444 563 556 l 563 0 m 160 346 q 147 378 160 365 q 115 390 135 390 q 83 378 96 390 q 71 346 71 365 q 83 314 71 326 q 115 301 96 301 q 147 314 135 301 q 160 346 160 326 z "},"ฒ":{"ha":739,"x_min":44,"x_max":661,"o":"m 661 0 l 611 0 q 499 99 575 60 q 501 79 501 90 q 476 16 501 43 q 410 -11 451 -11 q 343 16 368 -11 q 318 81 318 43 q 342 143 318 117 q 401 172 367 169 l 401 361 q 338 503 401 461 l 249 422 l 167 504 q 115 442 135 483 q 94 358 94 400 q 123 242 94 318 q 153 119 151 167 q 194 174 164 143 q 243 225 231 207 q 188 252 208 229 q 168 307 168 275 q 192 365 168 342 q 250 389 215 389 q 309 365 285 389 q 332 307 333 340 q 243 153 329 243 q 153 0 157 64 l 103 0 l 103 126 q 74 241 103 168 q 44 353 44 314 q 76 476 44 421 q 175 554 113 538 l 250 475 l 325 556 q 419 489 386 544 q 451 367 451 433 l 451 165 q 611 72 565 126 l 611 544 l 661 544 l 661 0 m 293 308 q 281 340 293 328 q 249 353 268 353 q 217 340 229 353 q 206 308 206 328 q 217 277 206 289 q 249 265 229 265 q 281 277 268 265 q 293 308 293 289 m 456 79 q 442 113 456 99 q 408 126 428 126 q 376 113 389 126 q 363 79 363 99 q 376 47 363 60 q 408 33 389 33 q 442 47 428 33 q 456 79 456 60 z "},"ณ":{"ha":754,"x_min":42,"x_max":706,"o":"m 706 78 q 679 13 706 39 q 613 -12 653 -12 q 547 13 574 -12 q 521 78 521 39 l 521 86 q 432 0 471 67 l 372 0 l 372 368 q 238 511 372 511 q 155 485 193 511 q 101 415 117 458 q 213 354 179 410 q 154 318 179 347 q 129 253 129 289 l 129 163 q 171 171 147 171 q 236 144 210 171 q 263 81 263 118 q 237 14 263 40 q 171 -12 211 -12 q 105 15 131 -12 q 79 82 79 42 l 79 251 q 151 361 79 326 q 42 376 99 382 q 109 505 54 454 q 240 556 164 556 q 374 508 326 556 q 422 374 422 461 l 422 67 q 511 135 454 108 q 592 178 579 168 q 626 271 626 208 l 626 544 l 676 544 l 676 274 q 650 164 676 190 q 706 78 706 140 m 218 79 q 204 113 218 99 q 171 126 190 126 q 138 113 151 126 q 125 79 125 99 q 138 47 125 60 q 171 33 151 33 q 204 47 190 33 q 218 79 218 60 m 660 78 q 646 111 660 97 q 613 125 632 125 q 579 111 593 125 q 565 78 565 97 q 579 44 565 58 q 613 31 593 31 q 646 44 632 31 q 660 78 660 58 z "},"ด":{"ha":543,"x_min":44,"x_max":465,"o":"m 465 0 l 415 0 l 415 361 q 256 511 415 511 q 143 467 192 511 q 94 360 94 424 q 117 251 94 319 q 139 144 139 182 q 136 107 139 117 q 193 188 153 143 q 258 258 225 222 q 200 282 224 258 q 176 340 176 306 q 200 399 176 375 q 258 422 224 422 q 317 399 293 422 q 340 340 340 375 q 242 171 340 274 q 140 0 144 68 l 90 0 l 90 125 q 67 240 90 165 q 44 353 44 314 q 107 501 44 447 q 263 556 169 556 q 412 505 358 556 q 465 368 465 454 l 465 0 m 301 340 q 289 371 301 358 q 258 383 276 383 q 228 371 240 383 q 215 340 215 358 q 228 310 215 322 q 258 297 240 297 q 289 310 276 297 q 301 340 301 322 z "},"ต":{"ha":543,"x_min":44,"x_max":465,"o":"m 465 0 l 415 0 l 415 361 q 349 504 415 464 l 260 422 l 165 504 q 96 360 96 460 q 118 241 96 317 q 140 110 140 165 q 197 172 154 138 q 253 228 239 207 q 199 253 221 231 q 178 308 178 275 q 201 367 178 343 q 258 390 224 390 q 317 367 293 390 q 340 308 340 343 q 243 156 340 244 q 142 0 146 67 l 92 0 l 92 125 q 68 240 92 165 q 44 353 44 314 q 75 476 44 421 q 174 556 111 539 l 260 479 l 339 556 q 435 485 400 544 q 465 368 465 433 l 465 0 m 304 310 q 292 340 304 328 q 261 353 279 353 q 231 340 243 353 q 218 310 218 328 q 231 279 218 292 q 261 267 243 267 q 292 279 279 267 q 304 310 304 292 z "},"ถ":{"ha":525,"x_min":36,"x_max":447,"o":"m 447 0 l 397 0 l 397 363 q 356 472 397 433 q 246 511 314 511 q 156 484 199 511 q 96 415 113 457 q 206 356 181 408 q 149 319 174 349 q 124 254 124 289 l 124 164 q 165 174 146 174 q 231 147 204 174 q 258 81 258 119 q 232 14 258 39 q 165 -11 206 -11 q 100 15 126 -11 q 74 81 74 42 l 74 253 q 144 363 74 328 q 36 378 107 378 q 108 505 47 454 q 249 556 169 556 q 392 506 338 556 q 447 368 447 456 l 447 0 m 214 79 q 200 113 214 99 q 167 126 186 126 q 134 113 147 126 q 121 79 121 99 q 134 47 121 60 q 167 33 147 33 q 200 47 186 33 q 214 79 214 60 z "},"ท":{"ha":597,"x_min":24,"x_max":519,"o":"m 519 0 l 469 0 l 469 444 q 429 507 469 507 q 386 471 404 507 l 210 0 l 157 0 l 157 382 q 115 372 139 372 q 51 399 78 372 q 24 464 24 426 q 51 528 24 501 q 115 556 78 556 q 180 528 153 556 q 207 464 207 501 l 207 192 q 200 100 204 128 q 225 178 208 128 l 338 478 q 433 556 367 556 q 519 444 519 556 l 519 0 m 163 464 q 149 497 163 483 q 115 511 135 511 q 82 497 96 511 q 68 464 68 483 q 82 431 68 444 q 115 417 96 417 q 149 431 135 417 q 163 464 163 444 z "},"ธ":{"ha":465,"x_min":28,"x_max":426,"o":"m 385 106 q 232 -10 385 -10 q 79 106 79 -10 l 79 322 l 129 322 l 129 103 q 232 35 129 35 q 335 103 335 35 l 335 308 q 200 375 335 342 q 28 408 118 396 q 73 513 32 471 q 185 556 114 556 q 268 540 217 556 q 344 525 319 525 q 383 557 378 525 l 426 547 q 347 479 406 479 q 263 495 317 479 q 182 511 210 511 q 124 492 153 511 q 92 446 96 472 q 276 404 242 415 q 385 313 385 368 l 385 106 z "},"น":{"ha":583,"x_min":24,"x_max":533,"o":"m 533 79 q 506 15 533 42 q 442 -11 479 -11 q 378 15 404 -11 q 351 79 351 42 l 351 89 q 218 0 265 54 l 157 0 l 157 382 q 115 372 139 372 q 51 399 78 372 q 24 464 24 426 q 51 528 24 501 q 115 556 78 556 q 180 528 153 556 q 207 464 207 501 l 207 54 q 306 117 235 85 q 408 172 385 153 q 456 268 456 210 l 456 544 l 506 544 l 506 261 q 475 164 506 194 q 533 79 533 140 m 163 464 q 149 497 163 483 q 115 511 135 511 q 82 497 96 511 q 68 464 68 483 q 82 431 68 444 q 115 417 96 417 q 149 431 135 417 q 163 464 163 444 m 489 81 q 475 114 489 100 q 442 128 461 128 q 408 114 422 128 q 394 81 394 100 q 408 47 394 61 q 442 33 422 33 q 475 47 461 33 q 489 81 489 61 z "},"บ":{"ha":594,"x_min":24,"x_max":517,"o":"m 517 118 q 338 -11 517 -11 q 157 118 157 -11 l 157 382 q 115 372 139 372 q 51 399 78 372 q 24 464 24 426 q 51 528 24 501 q 115 556 78 556 q 180 528 153 556 q 207 464 207 501 l 207 122 q 338 35 207 35 q 467 122 467 35 l 467 544 l 517 544 l 517 118 m 163 464 q 149 497 163 483 q 115 511 135 511 q 82 497 96 511 q 68 464 68 483 q 82 431 68 444 q 115 417 96 417 q 149 431 135 417 q 163 464 163 444 z "},"ป":{"ha":594,"x_min":24,"x_max":517,"o":"m 517 118 q 338 -11 517 -11 q 157 118 157 -11 l 157 382 q 115 372 139 372 q 51 399 78 372 q 24 464 24 426 q 51 528 24 501 q 115 556 78 556 q 180 528 153 556 q 207 464 207 501 l 207 122 q 338 35 207 35 q 467 122 467 35 l 467 776 l 517 776 l 517 118 m 163 464 q 149 497 163 483 q 115 511 135 511 q 82 497 96 511 q 68 464 68 483 q 82 431 68 444 q 115 417 96 417 q 149 431 135 417 q 163 464 163 444 z "},"ผ":{"ha":529,"x_min":56,"x_max":451,"o":"m 451 0 l 396 0 l 253 219 l 111 0 l 56 0 l 56 464 q 82 528 56 501 q 147 556 108 556 q 212 528 185 556 q 239 464 239 501 q 213 400 239 428 q 147 372 186 372 q 106 382 128 372 l 106 75 l 233 272 l 271 272 l 401 75 l 401 544 l 451 544 l 451 0 m 196 464 q 182 497 196 483 q 149 511 168 511 q 115 497 129 511 q 101 464 101 483 q 115 431 101 444 q 149 417 129 417 q 182 431 168 417 q 196 464 196 444 z "},"ฝ":{"ha":529,"x_min":56,"x_max":451,"o":"m 451 0 l 396 0 l 253 219 l 111 0 l 56 0 l 56 464 q 82 528 56 501 q 147 556 108 556 q 212 528 185 556 q 239 464 239 501 q 213 400 239 428 q 147 372 186 372 q 106 382 128 372 l 106 75 l 233 272 l 271 272 l 401 75 l 401 776 l 451 776 l 451 0 m 196 464 q 182 497 196 483 q 149 511 168 511 q 115 497 129 511 q 101 464 101 483 q 115 431 101 444 q 149 417 129 417 q 182 431 168 417 q 196 464 196 444 z "},"พ":{"ha":621,"x_min":24,"x_max":543,"o":"m 543 0 l 482 0 l 350 482 l 218 0 l 157 0 l 157 382 q 115 372 139 372 q 51 399 78 372 q 24 464 24 426 q 51 528 24 501 q 115 556 78 556 q 180 528 153 556 q 207 464 207 501 l 207 174 q 200 76 207 139 q 225 178 210 122 l 326 544 l 374 544 l 475 178 q 500 76 490 122 q 493 174 493 139 l 493 544 l 543 544 l 543 0 m 163 464 q 149 497 163 483 q 115 511 135 511 q 82 497 96 511 q 68 464 68 483 q 82 431 68 444 q 115 417 96 417 q 149 431 135 417 q 163 464 163 444 z "},"ฟ":{"ha":621,"x_min":24,"x_max":543,"o":"m 543 0 l 482 0 l 350 482 l 218 0 l 157 0 l 157 382 q 115 372 139 372 q 51 399 78 372 q 24 464 24 426 q 51 528 24 501 q 115 556 78 556 q 180 528 153 556 q 207 464 207 501 l 207 174 q 200 76 207 139 q 225 178 210 122 l 326 544 l 374 544 l 475 178 q 500 76 490 122 q 493 174 493 139 l 493 776 l 543 776 l 543 0 m 163 464 q 149 497 163 483 q 115 511 135 511 q 82 497 96 511 q 68 464 68 483 q 82 431 68 444 q 115 417 96 417 q 149 431 135 417 q 163 464 163 444 z "},"ภ":{"ha":590,"x_min":33,"x_max":513,"o":"m 513 0 l 463 0 l 463 361 q 420 470 463 429 q 311 511 378 511 q 220 484 264 511 q 160 415 176 457 q 272 354 233 408 q 197 253 197 329 q 210 142 197 199 q 215 83 215 117 q 191 16 215 43 q 124 -11 167 -11 q 60 15 86 -11 q 33 79 33 42 q 60 144 33 117 q 124 171 86 171 q 157 164 139 171 q 149 261 149 228 q 204 361 149 325 q 131 378 167 378 q 104 376 113 378 q 172 505 111 454 q 313 556 232 556 q 457 505 401 556 q 513 367 513 454 l 513 0 m 171 79 q 157 113 171 99 q 124 126 143 126 q 91 113 104 126 q 78 79 78 99 q 91 47 78 60 q 124 33 104 33 q 157 47 143 33 q 171 79 171 60 z "},"ม":{"ha":556,"x_min":24,"x_max":478,"o":"m 478 0 l 424 0 q 221 110 315 83 q 225 85 225 97 q 197 17 225 44 q 128 -11 168 -11 q 60 17 88 -11 q 32 85 32 44 q 60 153 32 125 q 128 182 88 182 q 157 178 143 182 l 157 382 q 115 372 139 372 q 51 399 78 372 q 24 464 24 426 q 51 528 24 501 q 115 556 78 556 q 180 528 153 556 q 207 464 207 501 l 207 164 q 428 51 344 115 l 428 544 l 478 544 l 478 0 m 179 86 q 164 122 179 107 q 128 138 149 138 q 92 122 107 138 q 76 86 76 107 q 92 50 76 65 q 128 35 107 35 q 164 50 149 35 q 179 86 179 65 m 163 464 q 149 497 163 483 q 115 511 135 511 q 82 497 96 511 q 68 464 68 483 q 82 431 68 444 q 115 417 96 417 q 149 431 135 417 q 163 464 163 444 z "},"ย":{"ha":521,"x_min":58,"x_max":443,"o":"m 443 124 q 256 -11 443 -11 q 67 124 67 -11 l 67 194 q 85 256 67 226 q 132 296 104 285 q 58 433 58 328 q 90 522 58 488 q 176 556 121 556 q 233 532 211 556 q 256 476 256 508 q 235 422 256 444 q 176 399 214 399 q 104 444 125 399 q 103 422 103 440 q 127 351 103 383 q 190 319 151 319 l 269 319 l 269 272 l 189 272 q 138 250 158 272 q 117 192 117 228 l 117 128 q 256 35 117 35 q 393 128 393 35 l 393 544 l 443 544 l 443 124 m 219 476 q 207 508 219 496 q 175 521 194 521 q 144 508 156 521 q 132 476 132 496 q 175 433 132 433 q 207 445 194 433 q 219 476 219 457 z "},"ร":{"ha":447,"x_min":35,"x_max":399,"o":"m 353 81 q 328 16 353 43 q 261 -11 303 -11 q 197 16 224 -11 q 169 81 169 43 q 197 145 169 118 q 261 172 224 172 q 303 163 285 172 l 303 308 q 35 408 303 365 q 169 556 43 556 q 252 541 199 556 q 329 526 306 526 q 356 558 343 526 l 399 547 q 328 481 378 481 q 244 496 299 481 q 161 511 189 511 q 115 490 136 511 q 92 446 93 468 q 267 400 181 431 q 353 313 353 369 l 353 81 m 308 81 q 294 114 308 100 q 261 128 281 128 q 228 114 242 128 q 214 81 214 100 q 228 47 214 61 q 261 33 242 33 q 294 47 281 33 q 308 81 308 61 z "},"ฤ":{"ha":525,"x_min":36,"x_max":447,"o":"m 447 -278 l 397 -278 l 397 363 q 356 472 397 433 q 246 511 314 511 q 156 484 199 511 q 96 415 113 457 q 206 356 181 408 q 149 319 174 349 q 124 254 124 289 l 124 164 q 165 174 146 174 q 231 147 204 174 q 258 81 258 119 q 231 15 258 42 q 165 -11 204 -11 q 100 15 126 -11 q 74 81 74 42 l 74 253 q 144 363 74 328 q 36 378 107 378 q 108 505 47 454 q 249 556 169 556 q 392 506 338 556 q 447 368 447 456 l 447 -278 m 214 79 q 200 113 214 99 q 167 126 186 126 q 134 113 147 126 q 121 79 121 99 q 134 47 121 60 q 167 33 147 33 q 200 47 186 33 q 214 79 214 60 z "},"ล":{"ha":529,"x_min":29,"x_max":451,"o":"m 451 0 l 401 0 l 401 238 q 350 315 401 286 q 250 339 307 339 q 156 309 194 339 q 117 232 117 279 l 117 163 q 163 172 136 172 q 228 145 201 172 q 254 81 254 118 q 228 16 254 43 q 163 -11 201 -11 q 93 17 119 -11 q 67 82 67 44 l 67 232 q 122 346 67 301 q 246 388 174 388 q 401 332 343 388 l 401 400 q 349 483 401 450 q 247 511 303 511 q 142 486 189 511 q 78 411 90 458 l 29 411 q 104 517 39 475 q 244 556 165 556 q 383 518 325 556 q 451 397 451 474 l 451 0 m 208 79 q 194 113 208 99 q 161 126 181 126 q 128 113 142 126 q 115 79 115 99 q 128 47 115 60 q 161 33 142 33 q 194 47 181 33 q 208 79 208 60 z "},"ฦ":{"ha":590,"x_min":33,"x_max":513,"o":"m 513 -278 l 463 -278 l 463 361 q 420 470 463 429 q 311 511 378 511 q 220 484 264 511 q 160 415 176 457 q 272 354 233 408 q 197 253 197 329 q 210 142 197 199 q 215 83 215 117 q 188 16 215 43 q 124 -11 161 -11 q 60 15 86 -11 q 33 79 33 42 q 60 144 33 117 q 124 171 86 171 q 157 164 139 171 q 149 261 149 228 q 204 361 149 325 q 131 378 167 378 q 104 376 113 378 q 172 505 111 454 q 313 556 232 556 q 457 505 401 556 q 513 367 513 454 l 513 -278 m 171 79 q 157 113 171 99 q 124 126 143 126 q 91 113 104 126 q 78 79 78 99 q 91 47 78 60 q 124 33 104 33 q 157 47 143 33 q 171 79 171 60 z "},"ว":{"ha":465,"x_min":14,"x_max":388,"o":"m 388 81 q 360 16 388 43 q 296 -11 333 -11 q 231 16 258 -11 q 204 81 204 43 q 231 145 204 118 q 296 172 258 172 q 338 163 319 172 l 338 388 q 200 511 338 511 q 65 411 92 511 l 14 411 q 203 556 44 556 q 335 514 282 556 q 388 396 388 472 l 388 81 m 343 81 q 329 114 343 100 q 296 128 315 128 q 263 114 276 128 q 249 81 249 100 q 263 47 249 61 q 296 33 276 33 q 329 47 315 33 q 343 81 343 61 z "},"ศ":{"ha":546,"x_min":46,"x_max":486,"o":"m 468 0 l 418 0 l 418 374 q 369 472 418 435 q 299 418 360 464 q 347 340 347 399 q 324 283 347 307 q 267 260 300 260 q 201 292 225 260 q 163 208 182 263 q 140 90 140 142 l 140 0 l 90 0 l 90 128 q 68 242 90 168 q 46 354 46 315 q 107 500 46 444 q 260 556 168 556 q 369 532 318 556 q 422 597 419 576 l 486 597 q 411 506 481 564 q 468 378 468 460 l 468 0 m 329 497 q 257 511 296 511 q 145 467 193 511 q 97 360 97 424 q 108 286 97 329 q 125 217 124 225 q 219 411 151 358 l 329 497 m 308 340 q 296 371 308 358 q 265 383 283 383 q 235 371 247 383 q 222 340 222 358 q 235 310 222 322 q 265 297 247 297 q 296 310 283 297 q 308 340 308 322 z "},"ษ":{"ha":608,"x_min":24,"x_max":615,"o":"m 615 332 q 531 243 596 294 l 531 118 q 344 -11 531 -11 q 157 118 157 -11 l 157 382 q 115 372 139 372 q 51 399 78 372 q 24 464 24 426 q 51 528 24 501 q 115 556 78 556 q 180 528 153 556 q 207 464 207 501 l 207 122 q 343 35 207 35 q 481 122 481 35 l 481 224 q 413 214 439 214 q 301 249 349 214 q 254 333 254 283 q 276 387 254 365 q 329 408 299 408 q 383 387 361 408 q 406 333 406 365 q 357 263 406 285 q 413 253 374 253 q 481 267 450 253 l 481 544 l 531 544 l 531 294 q 585 358 564 319 l 615 332 m 368 333 q 356 360 368 349 q 329 372 344 372 q 303 360 314 372 q 292 333 292 349 q 303 307 292 318 q 329 296 314 296 q 356 307 344 296 q 368 333 368 318 m 163 464 q 149 497 163 483 q 115 511 135 511 q 82 497 96 511 q 68 464 68 483 q 82 431 68 444 q 115 417 96 417 q 149 431 135 417 q 163 464 163 444 z "},"ส":{"ha":529,"x_min":29,"x_max":475,"o":"m 451 0 l 401 0 l 401 226 q 350 304 401 275 q 250 328 307 328 q 156 298 194 328 q 117 221 117 268 l 117 163 q 163 172 136 172 q 228 145 201 172 q 254 81 254 118 q 228 16 254 43 q 163 -11 201 -11 q 93 17 119 -11 q 67 82 67 44 l 67 221 q 122 335 67 290 q 246 376 174 376 l 254 376 q 360 476 317 428 q 247 511 308 511 q 142 486 189 511 q 78 411 90 458 l 29 411 q 104 517 39 475 q 244 556 165 556 q 388 515 324 556 q 425 593 417 549 l 475 593 q 422 483 465 538 q 451 397 451 446 l 451 0 m 401 321 l 401 400 q 389 444 401 419 q 306 369 350 403 q 401 321 364 356 m 208 79 q 194 113 208 99 q 161 126 181 126 q 128 113 142 126 q 115 79 115 99 q 128 47 115 60 q 161 33 142 33 q 194 47 181 33 q 208 79 208 60 z "},"ห":{"ha":593,"x_min":24,"x_max":539,"o":"m 515 0 l 465 0 l 465 300 q 432 364 465 364 q 382 315 411 364 l 203 0 l 157 0 l 157 382 q 115 372 139 372 q 51 399 78 372 q 24 464 24 426 q 51 528 24 501 q 115 556 78 556 q 180 528 153 556 q 207 464 207 501 l 207 163 q 200 76 207 150 q 231 138 217 111 l 343 344 q 389 393 363 379 q 356 464 356 419 q 383 528 356 501 q 447 556 410 556 q 512 528 485 556 q 539 464 539 501 q 493 385 539 411 q 515 300 515 361 l 515 0 m 163 464 q 149 497 163 483 q 115 511 135 511 q 82 497 96 511 q 68 464 68 483 q 82 431 68 444 q 115 417 96 417 q 149 431 135 417 q 163 464 163 444 m 494 464 q 481 497 494 483 q 447 511 467 511 q 414 497 428 511 q 400 464 400 483 q 414 431 400 444 q 447 417 428 417 q 481 431 467 417 q 494 464 494 444 z "},"ฬ":{"ha":631,"x_min":24,"x_max":601,"o":"m 553 0 l 492 0 l 353 271 l 214 0 l 157 0 l 157 382 q 115 372 139 372 q 51 399 78 372 q 24 464 24 426 q 51 528 24 501 q 115 556 78 556 q 180 528 153 556 q 207 464 207 501 l 207 136 q 203 68 207 114 q 226 128 211 92 l 329 322 l 376 322 l 479 128 q 506 68 483 118 q 503 136 503 113 l 503 382 q 461 372 485 372 q 397 399 424 372 q 369 464 369 426 q 397 528 369 501 q 461 556 424 556 q 503 544 483 556 q 538 599 531 557 l 601 599 q 540 510 589 547 q 553 464 553 485 l 553 0 m 163 464 q 149 497 163 483 q 115 511 135 511 q 82 497 96 511 q 68 464 68 483 q 82 431 68 444 q 115 417 96 417 q 149 431 135 417 q 163 464 163 444 m 508 464 q 494 497 508 483 q 461 511 481 511 q 428 497 442 511 q 414 464 414 483 q 428 431 414 444 q 461 417 442 417 q 494 431 481 417 q 508 464 508 444 z "},"อ":{"ha":538,"x_min":36,"x_max":460,"o":"m 229 289 q 215 322 229 308 q 182 336 201 336 q 149 322 163 336 q 135 289 135 308 q 149 256 135 269 q 182 242 163 242 q 215 256 201 242 q 229 289 229 269 m 460 118 q 274 -11 457 -11 q 90 118 90 -11 l 90 289 q 117 353 90 326 q 182 381 144 381 q 247 353 219 381 q 274 289 274 326 q 249 224 274 251 q 182 197 224 197 q 140 207 158 197 l 140 129 q 276 35 140 35 q 410 129 410 35 l 410 388 q 361 481 410 446 q 251 511 317 511 q 147 485 194 511 q 86 411 96 456 l 36 411 q 109 516 50 476 q 254 556 168 556 q 393 517 336 556 q 460 396 460 472 l 460 118 z "},"ฮ":{"ha":517,"x_min":51,"x_max":485,"o":"m 439 124 q 254 -11 439 -11 q 67 124 67 -11 l 67 253 q 94 317 67 290 q 158 344 121 344 q 223 317 196 344 q 250 253 250 290 q 226 188 250 215 q 158 161 203 161 q 117 171 135 161 l 117 129 q 254 35 117 35 q 389 131 389 35 l 389 413 q 206 372 329 372 q 51 456 51 372 q 121 536 51 508 q 240 557 174 557 q 408 489 346 557 q 432 557 431 526 l 485 557 q 429 449 475 500 q 439 393 439 429 l 439 124 m 379 450 q 323 495 364 476 q 239 514 282 514 q 150 500 190 514 q 101 456 101 483 q 208 417 101 417 q 379 450 313 417 m 206 253 q 192 286 206 272 q 158 300 178 300 q 125 286 139 300 q 111 253 111 272 q 125 219 111 233 q 158 206 139 206 q 192 219 178 206 q 206 253 206 233 z "},"ฯ":{"ha":543,"x_min":75,"x_max":463,"o":"m 463 0 l 413 0 l 413 454 q 369 500 413 497 q 208 364 321 364 q 109 392 143 364 q 75 467 75 421 q 101 529 75 503 q 164 556 128 556 q 226 529 200 556 q 253 467 253 503 q 233 413 253 436 q 329 544 310 439 l 379 544 q 463 458 463 544 l 463 0 m 204 468 q 192 498 204 486 q 163 510 181 510 q 133 498 144 510 q 122 468 122 486 q 133 439 122 450 q 163 428 144 428 q 192 439 181 428 q 204 468 204 450 z "},"ะ":{"ha":496,"x_min":43,"x_max":421,"o":"m 421 531 q 364 376 418 436 q 224 315 310 315 q 104 342 153 315 q 43 438 43 374 q 69 500 43 474 q 132 526 96 526 q 194 500 168 526 q 221 438 221 474 q 181 364 221 390 q 215 358 203 358 q 329 408 290 361 q 371 531 368 454 l 421 531 m 174 438 q 161 469 174 457 q 129 482 149 482 q 98 469 110 482 q 86 438 86 457 q 98 406 86 418 q 129 394 110 394 q 161 406 149 394 q 174 438 174 418 m 421 236 q 364 81 418 142 q 224 21 310 21 q 104 47 153 21 q 43 143 43 79 q 69 206 43 179 q 132 232 96 232 q 194 206 168 232 q 221 143 221 179 q 181 69 221 96 q 215 64 203 64 q 329 113 290 67 q 371 236 368 160 l 421 236 m 174 143 q 161 175 174 163 q 129 188 149 188 q 98 175 110 188 q 86 143 86 163 q 98 112 86 124 q 129 100 110 100 q 161 112 149 100 q 174 143 174 124 z "},"ั":{"ha":0,"x_min":-326,"x_max":68,"o":"m 68 860 q 6 705 67 765 q -149 644 -56 644 q -278 678 -229 644 q -326 765 -326 711 q -300 828 -326 801 q -237 854 -274 854 q -175 828 -201 854 q -149 767 -149 803 q -190 692 -149 719 q -139 688 -171 688 q -26 742 -71 689 q 15 860 13 790 l 68 860 m -193 768 q -206 801 -193 788 q -237 814 -219 814 q -269 801 -256 814 q -283 768 -283 788 q -269 736 -283 749 q -237 724 -256 724 q -206 736 -219 724 q -193 768 -193 749 z "},"า":{"ha":439,"x_min":33,"x_max":361,"o":"m 361 0 l 311 0 l 311 415 q 280 484 311 457 q 194 511 249 511 q 117 478 146 511 q 85 408 88 446 l 33 408 q 80 511 35 467 q 196 556 125 556 q 319 517 276 556 q 361 414 361 478 l 361 0 z "},"ำ":{"ha":439,"x_min":-225,"x_max":361,"o":"m 361 0 l 311 0 l 311 415 q 280 484 311 457 q 194 511 249 511 q 117 478 146 511 q 85 408 88 446 l 33 408 q 80 511 35 467 q 196 556 125 556 q 319 517 276 556 q 361 414 361 478 l 361 0 m -12 747 q -43 672 -12 703 q -118 642 -74 642 q -194 672 -162 642 q -225 747 -225 703 q -194 823 -225 792 q -118 854 -162 854 q -43 823 -74 854 q -12 747 -12 792 m -58 747 q -76 790 -58 772 q -118 808 -94 808 q -161 790 -143 808 q -179 747 -179 772 q -161 705 -179 722 q -118 688 -143 688 q -76 705 -94 688 q -58 747 -58 722 z "},"ิ":{"ha":0,"x_min":-479,"x_max":-69,"o":"m -69 632 q -369 689 -229 689 q -479 681 -419 689 q -419 797 -478 753 q -293 838 -367 838 q -69 632 -106 838 m -124 685 q -292 797 -185 797 q -422 724 -389 797 q -357 728 -393 728 q -124 685 -224 728 z "},"ี":{"ha":0,"x_min":-479,"x_max":-69,"o":"m -69 632 q -369 689 -229 689 q -479 681 -419 689 q -419 797 -478 753 q -293 838 -367 838 q -124 764 -182 838 l -124 899 l -78 899 l -78 669 q -69 632 -72 651 m -124 685 q -292 797 -185 797 q -422 724 -389 797 q -357 728 -393 728 q -124 685 -224 728 z "},"ึ":{"ha":0,"x_min":-479,"x_max":-32,"o":"m -69 632 q -369 689 -229 689 q -479 681 -419 689 q -419 797 -478 753 q -293 838 -367 838 q -164 801 -218 838 q -168 824 -168 813 q -148 872 -168 851 q -100 892 -128 892 q -52 872 -72 892 q -32 824 -32 851 q -52 776 -32 796 q -100 756 -72 756 q -118 758 -107 756 q -69 632 -83 710 m -124 685 q -292 797 -185 797 q -422 724 -389 797 q -357 728 -393 728 q -124 685 -224 728 m -64 824 q -74 849 -64 839 q -100 860 -85 860 q -126 849 -115 860 q -136 824 -136 839 q -126 798 -136 808 q -100 788 -115 788 q -74 798 -85 788 q -64 824 -64 808 z "},"ื":{"ha":0,"x_min":-479,"x_max":-69,"o":"m -69 632 q -369 689 -229 689 q -479 681 -419 689 q -419 797 -478 753 q -293 838 -367 838 q -235 832 -261 838 l -235 899 l -189 899 l -189 815 q -124 764 -150 797 l -124 899 l -78 899 l -78 669 q -69 632 -72 651 m -124 685 q -292 797 -185 797 q -422 724 -389 797 q -357 728 -393 728 q -124 685 -224 728 z "},"ุ":{"ha":0,"x_min":-225,"x_max":-78,"o":"m -78 -322 l -126 -322 l -126 -210 q -151 -214 -137 -214 q -203 -192 -182 -214 q -225 -140 -225 -171 q -203 -88 -225 -110 q -151 -67 -182 -67 q -99 -88 -121 -67 q -78 -140 -78 -110 l -78 -322 m -115 -139 q -126 -113 -115 -124 q -151 -103 -136 -103 q -177 -113 -167 -103 q -187 -139 -187 -124 q -177 -165 -187 -154 q -151 -175 -167 -175 q -126 -165 -136 -175 q -115 -139 -115 -154 z "},"ู":{"ha":0,"x_min":-371,"x_max":-78,"o":"m -78 -254 q -178 -340 -78 -340 q -272 -257 -272 -340 l -272 -210 q -297 -214 -283 -214 q -349 -192 -328 -214 q -371 -140 -371 -171 q -349 -88 -371 -110 q -297 -67 -328 -67 q -245 -88 -267 -67 q -224 -140 -224 -110 l -224 -265 q -175 -297 -224 -297 q -128 -265 -128 -297 l -128 -72 l -78 -72 l -78 -254 m -261 -139 q -272 -113 -261 -124 q -297 -103 -282 -103 q -323 -113 -312 -103 q -333 -139 -333 -124 q -323 -165 -333 -154 q -297 -175 -312 -175 q -272 -165 -282 -175 q -261 -139 -261 -154 z "},"ฺ":{"ha":0,"x_min":-140,"x_max":-67,"o":"m -67 -96 q -77 -122 -67 -111 q -103 -133 -87 -133 q -129 -122 -118 -133 q -140 -96 -140 -111 q -129 -70 -140 -81 q -103 -60 -118 -60 q -77 -70 -87 -60 q -67 -96 -67 -81 z "},"฿":{"ha":571,"x_min":104,"x_max":465,"o":"m 465 203 q 286 35 465 57 l 286 -82 l 240 -82 l 240 31 l 218 31 q 104 43 167 31 l 104 613 q 231 631 182 631 l 240 631 l 240 726 l 286 726 l 286 628 q 442 481 442 607 q 353 349 442 388 q 428 299 396 333 q 465 203 465 257 m 415 201 q 363 297 415 264 q 239 325 315 325 l 157 325 l 157 82 q 229 75 183 75 q 354 103 304 75 q 415 201 415 136 m 390 479 q 338 564 390 536 q 231 586 294 586 q 157 576 203 586 l 157 371 l 254 371 q 354 402 318 371 q 390 479 390 433 z "},"เ":{"ha":282,"x_min":74,"x_max":261,"o":"m 261 86 q 234 19 261 47 q 168 -8 207 -8 q 97 22 125 -8 q 74 86 74 49 l 74 556 l 124 556 l 124 168 q 168 179 143 179 q 234 152 207 179 q 261 86 261 125 m 215 86 q 201 119 215 106 q 168 133 188 133 q 135 119 149 133 q 121 86 121 106 q 135 53 121 67 q 168 39 149 39 q 201 53 188 39 q 215 86 215 67 z "},"แ":{"ha":524,"x_min":74,"x_max":501,"o":"m 261 86 q 234 19 261 47 q 168 -8 207 -8 q 97 22 125 -8 q 74 86 74 49 l 74 556 l 124 556 l 124 168 q 168 179 143 179 q 234 152 207 179 q 261 86 261 125 m 215 86 q 201 119 215 106 q 168 133 188 133 q 135 119 149 133 q 121 86 121 106 q 135 53 121 67 q 168 39 149 39 q 201 53 188 39 q 215 86 215 67 m 501 86 q 474 19 501 47 q 408 -8 447 -8 q 338 22 365 -8 q 314 86 314 49 l 314 556 l 364 556 l 364 168 q 408 179 383 179 q 474 152 447 179 q 501 86 501 125 m 456 86 q 442 119 456 106 q 408 133 428 133 q 375 119 389 133 q 361 86 361 106 q 375 53 361 67 q 408 39 389 39 q 442 53 428 39 q 456 86 456 67 z "},"โ":{"ha":329,"x_min":-54,"x_max":308,"o":"m 263 83 q 248 117 263 103 q 214 131 233 131 q 182 117 196 131 q 168 83 168 103 q 181 50 168 64 q 214 36 194 36 q 248 50 233 36 q 263 83 263 64 m 308 83 q 281 17 308 44 q 214 -11 253 -11 q 143 19 169 -11 q 119 83 119 46 l 119 661 q 60 736 119 700 q -54 774 0 772 q 74 904 -47 904 q 146 883 96 904 q 213 861 196 861 q 243 896 238 861 l 285 885 q 219 815 265 815 q 145 838 197 815 q 69 861 93 861 q 4 810 8 861 q 169 656 169 761 l 169 165 q 214 176 189 176 q 281 149 253 176 q 308 83 308 122 z "},"ใ":{"ha":336,"x_min":-58,"x_max":315,"o":"m 315 83 q 288 17 315 44 q 222 -11 260 -11 q 150 19 178 -11 q 126 83 126 46 l 126 651 q 139 706 126 675 q 168 793 168 776 q 144 850 168 828 q 86 872 121 872 q 7 840 35 872 q 69 824 44 846 q 94 765 94 801 q 72 711 94 733 q 19 689 50 689 q -35 711 -11 689 q -58 778 -58 733 q -18 874 -58 835 q 90 913 22 913 q 180 881 140 913 q 219 801 219 850 q 198 721 219 772 q 176 642 176 669 l 176 165 q 222 176 196 176 q 288 149 260 176 q 315 83 315 122 m 269 83 q 255 117 269 103 q 221 131 240 131 q 189 117 203 131 q 175 83 175 103 q 188 50 175 64 q 221 36 201 36 q 255 50 240 36 q 269 83 269 64 m 57 765 q 47 792 57 781 q 18 804 36 804 q -10 792 0 804 q -21 765 -21 781 q -10 738 -21 750 q 18 726 0 726 q 47 738 36 726 q 57 765 57 750 z "},"ไ":{"ha":339,"x_min":-49,"x_max":318,"o":"m 318 83 q 290 17 318 44 q 225 -11 263 -11 q 153 19 181 -11 q 129 83 129 46 l 129 835 l 29 690 l -17 707 q -49 924 -24 800 l -6 924 q 21 742 17 803 l 135 910 q 166 893 153 908 q 179 861 179 878 l 179 165 q 225 176 199 176 q 290 149 263 176 q 318 83 318 122 m 271 83 q 257 117 271 103 q 224 131 243 131 q 190 117 204 131 q 176 83 176 103 q 190 50 176 64 q 224 36 204 36 q 257 50 243 36 q 271 83 271 64 z "},"ๅ":{"ha":285,"x_min":-121,"x_max":207,"o":"m 207 -278 l 157 -278 l 157 415 q 126 484 157 457 q 40 511 94 511 q -37 478 -8 511 q -69 408 -67 446 l -121 408 q -74 511 -119 467 q 42 556 -29 556 q 165 517 122 556 q 207 414 207 478 l 207 -278 z "},"ๆ":{"ha":554,"x_min":81,"x_max":464,"o":"m 464 -236 l 413 -236 l 413 417 q 349 526 413 488 l 283 476 l 207 528 q 140 425 149 503 q 183 439 161 439 q 244 414 219 439 q 269 353 269 389 q 244 292 269 317 q 183 268 219 268 q 113 300 140 268 q 85 396 86 332 q 213 574 81 533 l 281 528 l 344 574 q 464 417 464 528 l 464 -236 m 225 353 q 213 383 225 371 q 183 394 201 394 q 154 383 165 394 q 143 353 143 371 q 154 324 143 335 q 183 313 165 313 q 213 324 201 313 q 225 353 225 335 z "},"็":{"ha":0,"x_min":-406,"x_max":-75,"o":"m -75 710 q -97 660 -75 679 q -146 640 -118 640 q -279 700 -204 640 q -350 639 -317 688 q -406 747 -406 674 q -287 856 -406 856 l -196 856 q -124 956 -128 856 l -76 956 q -107 856 -76 896 q -197 815 -137 815 l -293 815 q -360 751 -360 815 q -344 697 -360 721 q -274 742 -310 736 q -206 692 -250 721 q -207 710 -207 703 q -188 756 -207 738 q -142 775 -169 775 q -94 756 -114 775 q -75 710 -75 736 m -111 710 q -120 731 -111 722 q -142 740 -129 740 q -163 731 -154 740 q -172 710 -172 722 q -163 688 -172 697 q -142 679 -154 679 q -120 688 -129 679 q -111 710 -111 697 z "},"่":{"ha":0,"x_min":-124,"x_max":-78,"o":"m -78 944 l -124 944 l -124 1099 l -78 1099 l -78 944 z "},"้":{"ha":0,"x_min":-258,"x_max":58,"o":"m 58 1147 q -44 979 39 1028 q -229 940 -111 940 l -254 940 l -254 967 q -189 1021 -208 986 q -237 1041 -217 1021 q -258 1090 -258 1061 q -237 1140 -258 1119 q -187 1161 -217 1161 q -140 1142 -160 1161 q -118 1090 -121 1122 q -181 976 -118 1021 q 7 1147 -15 990 l 58 1147 m -157 1090 q -166 1114 -157 1104 q -189 1124 -175 1124 q -212 1114 -203 1124 q -222 1090 -222 1104 q -212 1067 -222 1076 q -189 1058 -203 1058 q -166 1067 -175 1058 q -157 1090 -157 1076 z "},"๊":{"ha":0,"x_min":-311,"x_max":60,"o":"m -204 1007 q -213 1031 -204 1021 q -236 1040 -222 1040 q -260 1031 -250 1040 q -269 1007 -269 1021 q -260 984 -269 993 q -236 975 -250 975 q -213 984 -222 975 q -204 1007 -204 993 m 60 1144 q -140 938 56 938 l -140 968 q -85 1057 -85 996 q -131 1118 -85 1104 l -169 1075 l -208 1118 q -242 1103 -222 1117 q -262 1074 -257 1092 q -249 1078 -256 1076 q -236 1079 -243 1079 q -187 1058 -207 1079 q -167 1008 -167 1038 q -187 959 -167 979 q -236 939 -207 939 q -292 963 -272 939 q -311 1026 -311 986 q -278 1117 -311 1078 q -201 1157 -246 1157 l -168 1115 l -137 1157 q -72 1128 -96 1156 q -47 1060 -47 1101 q -78 978 -47 1010 q -19 1018 -46 981 q 15 1144 15 1065 l 60 1144 z "},"๋":{"ha":0,"x_min":-196,"x_max":-6,"o":"m -6 999 l -79 999 l -79 944 l -122 944 l -122 999 l -196 999 l -196 1038 l -122 1038 l -122 1097 l -79 1097 l -79 1038 l -6 1038 l -6 999 z "},"์":{"ha":0,"x_min":-247,"x_max":-15,"o":"m -15 1121 q -60 1057 -19 1076 q -122 1036 -82 1044 q -171 1018 -161 1029 q -122 995 -142 1015 q -103 946 -103 975 q -124 895 -103 915 q -174 875 -144 875 q -226 895 -204 875 q -247 946 -247 915 q -153 1064 -247 1038 l -92 1082 q -58 1121 -58 1093 l -15 1121 m -137 944 q -148 969 -137 958 q -172 981 -158 981 q -198 969 -187 981 q -208 944 -208 958 q -198 919 -208 931 q -172 908 -187 908 q -148 919 -158 908 q -137 944 -137 931 z "},"ํ":{"ha":0,"x_min":-225,"x_max":-12,"o":"m -12 747 q -43 672 -12 703 q -118 642 -74 642 q -194 672 -162 642 q -225 747 -225 703 q -194 823 -225 792 q -118 854 -162 854 q -43 823 -74 854 q -12 747 -12 792 m -58 747 q -76 790 -58 772 q -118 808 -94 808 q -161 790 -143 808 q -179 747 -179 772 q -161 705 -179 722 q -118 688 -143 688 q -76 705 -94 688 q -58 747 -58 722 z "},"๎":{"ha":0,"x_min":-275,"x_max":-43,"o":"m -43 922 l -56 888 q -107 894 -79 894 q -171 851 -171 894 q -101 797 -171 806 l -114 765 q -147 771 -131 771 q -210 753 -186 771 q -235 715 -235 736 q -172 678 -235 678 q -128 689 -154 678 l -126 654 q -190 643 -153 643 q -250 663 -225 643 q -275 717 -275 683 q -247 775 -275 751 q -185 799 -219 799 q -212 851 -212 817 q -106 932 -212 932 q -43 922 -68 932 z "},"๏":{"ha":625,"x_min":78,"x_max":547,"o":"m 401 226 q 376 289 401 263 q 313 315 350 315 q 249 289 275 315 q 224 226 224 263 q 249 163 224 189 q 313 138 275 138 q 376 163 350 138 q 401 226 401 189 m 450 226 q 410 128 450 169 q 313 88 369 88 q 215 128 256 88 q 175 226 175 169 q 215 324 175 283 q 313 364 256 364 q 410 324 369 364 q 450 226 450 283 m 499 226 q 444 358 499 304 q 313 413 390 413 q 181 358 235 413 q 126 226 126 304 q 180 93 126 147 q 313 39 233 39 q 444 94 390 39 q 499 226 499 149 m 547 226 q 478 60 547 128 q 313 -8 410 -8 q 146 60 214 -8 q 78 226 78 128 q 146 392 78 324 q 313 461 214 461 q 478 392 408 461 q 547 226 547 322 z "},"๐":{"ha":624,"x_min":53,"x_max":571,"o":"m 571 200 q 500 51 571 111 q 311 -10 429 -10 q 123 51 193 -10 q 53 200 53 111 q 123 349 53 289 q 311 410 193 410 q 500 349 429 410 q 571 200 571 289 m 515 200 q 459 319 515 271 q 310 367 403 367 q 160 319 217 367 q 104 200 104 271 q 160 82 104 129 q 310 35 217 35 q 459 82 403 35 q 515 200 515 129 z "},"๑":{"ha":624,"x_min":50,"x_max":574,"o":"m 574 172 q 506 -26 574 46 l 444 -26 q 524 163 524 39 q 465 308 524 251 q 299 365 407 365 q 158 315 217 365 q 100 185 100 265 q 139 76 100 118 q 239 33 178 33 q 351 106 318 33 q 304 94 326 94 q 238 120 264 94 q 211 185 211 146 q 240 251 211 225 q 307 278 269 278 q 381 246 354 278 q 407 168 407 214 q 367 49 407 100 q 226 -11 319 -11 q 96 50 146 -11 q 50 186 50 106 q 123 349 50 290 q 297 408 196 408 q 502 341 431 408 q 574 172 574 274 m 360 185 q 344 224 360 208 q 306 239 329 239 q 267 224 282 239 q 253 185 253 208 q 267 147 253 161 q 306 132 282 132 q 344 147 329 132 q 360 185 360 161 z "},"๒":{"ha":624,"x_min":22,"x_max":576,"o":"m 576 203 q 328 -17 576 -17 q 58 193 58 -17 l 58 549 q 22 590 58 589 l 22 639 q 107 549 107 632 l 107 186 q 329 29 107 29 q 528 196 528 29 q 508 326 528 281 q 468 364 492 364 q 420 340 439 364 q 399 283 401 317 l 367 283 q 297 365 356 365 q 221 299 231 365 q 256 304 231 304 q 316 278 290 304 q 342 218 342 253 q 315 158 342 183 q 256 132 289 132 q 189 164 215 132 q 163 251 163 196 q 197 363 163 318 q 294 408 231 408 q 383 342 357 408 q 464 408 406 408 q 543 360 513 408 q 576 203 576 306 m 301 218 q 288 251 301 238 q 256 264 275 264 q 224 251 238 264 q 210 218 210 238 q 224 186 210 200 q 256 172 238 172 q 288 186 275 172 q 301 218 301 200 z "},"๓":{"ha":624,"x_min":47,"x_max":576,"o":"m 576 0 l 528 0 l 528 261 q 506 338 528 308 q 449 367 485 367 q 392 332 417 367 q 367 256 367 297 l 367 0 l 315 0 l 315 257 q 281 333 315 299 q 206 367 246 367 q 124 317 154 367 q 97 199 97 272 q 101 151 97 175 q 167 181 122 181 q 231 153 204 181 q 257 88 257 125 q 231 24 257 50 q 160 -3 204 -3 q 77 49 107 -3 q 47 186 47 101 q 210 408 47 408 q 340 321 304 408 q 449 408 372 408 q 542 370 507 408 q 576 265 576 332 l 576 0 m 214 89 q 199 126 214 111 q 161 142 183 142 q 124 126 139 142 q 108 89 108 111 q 124 51 108 67 q 161 36 139 36 q 199 51 183 36 q 214 89 214 67 z "},"๔":{"ha":624,"x_min":40,"x_max":636,"o":"m 363 203 q 348 240 363 225 q 311 256 333 256 q 274 240 289 256 q 260 203 260 224 q 275 165 260 181 q 311 150 290 150 q 347 166 332 150 q 363 203 363 182 m 576 -15 q 453 18 501 18 q 354 4 421 18 q 231 -11 283 -10 q 92 41 143 -14 q 40 190 40 96 q 112 353 40 296 q 303 411 183 411 q 482 432 436 411 q 589 575 571 474 l 636 575 q 496 386 604 429 q 301 365 443 365 q 96 186 96 365 q 132 72 96 114 q 231 31 168 31 q 383 51 311 31 q 218 207 215 96 q 247 270 219 246 q 311 294 274 294 q 377 269 351 294 q 403 203 403 243 q 383 147 403 174 q 335 115 364 121 q 440 75 371 90 q 524 53 476 67 q 601 25 572 40 l 576 -15 z "},"๕":{"ha":624,"x_min":40,"x_max":636,"o":"m 389 493 q 374 527 389 513 q 340 542 360 542 q 307 527 321 542 q 293 493 293 513 q 308 460 293 475 q 340 446 322 446 q 374 460 360 446 q 389 493 389 474 m 363 203 q 348 240 363 225 q 311 256 333 256 q 274 240 289 256 q 260 203 260 224 q 275 165 260 181 q 311 150 290 150 q 347 166 332 150 q 363 203 363 182 m 576 -15 q 453 18 501 18 q 354 4 421 18 q 231 -11 283 -10 q 92 41 143 -14 q 40 190 40 96 q 112 353 40 296 q 306 411 183 411 q 251 493 251 435 q 278 557 251 531 q 340 583 304 583 q 404 557 378 583 q 431 493 431 531 q 378 413 431 436 q 482 432 451 418 q 589 575 571 474 l 636 575 q 496 386 604 429 q 301 365 443 365 q 96 186 96 365 q 132 72 96 114 q 231 31 168 31 q 383 51 311 31 q 218 207 215 96 q 247 270 219 246 q 311 294 274 294 q 377 269 351 294 q 403 203 403 243 q 383 147 403 174 q 335 115 364 121 q 440 75 371 90 q 524 53 476 67 q 601 25 572 40 l 576 -15 z "},"๖":{"ha":624,"x_min":25,"x_max":586,"o":"m 585 214 q 308 -11 586 -11 q 153 24 207 -11 q 99 118 99 60 q 126 185 99 158 q 192 211 153 211 q 258 185 232 211 q 285 118 285 158 q 242 39 285 65 q 321 33 283 33 q 480 76 426 35 q 533 211 533 118 q 478 323 533 281 q 329 365 422 365 q 106 261 181 365 q 25 575 97 472 l 85 575 q 139 350 138 478 q 318 408 213 408 q 513 360 444 408 q 585 214 585 307 m 246 118 q 231 157 246 142 q 192 172 215 172 q 153 157 168 172 q 139 118 139 142 q 153 80 139 94 q 192 65 168 65 q 231 80 215 65 q 246 118 246 94 z "},"๗":{"ha":624,"x_min":33,"x_max":606,"o":"m 204 86 q 188 126 204 111 q 150 140 171 140 q 114 124 129 140 q 99 86 99 108 q 115 51 99 67 q 150 35 131 35 q 188 50 172 35 q 204 86 204 65 m 606 575 q 582 351 581 514 q 582 303 582 307 q 526 51 582 106 q 393 -3 469 -3 l 386 -3 q 439 236 439 138 q 367 367 439 367 q 319 332 339 367 q 299 256 299 297 l 299 190 l 246 190 l 246 257 q 221 332 246 297 q 167 367 196 367 q 106 321 129 367 q 82 201 82 275 q 86 150 82 171 q 150 181 107 181 q 216 153 189 181 q 243 86 243 125 q 215 22 243 49 q 150 -4 188 -4 q 64 45 94 -4 q 33 182 33 94 q 70 347 33 286 q 167 408 107 408 q 272 321 243 408 q 369 408 293 408 q 488 236 488 408 q 453 56 488 143 q 536 282 536 75 q 554 575 536 522 l 606 575 z "},"๘":{"ha":624,"x_min":44,"x_max":579,"o":"m 579 165 q 442 -7 579 -7 q 247 113 340 -7 q 188 57 229 104 q 142 -12 147 10 q 44 197 44 36 q 296 408 44 408 q 350 406 317 408 q 400 403 383 403 q 488 429 460 403 q 524 551 524 464 l 524 575 l 572 575 l 572 547 q 407 354 572 354 q 344 357 382 354 q 285 360 306 360 q 144 317 192 360 q 97 203 97 274 q 131 69 97 103 q 260 174 188 147 q 331 93 279 136 q 438 39 393 39 q 517 76 490 39 q 486 72 492 72 q 420 99 447 72 q 393 165 393 126 q 420 231 393 204 q 486 258 447 258 q 552 231 525 258 q 579 165 579 204 m 538 165 q 522 201 538 186 q 486 217 507 217 q 450 201 465 217 q 435 165 435 186 q 450 129 435 144 q 486 114 465 114 q 522 129 507 114 q 538 165 538 144 z "},"๙":{"ha":624,"x_min":36,"x_max":586,"o":"m 579 22 l 553 -15 q 417 140 490 33 q 332 292 358 224 q 290 341 322 317 q 219 367 258 365 q 128 317 171 367 q 86 193 86 267 q 157 51 96 90 q 151 86 151 67 q 178 151 151 124 q 242 178 204 178 q 306 151 279 178 q 333 86 333 124 q 306 22 333 49 q 242 -4 279 -4 q 89 51 142 -6 q 36 200 36 107 q 89 351 36 292 q 218 410 142 410 q 347 340 297 410 q 401 408 353 408 q 449 387 414 408 q 500 365 485 365 q 544 444 544 365 q 533 575 544 519 l 575 575 q 586 449 586 504 q 511 321 586 321 q 453 343 496 321 q 407 365 411 365 q 379 314 386 365 q 438 181 389 258 q 579 22 501 86 m 293 86 q 278 122 293 107 q 242 138 263 138 q 206 122 221 138 q 190 86 190 107 q 206 50 190 65 q 242 35 221 35 q 278 50 263 35 q 293 86 293 65 z "},"๚":{"ha":725,"x_min":75,"x_max":647,"o":"m 647 0 l 597 0 l 597 454 q 554 500 597 497 q 463 378 524 408 l 463 0 l 413 0 l 413 454 q 369 500 413 497 q 208 364 321 364 q 109 392 143 364 q 75 467 75 421 q 101 529 75 503 q 164 556 128 556 q 226 529 200 556 q 253 467 253 503 q 233 413 253 436 q 329 544 310 439 l 379 544 q 463 458 463 544 l 463 438 q 514 544 500 474 l 564 544 q 647 458 647 544 l 647 0 m 204 468 q 192 498 204 486 q 163 510 181 510 q 133 498 144 510 q 122 468 122 486 q 133 439 122 450 q 163 428 144 428 q 192 439 181 428 q 204 468 204 450 z "},"๛":{"ha":968,"x_min":107,"x_max":929,"o":"m 269 449 q 265 444 269 444 l 261 444 l 261 453 l 265 453 q 269 449 269 453 m 272 449 q 265 454 272 454 l 258 454 l 258 435 l 261 435 l 261 443 l 265 443 q 272 449 272 443 m 310 449 q 306 444 310 444 l 301 444 l 301 453 l 306 453 q 310 449 310 453 m 256 435 l 256 438 l 246 438 l 246 454 l 243 454 l 243 435 l 256 435 m 221 442 l 218 442 q 213 436 218 436 q 207 444 207 436 q 213 453 207 453 q 218 447 217 453 l 221 447 q 213 454 218 454 q 204 444 204 454 q 213 435 204 435 q 221 442 221 435 m 296 440 q 285 449 292 444 q 289 453 285 453 q 292 449 292 450 l 294 449 q 289 454 294 454 q 282 449 282 454 q 293 440 286 444 q 289 436 293 436 q 285 442 285 436 l 282 442 q 289 435 282 435 q 296 440 296 435 m 239 435 l 239 454 l 236 454 l 236 446 l 226 446 l 226 454 l 224 454 l 224 435 l 226 435 l 226 444 l 236 444 l 236 435 l 239 435 m 331 435 l 324 446 l 331 454 l 326 454 l 319 444 l 319 454 l 317 454 l 317 435 l 319 435 l 319 442 l 322 444 l 326 435 l 331 435 m 313 449 q 306 454 313 454 l 299 454 l 299 435 l 301 435 l 301 443 l 306 443 q 313 449 313 443 m 922 249 l 929 249 q 872 233 901 233 q 792 268 826 233 q 753 192 783 201 q 725 238 740 192 q 696 306 706 296 q 658 178 696 178 q 635 228 650 178 q 606 299 618 283 q 553 163 597 163 q 529 217 544 163 q 500 299 510 286 q 293 33 500 33 q 157 93 207 33 q 107 254 107 153 q 150 415 107 358 q 271 472 193 472 q 369 434 333 472 q 406 329 406 396 q 382 229 406 269 q 297 179 353 179 q 244 202 267 179 q 222 256 222 225 q 244 310 222 288 q 297 332 265 332 q 357 304 333 332 l 357 307 q 360 340 360 321 q 275 429 360 429 q 188 381 218 429 q 157 247 157 332 q 195 125 157 171 q 293 79 233 79 q 419 139 375 79 q 463 308 463 199 q 458 374 463 351 q 563 226 536 358 q 575 304 575 267 q 564 371 575 331 q 665 250 622 354 q 672 301 672 285 q 665 353 672 314 q 754 236 725 336 q 768 285 768 254 q 764 322 768 301 q 824 283 771 321 q 922 249 871 249 m 336 256 q 324 283 336 271 q 297 294 313 294 q 270 283 282 294 q 258 256 258 271 q 270 228 258 240 q 297 217 282 217 q 324 228 313 217 q 336 256 336 240 z "},"‌":{"ha":0,"x_min":-19,"x_max":21,"o":"m 21 -214 l -19 -214 l -19 532 l 21 532 l 21 -214 z "},"‍":{"ha":0,"x_min":-71,"x_max":72,"o":"m 21 -214 l -19 -214 l -19 408 l -47 381 l -71 404 l -19 456 l -71 510 l -46 532 l 0 481 l 47 532 l 72 510 l 21 456 l 72 404 l 47 381 l 21 408 l 21 -214 z "},"‎":{"ha":0,"x_min":-19,"x_max":226,"o":"m 21 -214 l -19 -214 l -19 483 l 156 483 l 132 508 l 154 531 l 226 458 l 154 386 l 132 410 l 156 435 l 21 435 l 21 -214 z "},"‏":{"ha":0,"x_min":-225,"x_max":21,"o":"m 21 -214 l -19 -214 l -19 435 l -154 435 l -131 410 l -153 386 l -225 458 l -153 531 q -143 519 -150 526 q -131 508 -136 513 l -154 483 l 21 483 l 21 -214 z "},"–":{"ha":500,"x_min":29,"x_max":469,"o":"m 469 229 l 29 229 l 29 275 l 469 275 l 469 229 z "},"—":{"ha":1000,"x_min":31,"x_max":965,"o":"m 965 229 l 31 229 l 31 275 l 965 275 l 965 229 z "},"‘":{"ha":343,"x_min":101,"x_max":233,"o":"m 207 518 q 192 480 207 496 q 156 464 176 464 q 117 480 133 464 q 101 518 101 496 q 156 665 101 601 q 213 715 186 701 l 233 692 q 150 567 156 642 q 157 568 158 568 q 192 553 176 568 q 207 518 207 538 z "},"’":{"ha":343,"x_min":101,"x_max":233,"o":"m 233 644 q 181 497 233 561 q 122 447 149 461 l 101 471 q 185 596 179 521 q 178 594 176 594 q 143 610 158 594 q 128 644 128 625 q 143 683 128 667 q 179 699 158 699 q 218 683 203 699 q 233 644 233 668 z "},"‚":{"ha":343,"x_min":101,"x_max":233,"o":"m 233 43 q 181 -104 233 -40 q 122 -154 149 -140 l 101 -131 q 185 -6 179 -81 q 175 -7 179 -7 q 140 8 151 -7 q 128 43 128 24 q 143 81 128 65 q 179 97 158 97 q 218 82 203 97 q 233 43 233 67 z "},"“":{"ha":514,"x_min":108,"x_max":401,"o":"m 375 518 q 360 480 375 496 q 324 464 344 464 q 285 480 301 464 q 269 518 269 496 q 324 665 269 601 q 381 715 354 701 l 401 692 q 318 567 324 642 q 325 568 326 568 q 360 553 344 568 q 375 518 375 538 m 214 518 q 199 480 214 496 q 163 464 183 464 q 124 480 140 464 q 108 518 108 496 q 163 665 108 601 q 219 715 193 701 l 240 692 q 157 567 163 642 q 164 568 165 568 q 199 553 183 568 q 214 518 214 538 z "},"”":{"ha":514,"x_min":108,"x_max":401,"o":"m 240 644 q 188 497 240 561 q 129 447 156 461 l 108 471 q 192 596 186 521 q 185 594 183 594 q 150 610 165 594 q 135 644 135 625 q 150 683 135 667 q 186 699 165 699 q 225 683 210 699 q 240 644 240 668 m 401 644 q 349 497 401 561 q 290 447 317 461 l 269 471 q 353 596 347 521 q 346 594 344 594 q 311 610 326 594 q 296 644 296 625 q 311 683 296 667 q 347 699 326 699 q 386 683 371 699 q 401 644 401 668 z "},"„":{"ha":514,"x_min":108,"x_max":401,"o":"m 240 43 q 188 -104 240 -40 q 129 -154 156 -140 l 108 -131 q 192 -6 186 -81 q 182 -7 186 -7 q 147 8 158 -7 q 135 43 135 24 q 150 81 135 65 q 186 97 165 97 q 225 82 210 97 q 240 43 240 67 m 401 43 q 349 -104 401 -40 q 290 -154 317 -140 l 269 -131 q 353 -6 347 -81 q 343 -7 347 -7 q 308 8 319 -7 q 296 43 296 24 q 311 81 296 65 q 347 97 326 97 q 386 82 371 97 q 401 43 401 67 z "},"†":{"ha":519,"x_min":54,"x_max":465,"o":"m 465 447 l 465 401 l 285 407 l 285 -47 l 235 -47 l 235 407 l 54 401 l 54 447 l 235 442 l 235 658 l 285 658 l 285 442 l 465 447 z "},"‡":{"ha":519,"x_min":54,"x_max":465,"o":"m 465 447 l 465 401 l 285 407 l 285 196 l 465 201 l 465 156 l 285 161 l 285 -47 l 235 -47 l 235 161 l 54 156 l 54 201 l 235 196 l 235 407 l 54 401 l 54 447 l 235 442 l 235 658 l 285 658 l 285 442 l 465 447 z "},"•":{"ha":300,"x_min":33,"x_max":267,"o":"m 267 278 q 233 195 267 229 q 150 161 199 161 q 67 195 101 161 q 33 278 33 229 q 67 360 33 326 q 150 394 100 394 q 233 360 199 394 q 267 278 267 325 z "},"…":{"ha":665,"x_min":64,"x_max":603,"o":"m 160 39 q 145 6 160 19 q 111 -8 131 -8 q 78 6 92 -8 q 64 39 64 19 q 78 73 64 58 q 111 88 92 88 q 145 73 131 88 q 160 39 160 58 m 382 39 q 367 6 382 19 q 333 -8 353 -8 q 300 6 314 -8 q 286 39 286 19 q 300 73 286 58 q 333 88 314 88 q 367 73 353 88 q 382 39 382 58 m 603 39 q 588 6 603 19 q 554 -8 574 -8 q 521 6 535 -8 q 507 39 507 19 q 521 73 507 58 q 554 88 535 88 q 588 73 574 88 q 603 39 603 58 z "},"‰":{"ha":1151,"x_min":47,"x_max":1103,"o":"m 575 661 l 622 661 l 219 -12 l 172 -12 l 575 661 m 1103 193 q 954 -4 1103 -4 q 806 193 806 -4 q 954 390 806 390 q 1103 193 1103 390 m 344 464 q 196 267 344 267 q 47 464 47 267 q 196 661 47 661 q 344 464 344 661 m 294 464 q 196 617 294 617 q 97 464 97 617 q 196 311 97 311 q 294 464 294 311 m 1053 193 q 954 346 1053 346 q 856 193 856 346 q 954 40 856 40 q 1053 193 1053 40 m 758 193 q 610 -4 758 -4 q 461 193 461 -4 q 610 390 461 390 q 758 193 758 390 m 708 193 q 610 346 708 346 q 511 193 511 346 q 610 40 511 40 q 708 193 708 40 z "},"′":{"ha":174,"x_min":21,"x_max":150,"o":"m 58 515 l 21 515 l 74 661 l 150 661 l 58 515 z "},"″":{"ha":297,"x_min":21,"x_max":274,"o":"m 58 515 l 21 515 l 74 661 l 150 661 l 58 515 m 182 515 l 144 515 l 197 661 l 274 661 l 182 515 z "},"‹":{"ha":254,"x_min":15,"x_max":228,"o":"m 169 67 l 15 246 l 168 429 l 226 429 l 74 246 l 228 67 l 169 67 z "},"›":{"ha":254,"x_min":26,"x_max":239,"o":"m 85 67 l 26 67 l 181 246 l 28 429 l 86 429 l 239 246 l 85 67 z "},"⁄":{"ha":225,"x_min":-50,"x_max":275,"o":"m 0 0 l -50 0 l 225 661 l 275 661 l 0 0 z "},"€":{"ha":564,"x_min":0,"x_max":526,"o":"m 510 69 l 526 25 q 346 -10 453 -10 q 163 49 242 -10 q 51 208 83 108 l 0 208 l 0 253 l 39 253 q 32 332 32 294 q 36 393 32 364 l 0 393 l 0 438 l 46 438 q 156 607 75 543 q 346 671 238 671 q 526 636 453 671 l 510 592 q 349 624 435 624 q 198 574 265 624 q 103 438 131 524 l 451 438 l 451 393 l 92 393 q 88 331 88 364 q 96 253 88 289 l 451 253 l 451 208 l 108 208 q 205 83 139 129 q 349 38 271 38 q 510 69 435 38 z "},"ℓ":{"ha":290,"x_min":31,"x_max":250,"o":"m 249 31 q 197 6 221 15 q 158 -4 172 -4 q 99 93 99 -4 l 99 274 l 56 244 l 31 283 l 99 331 l 99 506 q 171 622 99 622 q 230 594 210 622 q 250 517 250 565 q 223 387 250 440 q 146 301 196 333 l 146 92 q 174 47 146 47 q 249 82 199 47 l 249 31 m 206 507 q 199 558 206 538 q 174 579 193 579 q 146 506 146 579 l 146 358 q 192 424 178 388 q 206 507 206 461 z "},"™":{"ha":701,"x_min":19,"x_max":678,"o":"m 303 644 l 182 644 l 182 336 l 140 336 l 140 644 l 19 644 l 19 683 l 303 683 l 303 644 m 678 336 l 635 336 l 618 611 l 510 336 l 479 336 l 371 611 l 354 336 l 311 336 l 335 683 l 381 683 l 494 390 l 608 683 l 654 683 l 678 336 z "},"Ω":{"ha":629,"x_min":49,"x_max":579,"o":"m 579 0 l 368 0 l 368 160 q 508 369 508 226 q 453 517 508 460 q 314 574 399 574 q 174 517 229 574 q 119 369 119 460 q 260 160 119 226 l 260 0 l 49 0 l 49 46 l 210 46 l 210 128 q 110 216 154 150 q 65 365 65 282 q 133 554 65 488 q 314 621 201 621 q 494 554 426 621 q 563 365 563 488 q 518 216 563 282 q 418 128 474 150 l 418 46 l 579 46 l 579 0 z "},"℮":{"ha":435,"x_min":43,"x_max":392,"o":"m 342 310 q 304 442 335 397 q 221 488 274 488 q 136 442 165 488 q 100 310 107 397 l 342 310 m 383 143 q 221 -10 350 -10 q 88 62 133 -10 q 43 278 43 133 q 94 469 43 404 q 221 533 146 533 q 347 465 304 533 q 392 269 389 396 l 99 269 q 132 92 101 147 q 221 36 163 36 q 292 64 263 36 q 332 143 322 92 l 383 143 z "},"∂":{"ha":440,"x_min":39,"x_max":400,"o":"m 400 392 q 354 139 400 246 q 157 -7 290 -7 q 75 29 107 -7 q 39 140 39 69 q 128 332 39 261 q 315 393 204 393 q 343 392 333 393 q 267 576 340 576 q 174 481 206 576 l 128 507 q 265 629 178 629 q 400 392 400 629 m 342 343 q 315 344 332 344 q 153 279 213 344 q 99 140 99 221 q 172 50 99 50 q 299 165 249 50 q 342 343 338 254 z "},"∆":{"ha":658,"x_min":0,"x_max":658,"o":"m 569 49 l 329 531 l 89 49 l 569 49 m 658 0 l 0 0 l 329 656 l 658 0 z "},"∏":{"ha":619,"x_min":75,"x_max":544,"o":"m 544 -76 l 490 -76 l 490 615 l 129 615 l 129 -76 l 75 -76 l 75 661 l 544 661 l 544 -76 z "},"∑":{"ha":571,"x_min":35,"x_max":551,"o":"m 551 -76 l 35 -76 l 35 -14 l 311 303 l 35 601 l 35 661 l 531 661 l 531 615 l 92 615 l 364 319 l 364 283 l 92 -31 l 551 -31 l 551 -76 z "},"−":{"ha":571,"x_min":76,"x_max":494,"o":"m 494 229 l 76 229 l 76 275 l 494 275 l 494 229 z "},"√":{"ha":486,"x_min":32,"x_max":486,"o":"m 251 -14 l 208 -14 l 103 319 l 32 319 l 32 358 l 140 358 l 232 54 l 438 656 l 486 656 l 251 -14 z "},"∞":{"ha":858,"x_min":74,"x_max":785,"o":"m 399 307 q 233 413 303 413 q 146 381 175 413 q 117 306 117 349 q 147 222 117 254 q 235 189 178 189 q 328 226 282 189 q 399 307 374 263 m 785 292 q 745 190 785 232 q 626 149 706 149 q 424 275 528 149 q 233 149 340 149 q 117 192 161 149 q 74 308 74 235 q 113 410 74 368 q 232 451 153 451 q 433 326 322 451 q 625 451 519 451 q 741 408 697 451 q 785 292 785 365 m 742 294 q 711 378 742 346 q 624 411 681 411 q 531 374 576 411 q 460 293 485 338 q 625 188 556 188 q 713 219 683 188 q 742 294 742 251 z "},"∫":{"ha":336,"x_min":-54,"x_max":340,"o":"m 122 -15 q 3 -143 101 -143 q -54 -136 -31 -143 l -47 -92 q 1 -97 -31 -99 q 74 -22 60 -93 l 163 546 q 292 669 181 669 q 340 665 321 669 l 331 622 q 308 624 324 624 q 242 606 267 624 q 211 543 218 589 l 122 -15 z "},"≈":{"ha":571,"x_min":63,"x_max":508,"o":"m 508 425 l 508 417 q 474 318 508 353 q 400 289 444 289 q 284 334 346 289 q 174 379 222 379 q 106 289 108 379 l 63 289 l 63 300 q 95 392 63 358 q 174 425 128 425 q 290 381 226 425 q 403 338 353 338 q 465 425 463 338 l 508 425 m 508 240 l 508 232 q 474 133 508 168 q 400 104 444 104 q 284 149 346 104 q 174 194 222 194 q 106 104 108 194 l 63 104 l 63 115 q 95 207 63 174 q 174 240 128 240 q 290 197 226 240 q 403 153 353 153 q 465 240 463 153 l 508 240 z "},"≠":{"ha":571,"x_min":76,"x_max":494,"o":"m 494 188 l 494 142 l 251 142 l 176 -12 l 124 -12 l 199 142 l 76 142 l 76 188 l 221 188 l 286 322 l 76 322 l 76 368 l 308 368 l 368 492 l 425 492 l 364 368 l 494 368 l 494 322 l 342 322 l 275 188 l 494 188 z "},"≤":{"ha":571,"x_min":79,"x_max":490,"o":"m 490 22 l 79 22 l 79 64 l 490 64 l 490 22 m 457 78 l 108 243 l 108 308 l 457 474 l 457 421 l 157 275 l 457 129 l 457 78 z "},"≥":{"ha":571,"x_min":79,"x_max":490,"o":"m 490 22 l 79 22 l 79 64 l 490 64 l 490 22 m 457 243 l 108 78 l 108 129 l 408 275 l 108 421 l 108 474 l 457 308 l 457 243 z "},"◊":{"ha":536,"x_min":46,"x_max":490,"o":"m 490 275 l 297 0 l 239 0 l 46 275 l 239 553 l 297 553 l 490 275 m 444 275 l 268 528 l 92 275 l 268 22 l 444 275 z "},"◌":{"ha":556,"x_min":24,"x_max":531,"o":"m 303 511 q 295 492 303 500 q 276 485 288 485 q 258 492 265 485 q 250 511 250 500 q 258 530 250 522 q 276 538 265 538 q 295 530 288 538 q 303 511 303 522 m 303 57 q 295 38 303 46 q 276 31 288 31 q 258 38 265 31 q 250 57 250 46 q 258 76 250 68 q 276 83 265 83 q 295 76 288 83 q 303 57 303 68 m 75 285 q 67 267 75 274 q 49 260 60 260 q 31 267 38 260 q 24 285 24 274 q 31 303 24 296 q 49 311 38 311 q 67 303 60 311 q 75 285 75 296 m 531 285 q 523 267 531 274 q 504 260 515 260 q 486 267 493 260 q 479 285 479 274 q 486 303 479 296 q 504 311 493 311 q 523 303 515 311 q 531 285 531 296 m 93 369 q 85 351 93 358 q 67 344 78 344 q 49 351 56 344 q 42 369 42 358 q 49 388 42 381 q 67 396 56 396 q 85 388 78 396 q 93 369 93 381 m 142 446 q 134 428 142 435 q 115 421 126 421 q 97 428 104 421 q 90 446 90 435 q 97 465 90 457 q 115 472 104 472 q 134 465 126 472 q 142 446 142 457 m 215 494 q 208 476 215 483 q 189 469 200 469 q 171 476 178 469 q 164 494 164 483 q 171 513 164 506 q 189 521 178 521 q 208 513 200 521 q 215 494 215 506 m 511 369 q 504 351 511 358 q 486 344 497 344 q 467 351 475 344 q 460 369 460 358 q 467 388 460 381 q 486 396 475 396 q 504 388 497 396 q 511 369 511 381 m 463 446 q 456 428 463 435 q 438 421 449 421 q 419 428 426 421 q 411 446 411 435 q 419 465 411 457 q 438 472 426 472 q 456 465 449 472 q 463 446 463 457 m 389 494 q 382 476 389 483 q 364 469 375 469 q 345 476 353 469 q 338 494 338 483 q 345 513 338 506 q 364 521 353 521 q 382 513 375 521 q 389 494 389 506 m 93 199 q 85 180 93 188 q 67 172 78 172 q 49 180 56 172 q 42 199 42 188 q 49 217 42 210 q 67 224 56 224 q 85 217 78 224 q 93 199 93 210 m 142 122 q 134 103 142 111 q 115 96 126 96 q 97 103 104 96 q 90 122 90 111 q 97 140 90 133 q 115 147 104 147 q 134 140 126 147 q 142 122 142 133 m 215 74 q 208 55 215 63 q 189 47 200 47 q 171 55 178 47 q 164 74 164 63 q 171 92 164 85 q 189 99 178 99 q 208 92 200 99 q 215 74 215 85 m 513 199 q 506 180 513 188 q 488 172 499 172 q 469 180 476 172 q 461 199 461 188 q 469 217 461 210 q 488 224 476 224 q 506 217 499 224 q 513 199 513 210 m 464 122 q 457 103 464 111 q 439 96 450 96 q 420 103 428 96 q 413 122 413 111 q 420 140 413 133 q 439 147 428 147 q 457 140 450 147 q 464 122 464 133 m 390 74 q 383 55 390 63 q 365 47 376 47 q 347 55 354 47 q 339 74 339 63 q 347 92 339 85 q 365 99 354 99 q 383 92 376 99 q 390 74 390 85 z "},"":{"ha":467,"x_min":36,"x_max":440,"o":"m 393 110 q 282 -12 393 -12 q 172 110 172 -12 l 172 181 q 138 175 157 175 q 79 198 103 175 q 56 256 56 221 q 79 316 56 292 q 138 340 103 340 q 198 319 174 340 q 222 258 222 297 l 222 106 q 282 33 222 33 q 343 106 343 33 l 343 307 q 208 374 343 340 q 36 407 128 394 q 85 513 40 471 q 203 556 129 556 q 281 540 232 556 q 357 525 331 525 q 397 556 390 525 l 440 546 q 360 474 418 474 q 276 490 329 474 q 194 507 222 507 q 133 488 163 507 q 100 444 103 469 q 297 394 239 417 q 393 311 393 360 l 393 110 m 175 257 q 164 283 175 272 q 138 294 153 294 q 112 283 122 294 q 101 257 101 272 q 112 231 101 242 q 138 221 122 221 q 164 231 153 221 q 175 257 175 242 z "},"":{"ha":0,"x_min":-593,"x_max":-183,"o":"m -183 632 q -483 689 -343 689 q -593 681 -533 689 q -533 797 -592 753 q -407 838 -481 838 q -183 632 -219 838 m -237 685 q -406 797 -299 797 q -536 724 -503 797 q -471 728 -507 728 q -237 685 -337 728 z "},"":{"ha":0,"x_min":-593,"x_max":-183,"o":"m -183 632 q -483 689 -343 689 q -593 681 -533 689 q -533 797 -592 753 q -407 838 -481 838 q -237 764 -296 838 l -237 899 l -192 899 l -192 669 q -183 632 -186 651 m -237 685 q -406 797 -299 797 q -536 724 -503 797 q -471 728 -507 728 q -237 685 -337 728 z "},"":{"ha":0,"x_min":-593,"x_max":-146,"o":"m -183 632 q -483 689 -343 689 q -593 681 -533 689 q -533 797 -592 753 q -407 838 -481 838 q -278 801 -332 838 q -282 824 -282 813 q -262 872 -282 851 q -214 892 -242 892 q -166 872 -186 892 q -146 824 -146 851 q -166 776 -146 796 q -214 756 -186 756 q -232 758 -221 756 q -183 632 -197 710 m -237 685 q -406 797 -299 797 q -536 724 -503 797 q -471 728 -507 728 q -237 685 -337 728 m -178 824 q -188 849 -178 839 q -214 860 -199 860 q -240 849 -229 860 q -250 824 -250 839 q -240 798 -250 808 q -214 788 -229 788 q -188 798 -199 788 q -178 824 -178 808 z "},"":{"ha":0,"x_min":-593,"x_max":-183,"o":"m -237 685 q -406 797 -299 797 q -536 724 -503 797 q -471 728 -507 728 q -237 685 -337 728 m -183 632 q -483 689 -343 689 q -593 681 -533 689 q -533 797 -592 753 q -407 838 -481 838 q -349 832 -375 838 l -349 899 l -303 899 l -303 815 q -237 764 -264 797 l -237 899 l -192 899 l -192 669 q -183 632 -186 651 z "},"":{"ha":0,"x_min":-276,"x_max":-225,"o":"m -225 653 l -276 653 l -276 853 l -225 853 l -225 653 z "},"":{"ha":0,"x_min":-412,"x_max":-61,"o":"m -61 876 q -175 690 -82 744 q -381 646 -251 646 l -408 646 l -408 675 q -333 739 -354 697 q -412 818 -412 749 q -390 869 -412 849 q -337 889 -368 889 q -283 867 -303 889 q -262 811 -262 844 q -326 686 -262 733 q -118 876 -140 700 l -61 876 m -300 814 q -310 840 -300 829 q -336 850 -321 850 q -362 840 -351 850 q -372 814 -372 829 q -362 788 -372 799 q -336 778 -351 778 q -310 788 -321 778 q -300 814 -300 799 z "},"":{"ha":0,"x_min":-468,"x_max":-81,"o":"m -81 876 q -289 660 -87 660 l -289 692 q -232 785 -232 719 q -279 847 -232 835 l -321 803 l -361 849 q -393 833 -374 847 q -417 804 -412 818 q -392 807 -397 807 q -317 732 -317 803 q -390 661 -324 661 q -448 688 -428 661 q -468 753 -468 714 q -433 847 -468 804 q -353 889 -399 889 l -319 844 l -286 889 q -218 859 -243 888 q -193 788 -193 831 q -224 701 -193 736 q -164 743 -192 704 q -128 876 -128 794 l -81 876 m -356 732 q -365 757 -356 747 q -389 767 -375 767 q -413 757 -403 767 q -424 732 -424 747 q -413 708 -424 717 q -389 699 -403 699 q -365 708 -375 699 q -356 732 -356 717 z "},"":{"ha":0,"x_min":-393,"x_max":-187,"o":"m -187 731 l -267 731 l -267 653 l -314 653 l -314 731 l -393 731 l -393 768 l -314 768 l -314 842 l -267 842 l -267 768 l -187 768 l -187 731 z "},"":{"ha":0,"x_min":-356,"x_max":-112,"o":"m -112 914 q -158 846 -117 867 q -225 824 -182 833 q -275 806 -265 817 q -224 781 -244 803 q -204 729 -204 760 q -226 676 -204 697 q -279 654 -247 654 q -333 676 -311 654 q -356 729 -356 697 q -257 853 -356 826 l -192 872 q -157 914 -157 885 l -112 914 m -240 728 q -251 754 -240 743 q -278 765 -262 765 q -304 754 -293 765 q -315 728 -315 743 q -304 701 -315 713 q -278 690 -293 690 q -251 701 -262 690 q -240 728 -240 713 z "},"":{"ha":0,"x_min":-129,"x_max":-78,"o":"m -78 667 l -129 667 l -129 867 l -78 867 l -78 667 z "},"":{"ha":0,"x_min":-325,"x_max":26,"o":"m 26 893 q -87 707 6 761 q -293 663 -164 663 l -321 663 l -321 692 q -246 756 -267 714 q -325 835 -325 765 q -303 885 -325 865 q -250 906 -281 906 q -195 883 -215 906 q -175 828 -175 861 q -239 703 -175 750 q -31 893 -53 717 l 26 893 m -212 831 q -223 856 -212 846 q -249 867 -233 867 q -274 856 -264 867 q -285 831 -285 846 q -274 805 -285 815 q -249 794 -264 794 q -223 805 -233 794 q -212 831 -212 815 z "},"":{"ha":0,"x_min":-399,"x_max":-11,"o":"m -11 864 q -219 647 -18 647 l -219 679 q -162 772 -162 707 q -210 835 -162 822 l -251 790 l -292 836 q -324 820 -304 835 q -347 792 -343 806 q -322 794 -328 794 q -247 719 -247 790 q -321 649 -247 649 q -378 675 -358 649 q -399 740 -399 701 q -364 834 -399 792 q -283 876 -329 876 l -250 832 l -217 876 q -149 847 -174 875 q -124 775 -124 818 q -154 689 -124 724 q -94 731 -122 692 q -58 864 -58 782 l -11 864 m -286 719 q -296 744 -286 735 q -319 754 -306 754 q -344 744 -333 754 q -354 719 -354 735 q -344 695 -354 704 q -319 686 -333 686 q -296 695 -306 686 q -286 719 -286 704 z "},"":{"ha":0,"x_min":-207,"x_max":1,"o":"m 1 739 l -78 739 l -78 661 l -128 661 l -128 739 l -207 739 l -207 781 l -128 781 l -128 854 l -78 854 l -78 781 l 1 781 l 1 739 z "},"":{"ha":0,"x_min":-260,"x_max":-17,"o":"m -17 914 q -62 846 -21 867 q -129 824 -86 833 q -179 806 -169 817 q -128 781 -149 803 q -108 729 -108 760 q -130 676 -108 697 q -183 654 -151 654 q -237 676 -215 654 q -260 729 -260 697 q -161 853 -260 826 l -96 872 q -61 914 -61 885 l -17 914 m -144 728 q -156 754 -144 743 q -182 765 -167 765 q -208 754 -197 765 q -219 728 -219 743 q -208 701 -219 713 q -182 690 -197 690 q -156 701 -167 690 q -144 728 -144 713 z "},"":{"ha":711,"x_min":42,"x_max":643,"o":"m 218 79 q 204 113 218 99 q 171 126 190 126 q 138 113 151 126 q 125 79 125 99 q 138 47 125 60 q 171 33 151 33 q 204 47 190 33 q 218 79 218 60 m 643 114 q 507 -11 643 -11 q 372 115 372 -11 l 372 368 q 238 511 372 511 q 155 485 193 511 q 101 415 117 458 q 213 354 179 410 q 154 318 179 347 q 129 253 129 289 l 129 163 q 171 171 147 171 q 236 144 210 171 q 263 81 263 118 q 241 15 263 43 q 171 -12 219 -12 q 105 13 131 -12 q 79 82 79 39 l 79 251 q 151 361 79 326 q 42 376 99 382 q 109 505 54 454 q 240 556 164 556 q 374 508 326 556 q 422 374 422 461 l 422 111 q 508 33 422 33 q 593 111 593 33 l 593 544 l 643 544 l 643 114 z "},"":{"ha":0,"x_min":-475,"x_max":-81,"o":"m -81 858 q -143 703 -82 764 q -297 643 -204 643 q -426 676 -378 643 q -475 764 -475 710 q -449 826 -475 800 q -386 853 -422 853 q -324 827 -350 853 q -297 765 -297 801 q -339 690 -297 718 q -287 686 -319 686 q -175 740 -219 688 q -133 858 -136 789 l -81 858 m -342 767 q -355 799 -342 786 q -386 813 -368 813 q -418 799 -404 813 q -432 767 -432 786 q -418 735 -432 747 q -386 722 -404 722 q -355 735 -368 722 q -342 767 -342 747 z "},"":{"ha":0,"x_min":-421,"x_max":-208,"o":"m -208 747 q -239 672 -208 703 q -314 642 -269 642 q -390 672 -358 642 q -421 747 -421 703 q -390 823 -421 792 q -314 854 -358 854 q -239 823 -269 854 q -208 747 -208 792 m -254 747 q -272 790 -254 772 q -314 808 -290 808 q -357 790 -339 808 q -375 747 -375 772 q -357 705 -375 722 q -314 688 -339 688 q -272 705 -290 688 q -254 747 -254 722 z "},"":{"ha":0,"x_min":-515,"x_max":-185,"o":"m -185 710 q -206 660 -185 679 q -256 640 -228 640 q -389 700 -314 640 q -460 639 -426 688 q -515 747 -515 674 q -397 856 -515 856 l -306 856 q -233 956 -237 856 l -186 956 q -217 856 -186 896 q -307 815 -247 815 l -403 815 q -469 751 -469 815 q -454 697 -469 721 q -383 742 -419 736 q -315 692 -360 721 q -317 710 -317 703 q -298 756 -317 738 q -251 775 -279 775 q -204 756 -224 775 q -185 710 -185 736 m -221 710 q -230 731 -221 722 q -251 740 -239 740 q -273 731 -264 740 q -282 710 -282 722 q -273 688 -282 697 q -251 679 -264 679 q -230 688 -239 679 q -221 710 -221 697 z "},"":{"ha":0,"x_min":-237,"x_max":-192,"o":"m -192 944 l -237 944 l -237 1099 l -192 1099 l -192 944 z "},"":{"ha":0,"x_min":-404,"x_max":-87,"o":"m -87 1147 q -190 979 -107 1028 q -375 940 -257 940 l -400 940 l -400 967 q -335 1021 -354 986 q -383 1041 -362 1021 q -404 1090 -404 1061 q -383 1140 -404 1119 q -333 1161 -362 1161 q -286 1142 -306 1161 q -264 1090 -267 1122 q -326 976 -264 1021 q -139 1147 -161 990 l -87 1147 m -303 1090 q -312 1114 -303 1104 q -335 1124 -321 1124 q -358 1114 -349 1124 q -368 1090 -368 1104 q -358 1067 -368 1076 q -335 1058 -349 1058 q -312 1067 -321 1058 q -303 1090 -303 1076 z "},"":{"ha":0,"x_min":-486,"x_max":-115,"o":"m -379 1007 q -388 1031 -379 1021 q -411 1040 -397 1040 q -435 1031 -425 1040 q -444 1007 -444 1021 q -435 984 -444 993 q -411 975 -425 975 q -388 984 -397 975 q -379 1007 -379 993 m -115 1144 q -315 938 -119 938 l -315 968 q -260 1057 -260 996 q -306 1118 -260 1104 l -344 1075 l -383 1118 q -417 1103 -397 1117 q -437 1074 -432 1092 q -424 1078 -431 1076 q -411 1079 -418 1079 q -362 1058 -382 1079 q -342 1008 -342 1038 q -362 959 -342 979 q -411 939 -382 939 q -467 963 -447 939 q -486 1026 -486 986 q -453 1117 -486 1078 q -376 1157 -421 1157 l -343 1115 l -312 1157 q -247 1128 -271 1156 q -222 1060 -222 1101 q -253 978 -222 1010 q -194 1018 -221 981 q -160 1144 -160 1065 l -115 1144 z "},"":{"ha":0,"x_min":-310,"x_max":-119,"o":"m -119 999 l -193 999 l -193 944 l -236 944 l -236 999 l -310 999 l -310 1038 l -236 1038 l -236 1097 l -193 1097 l -193 1038 l -119 1038 l -119 999 z "},"":{"ha":0,"x_min":-324,"x_max":-81,"o":"m -81 1140 q -126 1072 -85 1093 q -193 1050 -150 1060 q -243 1032 -233 1043 q -192 1008 -212 1029 q -172 956 -172 986 q -194 902 -172 924 q -247 881 -215 881 q -301 902 -279 881 q -324 956 -324 924 q -225 1079 -324 1053 l -160 1099 q -125 1140 -125 1111 l -81 1140 m -208 954 q -219 981 -208 969 q -246 992 -231 992 q -272 981 -261 992 q -283 954 -283 969 q -272 928 -283 939 q -246 917 -261 917 q -219 928 -231 917 q -208 954 -208 939 z "},"":{"ha":0,"x_min":-225,"x_max":-78,"o":"m -78 -585 l -126 -585 l -126 -483 q -151 -487 -137 -487 q -203 -466 -182 -487 q -225 -414 -225 -444 q -203 -362 -225 -383 q -151 -340 -182 -340 q -99 -362 -121 -340 q -78 -414 -78 -383 l -78 -585 m -115 -412 q -126 -387 -115 -397 q -151 -376 -136 -376 q -177 -387 -167 -376 q -187 -412 -187 -397 q -177 -438 -187 -428 q -151 -449 -167 -449 q -126 -438 -136 -449 q -115 -412 -115 -428 z "},"":{"ha":0,"x_min":-371,"x_max":-78,"o":"m -78 -499 q -178 -585 -78 -585 q -272 -501 -272 -585 l -272 -485 q -297 -489 -283 -489 q -349 -467 -328 -489 q -371 -415 -371 -446 q -349 -363 -371 -385 q -297 -342 -328 -342 q -245 -363 -267 -342 q -224 -415 -224 -385 l -224 -510 q -175 -542 -224 -542 q -128 -510 -128 -542 l -128 -347 l -78 -347 l -78 -499 m -261 -414 q -272 -388 -261 -399 q -297 -378 -282 -378 q -323 -388 -312 -378 q -333 -414 -333 -399 q -323 -440 -333 -429 q -297 -450 -312 -450 q -272 -440 -282 -450 q -261 -414 -261 -429 z "},"":{"ha":0,"x_min":-140,"x_max":-67,"o":"m -67 -378 q -77 -404 -67 -393 q -103 -415 -87 -415 q -129 -404 -118 -415 q -140 -378 -140 -393 q -129 -352 -140 -362 q -103 -342 -118 -342 q -77 -352 -87 -342 q -67 -378 -67 -362 z "},"":{"ha":590,"x_min":33,"x_max":513,"o":"m 204 -186 q 163 -174 192 -174 q 108 -221 108 -174 q 153 -262 108 -262 q 204 -186 204 -262 m 513 -299 l 457 -299 l 382 -214 l 321 -297 l 244 -214 q 217 -281 243 -257 q 156 -306 190 -306 q 90 -281 113 -306 q 67 -219 67 -256 q 93 -155 67 -179 q 158 -131 119 -131 q 204 -140 185 -131 q 261 -60 207 -92 l 299 -82 q 249 -160 251 -111 l 317 -232 l 382 -144 l 463 -235 l 463 361 q 420 470 463 429 q 311 511 378 511 q 220 484 264 511 q 160 415 176 457 q 272 354 233 408 q 197 253 197 329 q 210 142 197 199 q 215 83 215 117 q 188 16 215 43 q 124 -11 161 -11 q 60 15 86 -11 q 33 79 33 42 q 60 144 33 117 q 124 171 86 171 q 157 164 139 171 q 149 261 149 228 q 204 361 149 325 q 131 378 167 378 q 104 376 113 378 q 172 505 111 454 q 313 556 232 556 q 457 505 401 556 q 513 367 513 454 l 513 -299 m 171 79 q 157 113 171 99 q 124 126 143 126 q 91 113 104 126 q 78 79 78 99 q 91 47 78 60 q 124 33 104 33 q 157 47 143 33 q 171 79 171 60 z "},"":{"ha":631,"x_min":24,"x_max":601,"o":"m 553 0 l 492 0 l 353 271 l 214 0 l 157 0 l 157 382 q 115 372 139 372 q 51 399 78 372 q 24 464 24 426 q 51 528 24 501 q 115 556 78 556 q 180 528 153 556 q 207 464 207 501 l 207 136 q 203 68 207 114 q 226 128 211 92 l 329 322 l 376 322 l 479 128 q 506 68 483 118 q 503 136 503 113 l 503 382 q 461 372 485 372 q 397 399 424 372 q 369 464 369 426 q 397 528 369 501 q 461 556 424 556 q 503 544 483 556 q 538 599 531 557 l 601 599 q 540 510 589 547 q 553 464 553 485 l 553 0 m 163 464 q 149 497 163 483 q 115 511 135 511 q 82 497 96 511 q 68 464 68 483 q 82 431 68 444 q 115 417 96 417 q 149 431 135 417 q 163 464 163 444 m 508 464 q 494 497 508 483 q 461 511 481 511 q 428 497 442 511 q 414 464 414 483 q 428 431 414 444 q 461 417 442 417 q 494 431 481 417 q 508 464 508 444 z "},"ﬁ":{"ha":482,"x_min":14,"x_max":410,"o":"m 410 472 l 410 0 l 356 0 l 356 429 l 138 429 l 138 0 l 83 0 l 83 429 l 14 429 l 14 472 l 83 472 l 83 496 q 133 653 83 594 q 276 713 182 713 q 394 675 343 713 l 371 633 q 267 667 318 667 q 138 496 138 667 l 138 472 l 410 472 z "},"ﬂ":{"ha":561,"x_min":14,"x_max":536,"o":"m 536 38 l 531 -10 q 356 238 356 -1 l 356 653 q 288 667 328 667 q 215 652 244 667 q 169 614 186 638 q 144 558 151 590 q 138 493 138 526 l 138 472 l 274 472 l 274 429 l 138 429 l 138 0 l 83 0 l 83 429 l 14 429 l 14 472 l 83 472 l 83 486 q 144 656 83 599 q 299 713 206 713 q 410 685 353 713 l 410 258 q 428 111 410 157 q 536 38 456 39 z "},"Ạ":{"ha":556,"x_min":0,"x_max":556,"o":"m 556 0 l 496 0 l 419 213 l 135 213 l 60 0 l 0 0 l 250 671 l 306 671 l 556 0 m 403 258 l 278 611 l 151 258 l 403 258 m 318 -107 q 307 -135 318 -124 q 278 -147 296 -147 q 249 -135 261 -147 q 238 -107 238 -124 q 249 -81 238 -93 q 278 -68 261 -68 q 307 -81 296 -68 q 318 -107 318 -93 z "},"ạ":{"ha":478,"x_min":36,"x_max":422,"o":"m 422 0 l 374 -10 l 354 67 q 186 -12 290 -12 q 81 22 125 -12 q 36 118 36 57 q 343 294 36 294 l 351 294 l 351 303 q 331 383 351 349 q 222 439 299 439 q 72 407 174 439 l 65 457 q 226 482 143 482 q 406 285 406 482 l 406 115 q 422 0 406 57 m 351 153 l 351 247 q 93 128 93 247 q 121 58 93 82 q 190 33 149 33 q 344 126 300 33 q 351 153 351 142 m 279 -107 q 268 -135 279 -124 q 239 -147 257 -147 q 210 -135 222 -147 q 199 -107 199 -124 q 210 -81 199 -93 q 239 -68 222 -68 q 268 -81 257 -68 q 279 -107 279 -93 z "},"Ả":{"ha":556,"x_min":0,"x_max":556,"o":"m 556 0 l 496 0 l 419 213 l 135 213 l 60 0 l 0 0 l 250 671 l 306 671 l 556 0 m 403 258 l 278 611 l 151 258 l 403 258 m 378 843 q 339 769 378 800 q 300 722 300 739 l 257 722 q 297 786 258 758 q 335 843 335 814 q 322 873 335 863 q 286 883 308 883 q 224 844 250 883 l 197 865 q 293 921 228 921 q 354 901 331 921 q 378 843 378 881 z "},"ả":{"ha":478,"x_min":36,"x_max":422,"o":"m 422 0 l 374 -10 l 354 67 q 186 -12 290 -12 q 81 22 125 -12 q 36 118 36 57 q 343 294 36 294 l 351 294 l 351 303 q 331 383 351 349 q 222 439 299 439 q 72 407 174 439 l 65 457 q 226 482 143 482 q 406 285 406 482 l 406 115 q 422 0 406 57 m 351 153 l 351 247 q 93 128 93 247 q 121 58 93 82 q 190 33 149 33 q 344 126 300 33 q 351 153 351 142 m 321 642 q 286 575 321 603 q 251 533 251 548 l 212 533 q 248 590 213 565 q 282 642 282 615 q 270 668 282 659 q 238 678 258 678 q 182 643 206 678 l 158 662 q 244 712 186 712 q 299 693 278 712 q 321 642 321 675 z "},"Ấ":{"ha":556,"x_min":0,"x_max":556,"o":"m 556 0 l 496 0 l 419 213 l 135 213 l 60 0 l 0 0 l 250 671 l 306 671 l 556 0 m 403 258 l 278 611 l 151 258 l 403 258 m 297 842 l 393 733 l 342 733 l 278 806 l 214 733 l 163 733 l 258 842 l 297 842 m 430 806 l 391 806 l 453 919 l 502 907 l 430 806 z "},"ấ":{"ha":478,"x_min":36,"x_max":446,"o":"m 422 0 l 374 -10 l 354 67 q 186 -12 290 -12 q 81 22 125 -12 q 36 118 36 57 q 343 294 36 294 l 351 294 l 351 303 q 331 383 351 349 q 222 439 299 439 q 72 407 174 439 l 65 457 q 226 482 143 482 q 406 285 406 482 l 406 115 q 422 0 406 57 m 351 153 l 351 247 q 93 128 93 247 q 121 58 93 82 q 190 33 149 33 q 344 126 300 33 q 351 153 351 142 m 258 653 l 354 544 l 303 544 l 239 617 l 175 544 l 124 544 l 219 653 l 258 653 m 374 619 l 335 619 l 398 733 l 447 721 l 374 619 z "},"Ầ":{"ha":556,"x_min":0,"x_max":556,"o":"m 556 0 l 496 0 l 419 213 l 135 213 l 60 0 l 0 0 l 250 671 l 306 671 l 556 0 m 403 258 l 278 611 l 151 258 l 403 258 m 297 842 l 393 733 l 342 733 l 278 806 l 214 733 l 163 733 l 258 842 l 297 842 m 461 806 l 422 806 l 349 907 l 398 919 l 461 806 z "},"ầ":{"ha":478,"x_min":36,"x_max":422,"o":"m 422 0 l 374 -10 l 354 67 q 186 -12 290 -12 q 81 22 125 -12 q 36 118 36 57 q 343 294 36 294 l 351 294 l 351 303 q 331 383 351 349 q 222 439 299 439 q 72 407 174 439 l 65 457 q 226 482 143 482 q 406 285 406 482 l 406 115 q 422 0 406 57 m 351 153 l 351 247 q 93 128 93 247 q 121 58 93 82 q 190 33 149 33 q 344 126 300 33 q 351 153 351 142 m 258 653 l 354 544 l 303 544 l 239 617 l 175 544 l 124 544 l 219 653 l 258 653 m 412 619 l 373 619 l 301 721 l 349 733 l 412 619 z "},"Ẩ":{"ha":556,"x_min":0,"x_max":556,"o":"m 556 0 l 496 0 l 419 213 l 135 213 l 60 0 l 0 0 l 250 671 l 306 671 l 556 0 m 403 258 l 278 611 l 151 258 l 403 258 m 297 842 l 393 733 l 342 733 l 278 806 l 214 733 l 163 733 l 258 842 l 297 842 m 514 911 q 479 845 514 872 q 444 802 444 817 l 405 802 q 441 860 406 835 q 475 911 475 885 q 463 938 475 928 q 431 947 451 947 q 375 912 399 947 l 351 931 q 437 981 379 981 q 492 963 471 981 q 514 911 514 945 z "},"ẩ":{"ha":478,"x_min":36,"x_max":450,"o":"m 422 0 l 374 -10 l 354 67 q 186 -12 290 -12 q 81 22 125 -12 q 36 118 36 57 q 343 294 36 294 l 351 294 l 351 303 q 331 383 351 349 q 222 439 299 439 q 72 407 174 439 l 65 457 q 226 482 143 482 q 406 285 406 482 l 406 115 q 422 0 406 57 m 351 153 l 351 247 q 93 128 93 247 q 121 58 93 82 q 190 33 149 33 q 344 126 300 33 q 351 153 351 142 m 258 653 l 354 544 l 303 544 l 239 617 l 175 544 l 124 544 l 219 653 l 258 653 m 451 742 q 416 675 451 703 q 381 633 381 648 l 342 633 q 378 690 344 665 q 412 742 412 715 q 401 768 412 759 q 369 778 389 778 q 312 743 336 778 l 289 762 q 375 812 316 812 q 430 793 409 812 q 451 742 451 775 z "},"Ẫ":{"ha":556,"x_min":0,"x_max":556,"o":"m 556 0 l 496 0 l 419 213 l 135 213 l 60 0 l 0 0 l 250 671 l 306 671 l 556 0 m 403 258 l 278 611 l 151 258 l 403 258 m 297 842 l 393 733 l 342 733 l 278 806 l 214 733 l 163 733 l 258 842 l 297 842 m 400 964 q 331 881 397 881 q 301 888 317 881 q 272 903 286 894 q 244 919 257 913 q 221 926 231 926 q 200 914 210 926 q 189 878 190 901 l 154 878 q 174 940 156 919 q 222 961 193 961 q 252 954 238 961 q 281 938 267 947 q 310 922 296 929 q 338 915 324 915 q 365 964 361 915 l 400 964 z "},"ẫ":{"ha":478,"x_min":36,"x_max":422,"o":"m 422 0 l 374 -10 l 354 67 q 186 -12 290 -12 q 81 22 125 -12 q 36 118 36 57 q 343 294 36 294 l 351 294 l 351 303 q 331 383 351 349 q 222 439 299 439 q 72 407 174 439 l 65 457 q 226 482 143 482 q 406 285 406 482 l 406 115 q 422 0 406 57 m 351 153 l 351 247 q 93 128 93 247 q 121 58 93 82 q 190 33 149 33 q 344 126 300 33 q 351 153 351 142 m 258 653 l 354 544 l 303 544 l 239 617 l 175 544 l 124 544 l 219 653 l 258 653 m 361 774 q 292 690 358 690 q 263 697 278 690 q 233 713 247 704 q 205 729 218 722 q 182 736 192 736 q 161 724 171 736 q 150 688 151 711 l 115 688 q 135 750 117 729 q 183 771 154 771 q 213 764 199 771 q 242 748 228 757 q 271 732 257 739 q 299 725 285 725 q 326 774 322 725 l 361 774 z "},"Ậ":{"ha":556,"x_min":0,"x_max":556,"o":"m 556 0 l 496 0 l 419 213 l 135 213 l 60 0 l 0 0 l 250 671 l 306 671 l 556 0 m 403 258 l 278 611 l 151 258 l 403 258 m 318 -107 q 307 -135 318 -124 q 278 -147 296 -147 q 249 -135 261 -147 q 238 -107 238 -124 q 249 -81 238 -93 q 278 -68 261 -68 q 307 -81 296 -68 q 318 -107 318 -93 m 297 842 l 393 733 l 342 733 l 278 806 l 214 733 l 163 733 l 258 842 l 297 842 z "},"ậ":{"ha":478,"x_min":36,"x_max":422,"o":"m 422 0 l 374 -10 l 354 67 q 186 -12 290 -12 q 81 22 125 -12 q 36 118 36 57 q 343 294 36 294 l 351 294 l 351 303 q 331 383 351 349 q 222 439 299 439 q 72 407 174 439 l 65 457 q 226 482 143 482 q 406 285 406 482 l 406 115 q 422 0 406 57 m 351 153 l 351 247 q 93 128 93 247 q 121 58 93 82 q 190 33 149 33 q 344 126 300 33 q 351 153 351 142 m 279 -107 q 268 -135 279 -124 q 239 -147 257 -147 q 210 -135 222 -147 q 199 -107 199 -124 q 210 -81 199 -93 q 239 -68 222 -68 q 268 -81 257 -68 q 279 -107 279 -93 m 258 653 l 354 544 l 303 544 l 239 617 l 175 544 l 124 544 l 219 653 l 258 653 z "},"Ắ":{"ha":556,"x_min":0,"x_max":556,"o":"m 556 0 l 496 0 l 419 213 l 135 213 l 60 0 l 0 0 l 250 671 l 306 671 l 556 0 m 403 258 l 278 611 l 151 258 l 403 258 m 401 818 q 368 757 394 781 q 278 724 332 724 q 186 757 224 724 q 153 818 161 781 l 201 818 q 217 792 207 803 q 278 767 239 767 q 338 792 317 767 q 354 818 349 803 l 401 818 m 287 831 l 248 831 l 310 944 l 359 932 l 287 831 z "},"ắ":{"ha":478,"x_min":36,"x_max":422,"o":"m 422 0 l 374 -10 l 354 67 q 186 -12 290 -12 q 81 22 125 -12 q 36 118 36 57 q 343 294 36 294 l 351 294 l 351 303 q 331 383 351 349 q 222 439 299 439 q 72 407 174 439 l 65 457 q 226 482 143 482 q 406 285 406 482 l 406 115 q 422 0 406 57 m 351 153 l 351 247 q 93 128 93 247 q 121 58 93 82 q 190 33 149 33 q 344 126 300 33 q 351 153 351 142 m 363 629 q 329 568 356 592 q 239 535 293 535 q 147 568 185 535 q 114 629 122 592 l 163 629 q 178 603 168 614 q 239 578 200 578 q 299 603 278 578 q 315 629 310 614 l 363 629 m 249 646 l 210 646 l 273 760 l 322 747 l 249 646 z "},"Ằ":{"ha":556,"x_min":0,"x_max":556,"o":"m 556 0 l 496 0 l 419 213 l 135 213 l 60 0 l 0 0 l 250 671 l 306 671 l 556 0 m 403 258 l 278 611 l 151 258 l 403 258 m 401 818 q 368 757 394 781 q 278 724 332 724 q 186 757 224 724 q 153 818 161 781 l 201 818 q 217 792 207 803 q 278 767 239 767 q 338 792 317 767 q 354 818 349 803 l 401 818 m 306 833 l 268 833 l 195 935 l 244 947 l 306 833 z "},"ằ":{"ha":478,"x_min":36,"x_max":422,"o":"m 422 0 l 374 -10 l 354 67 q 186 -12 290 -12 q 81 22 125 -12 q 36 118 36 57 q 343 294 36 294 l 351 294 l 351 303 q 331 383 351 349 q 222 439 299 439 q 72 407 174 439 l 65 457 q 226 482 143 482 q 406 285 406 482 l 406 115 q 422 0 406 57 m 351 153 l 351 247 q 93 128 93 247 q 121 58 93 82 q 190 33 149 33 q 344 126 300 33 q 351 153 351 142 m 363 629 q 329 568 356 592 q 239 535 293 535 q 147 568 185 535 q 114 629 122 592 l 163 629 q 178 603 168 614 q 239 578 200 578 q 299 603 278 578 q 315 629 310 614 l 363 629 m 267 644 l 229 644 l 156 746 l 205 758 l 267 644 z "},"Ẳ":{"ha":556,"x_min":0,"x_max":556,"o":"m 556 0 l 496 0 l 419 213 l 135 213 l 60 0 l 0 0 l 250 671 l 306 671 l 556 0 m 403 258 l 278 611 l 151 258 l 403 258 m 401 818 q 368 757 394 781 q 278 724 332 724 q 186 757 224 724 q 153 818 161 781 l 201 818 q 217 792 207 803 q 278 767 239 767 q 338 792 317 767 q 354 818 349 803 l 401 818 m 360 943 q 325 877 360 904 q 290 834 290 849 l 251 834 q 286 892 252 867 q 321 943 321 917 q 309 970 321 960 q 277 979 297 979 q 221 944 245 979 l 197 963 q 283 1013 225 1013 q 338 995 317 1013 q 360 943 360 977 z "},"ẳ":{"ha":478,"x_min":36,"x_max":422,"o":"m 422 0 l 374 -10 l 354 67 q 186 -12 290 -12 q 81 22 125 -12 q 36 118 36 57 q 343 294 36 294 l 351 294 l 351 303 q 331 383 351 349 q 222 439 299 439 q 72 407 174 439 l 65 457 q 226 482 143 482 q 406 285 406 482 l 406 115 q 422 0 406 57 m 351 153 l 351 247 q 93 128 93 247 q 121 58 93 82 q 190 33 149 33 q 344 126 300 33 q 351 153 351 142 m 363 629 q 329 568 356 592 q 239 535 293 535 q 147 568 185 535 q 114 629 122 592 l 163 629 q 178 603 168 614 q 239 578 200 578 q 299 603 278 578 q 315 629 310 614 l 363 629 m 322 758 q 287 692 322 719 q 252 649 252 664 l 213 649 q 249 707 215 682 q 283 758 283 732 q 271 785 283 776 q 240 794 260 794 q 183 759 207 794 l 160 778 q 246 828 187 828 q 301 810 280 828 q 322 758 322 792 z "},"Ẵ":{"ha":556,"x_min":0,"x_max":556,"o":"m 556 0 l 496 0 l 419 213 l 135 213 l 60 0 l 0 0 l 250 671 l 306 671 l 556 0 m 403 258 l 278 611 l 151 258 l 403 258 m 401 818 q 368 757 394 781 q 278 724 332 724 q 186 757 224 724 q 153 818 161 781 l 201 818 q 217 792 207 803 q 278 767 239 767 q 338 792 317 767 q 354 818 349 803 l 401 818 m 397 950 q 328 867 394 867 q 299 874 314 867 q 269 890 283 881 q 241 906 254 899 q 218 913 228 913 q 197 900 207 913 q 186 864 188 888 l 151 864 q 172 926 153 906 q 219 947 190 947 q 249 940 235 947 q 278 924 264 933 q 307 908 293 915 q 335 901 321 901 q 363 950 358 901 l 397 950 z "},"ẵ":{"ha":478,"x_min":36,"x_max":422,"o":"m 422 0 l 374 -10 l 354 67 q 186 -12 290 -12 q 81 22 125 -12 q 36 118 36 57 q 343 294 36 294 l 351 294 l 351 303 q 331 383 351 349 q 222 439 299 439 q 72 407 174 439 l 65 457 q 226 482 143 482 q 406 285 406 482 l 406 115 q 422 0 406 57 m 351 153 l 351 247 q 93 128 93 247 q 121 58 93 82 q 190 33 149 33 q 344 126 300 33 q 351 153 351 142 m 363 629 q 329 568 356 592 q 239 535 293 535 q 147 568 185 535 q 114 629 122 592 l 163 629 q 178 603 168 614 q 239 578 200 578 q 299 603 278 578 q 315 629 310 614 l 363 629 m 358 758 q 289 675 356 675 q 260 682 275 675 q 230 698 244 689 q 202 714 215 707 q 179 721 189 721 q 158 708 168 721 q 147 672 149 696 l 113 672 q 133 735 114 714 q 181 756 151 756 q 210 749 196 756 q 240 733 225 742 q 268 717 254 724 q 296 710 282 710 q 324 758 319 710 l 358 758 z "},"Ặ":{"ha":556,"x_min":0,"x_max":556,"o":"m 556 0 l 496 0 l 419 213 l 135 213 l 60 0 l 0 0 l 250 671 l 306 671 l 556 0 m 403 258 l 278 611 l 151 258 l 403 258 m 318 -107 q 307 -135 318 -124 q 278 -147 296 -147 q 249 -135 261 -147 q 238 -107 238 -124 q 249 -81 238 -93 q 278 -68 261 -68 q 307 -81 296 -68 q 318 -107 318 -93 m 401 818 q 368 757 394 781 q 278 724 332 724 q 186 757 224 724 q 153 818 161 781 l 201 818 q 217 792 207 803 q 278 767 239 767 q 338 792 317 767 q 354 818 349 803 l 401 818 z "},"ặ":{"ha":478,"x_min":36,"x_max":422,"o":"m 422 0 l 374 -10 l 354 67 q 186 -12 290 -12 q 81 22 125 -12 q 36 118 36 57 q 343 294 36 294 l 351 294 l 351 303 q 331 383 351 349 q 222 439 299 439 q 72 407 174 439 l 65 457 q 226 482 143 482 q 406 285 406 482 l 406 115 q 422 0 406 57 m 351 153 l 351 247 q 93 128 93 247 q 121 58 93 82 q 190 33 149 33 q 344 126 300 33 q 351 153 351 142 m 279 -107 q 268 -135 279 -124 q 239 -147 257 -147 q 210 -135 222 -147 q 199 -107 199 -124 q 210 -81 199 -93 q 239 -68 222 -68 q 268 -81 257 -68 q 279 -107 279 -93 m 363 629 q 329 568 356 592 q 239 535 293 535 q 147 568 185 535 q 114 629 122 592 l 163 629 q 178 603 168 614 q 239 578 200 578 q 299 603 278 578 q 315 629 310 614 l 363 629 z "},"Ẹ":{"ha":488,"x_min":75,"x_max":435,"o":"m 435 0 l 75 0 l 75 661 l 435 661 l 435 615 l 129 615 l 129 372 l 401 372 l 401 326 l 129 326 l 129 46 l 435 46 l 435 0 m 283 -107 q 272 -135 283 -124 q 243 -147 261 -147 q 215 -135 226 -147 q 203 -107 203 -124 q 215 -81 203 -93 q 243 -68 226 -68 q 272 -81 261 -68 q 283 -107 283 -93 z "},"ẹ":{"ha":519,"x_min":38,"x_max":476,"o":"m 450 67 l 454 21 q 279 -12 374 -12 q 104 54 171 -12 q 38 224 38 121 q 104 411 38 340 q 274 482 171 482 q 476 233 472 482 l 90 233 q 147 87 93 139 q 285 35 200 35 q 450 67 368 35 m 425 276 q 393 378 424 333 q 267 439 351 439 q 142 383 190 439 q 93 276 103 339 l 425 276 m 300 -107 q 289 -135 300 -124 q 260 -147 278 -147 q 231 -135 243 -147 q 219 -107 219 -124 q 231 -81 219 -93 q 260 -68 243 -68 q 289 -81 278 -68 q 300 -107 300 -93 z "},"Ẻ":{"ha":488,"x_min":75,"x_max":435,"o":"m 435 0 l 75 0 l 75 661 l 435 661 l 435 615 l 129 615 l 129 372 l 401 372 l 401 326 l 129 326 l 129 46 l 435 46 l 435 0 m 344 843 q 306 769 344 800 q 267 722 267 739 l 224 722 q 263 786 225 758 q 301 843 301 814 q 288 873 301 863 q 253 883 275 883 q 190 844 217 883 l 164 865 q 260 921 194 921 q 321 901 297 921 q 344 843 344 881 z "},"ẻ":{"ha":519,"x_min":38,"x_max":476,"o":"m 450 67 l 454 21 q 279 -12 374 -12 q 104 54 171 -12 q 38 224 38 121 q 104 411 38 340 q 274 482 171 482 q 476 233 472 482 l 90 233 q 147 87 93 139 q 285 35 200 35 q 450 67 368 35 m 425 276 q 393 378 424 333 q 267 439 351 439 q 142 383 190 439 q 93 276 103 339 l 425 276 m 342 642 q 307 575 342 603 q 272 533 272 548 l 233 533 q 268 590 234 565 q 303 642 303 615 q 291 668 303 659 q 259 678 279 678 q 203 643 227 678 l 179 662 q 265 712 207 712 q 320 693 299 712 q 342 642 342 675 z "},"Ẽ":{"ha":488,"x_min":75,"x_max":435,"o":"m 435 0 l 75 0 l 75 661 l 435 661 l 435 615 l 129 615 l 129 372 l 401 372 l 401 326 l 129 326 l 129 46 l 435 46 l 435 0 m 364 817 q 294 733 361 733 q 265 740 281 733 q 235 756 250 747 q 208 772 221 765 q 185 779 194 779 q 164 767 174 779 q 153 731 154 754 l 118 731 q 138 793 119 772 q 186 814 157 814 q 216 807 201 814 q 245 791 231 800 q 274 775 260 782 q 301 768 288 768 q 329 817 325 768 l 364 817 z "},"ẽ":{"ha":519,"x_min":38,"x_max":476,"o":"m 450 38 l 454 -8 q 279 -42 374 -42 q 104 25 171 -42 q 38 194 38 92 q 104 382 38 311 q 274 453 171 453 q 476 204 472 453 l 90 204 q 147 58 93 110 q 285 6 200 6 q 450 38 368 6 m 425 247 q 393 349 424 304 q 267 410 351 410 q 142 354 190 410 q 93 247 103 310 l 425 247 m 379 599 q 310 515 376 515 q 281 522 296 515 q 251 538 265 529 q 223 554 236 547 q 200 561 210 561 q 179 549 189 561 q 168 513 169 536 l 133 513 q 153 575 135 554 q 201 596 172 596 q 231 589 217 596 q 260 573 246 582 q 289 557 275 564 q 317 550 303 550 q 344 599 340 550 l 379 599 z "},"Ế":{"ha":488,"x_min":75,"x_max":453,"o":"m 435 0 l 75 0 l 75 661 l 435 661 l 435 615 l 129 615 l 129 372 l 401 372 l 401 326 l 129 326 l 129 46 l 435 46 l 435 0 m 263 842 l 358 733 l 307 733 l 243 806 l 179 733 l 128 733 l 224 842 l 263 842 m 381 806 l 342 806 l 405 919 l 454 907 l 381 806 z "},"ế":{"ha":519,"x_min":38,"x_max":483,"o":"m 450 67 l 454 21 q 279 -12 374 -12 q 104 54 171 -12 q 38 224 38 121 q 104 411 38 340 q 274 482 171 482 q 476 233 472 482 l 90 233 q 147 87 93 139 q 285 35 200 35 q 450 67 368 35 m 425 276 q 393 378 424 333 q 267 439 351 439 q 142 383 190 439 q 93 276 103 339 l 425 276 m 279 653 l 375 544 l 324 544 l 260 617 l 196 544 l 144 544 l 240 653 l 279 653 m 412 619 l 373 619 l 435 733 l 484 721 l 412 619 z "},"Ề":{"ha":488,"x_min":75,"x_max":435,"o":"m 435 0 l 75 0 l 75 661 l 435 661 l 435 615 l 129 615 l 129 372 l 401 372 l 401 326 l 129 326 l 129 46 l 435 46 l 435 0 m 263 842 l 358 733 l 307 733 l 243 806 l 179 733 l 128 733 l 224 842 l 263 842 m 413 806 l 375 806 l 302 907 l 351 919 l 413 806 z "},"ề":{"ha":519,"x_min":38,"x_max":476,"o":"m 450 67 l 454 21 q 279 -12 374 -12 q 104 54 171 -12 q 38 224 38 121 q 104 411 38 340 q 274 482 171 482 q 476 233 472 482 l 90 233 q 147 87 93 139 q 285 35 200 35 q 450 67 368 35 m 425 276 q 393 378 424 333 q 267 439 351 439 q 142 383 190 439 q 93 276 103 339 l 425 276 m 279 653 l 375 544 l 324 544 l 260 617 l 196 544 l 144 544 l 240 653 l 279 653 m 446 607 l 403 607 l 322 719 l 376 733 l 446 607 z "},"Ể":{"ha":488,"x_min":75,"x_max":474,"o":"m 435 0 l 75 0 l 75 661 l 435 661 l 435 615 l 129 615 l 129 372 l 401 372 l 401 326 l 129 326 l 129 46 l 435 46 l 435 0 m 263 842 l 358 733 l 307 733 l 243 806 l 179 733 l 128 733 l 224 842 l 263 842 m 475 911 q 440 845 475 872 q 405 802 405 817 l 366 802 q 402 860 367 835 q 436 911 436 885 q 424 938 436 928 q 392 947 412 947 q 336 912 360 947 l 312 931 q 399 981 340 981 q 454 963 432 981 q 475 911 475 945 z "},"ể":{"ha":519,"x_min":38,"x_max":485,"o":"m 450 67 l 454 21 q 279 -12 374 -12 q 104 54 171 -12 q 38 224 38 121 q 104 411 38 340 q 274 482 171 482 q 476 233 472 482 l 90 233 q 147 87 93 139 q 285 35 200 35 q 450 67 368 35 m 425 276 q 393 378 424 333 q 267 439 351 439 q 142 383 190 439 q 93 276 103 339 l 425 276 m 279 653 l 375 544 l 324 544 l 260 617 l 196 544 l 144 544 l 240 653 l 279 653 m 486 742 q 451 675 486 703 q 416 633 416 648 l 377 633 q 413 690 378 665 q 447 742 447 715 q 435 768 447 759 q 403 778 423 778 q 347 743 371 778 l 323 762 q 410 812 351 812 q 465 793 443 812 q 486 742 486 775 z "},"Ễ":{"ha":488,"x_min":75,"x_max":435,"o":"m 435 0 l 75 0 l 75 661 l 435 661 l 435 615 l 129 615 l 129 372 l 401 372 l 401 326 l 129 326 l 129 46 l 435 46 l 435 0 m 263 842 l 358 733 l 307 733 l 243 806 l 179 733 l 128 733 l 224 842 l 263 842 m 363 964 q 293 881 360 881 q 264 888 279 881 q 234 903 249 894 q 206 919 219 913 q 183 926 193 926 q 163 914 172 926 q 151 878 153 901 l 117 878 q 137 940 118 919 q 185 961 156 961 q 215 954 200 961 q 244 938 229 947 q 272 922 258 929 q 300 915 286 915 q 328 964 324 915 l 363 964 z "},"ễ":{"ha":519,"x_min":38,"x_max":476,"o":"m 450 67 l 454 21 q 279 -12 374 -12 q 104 54 171 -12 q 38 224 38 121 q 104 411 38 340 q 274 482 171 482 q 476 233 472 482 l 90 233 q 147 87 93 139 q 285 35 200 35 q 450 67 368 35 m 425 276 q 393 378 424 333 q 267 439 351 439 q 142 383 190 439 q 93 276 103 339 l 425 276 m 279 653 l 375 544 l 324 544 l 260 617 l 196 544 l 144 544 l 240 653 l 279 653 m 379 774 q 310 690 376 690 q 281 697 296 690 q 251 713 265 704 q 223 729 236 722 q 200 736 210 736 q 179 724 189 736 q 168 688 169 711 l 133 688 q 153 750 135 729 q 201 771 172 771 q 231 764 217 771 q 260 748 246 757 q 289 732 275 739 q 317 725 303 725 q 344 774 340 725 l 379 774 z "},"Ệ":{"ha":488,"x_min":75,"x_max":435,"o":"m 435 0 l 75 0 l 75 661 l 435 661 l 435 615 l 129 615 l 129 372 l 401 372 l 401 326 l 129 326 l 129 46 l 435 46 l 435 0 m 283 -107 q 272 -135 283 -124 q 243 -147 261 -147 q 215 -135 226 -147 q 203 -107 203 -124 q 215 -81 203 -93 q 243 -68 226 -68 q 272 -81 261 -68 q 283 -107 283 -93 m 263 842 l 358 733 l 307 733 l 243 806 l 179 733 l 128 733 l 224 842 l 263 842 z "},"ệ":{"ha":519,"x_min":38,"x_max":476,"o":"m 450 67 l 454 21 q 279 -12 374 -12 q 104 54 171 -12 q 38 224 38 121 q 104 411 38 340 q 274 482 171 482 q 476 233 472 482 l 90 233 q 147 87 93 139 q 285 35 200 35 q 450 67 368 35 m 425 276 q 393 378 424 333 q 267 439 351 439 q 142 383 190 439 q 93 276 103 339 l 425 276 m 300 -107 q 289 -135 300 -124 q 260 -147 278 -147 q 231 -135 243 -147 q 219 -107 219 -124 q 231 -81 219 -93 q 260 -68 243 -68 q 289 -81 278 -68 q 300 -107 300 -93 m 279 653 l 375 544 l 324 544 l 260 617 l 196 544 l 144 544 l 240 653 l 279 653 z "},"Ỉ":{"ha":204,"x_min":22,"x_max":203,"o":"m 129 0 l 75 0 l 75 661 l 129 661 l 129 0 m 203 843 q 164 769 203 800 q 125 722 125 739 l 82 722 q 122 786 83 758 q 160 843 160 814 q 147 873 160 863 q 111 883 133 883 q 49 844 75 883 l 22 865 q 118 921 53 921 q 179 901 156 921 q 203 843 203 881 z "},"ỉ":{"ha":199,"x_min":19,"x_max":200,"o":"m 200 654 q 161 581 200 611 q 122 533 122 550 l 79 533 q 119 597 81 569 q 157 654 157 625 q 144 684 157 674 q 108 694 131 694 q 46 656 72 694 l 19 676 q 115 732 50 732 q 176 712 153 732 q 200 654 200 692 m 125 0 l 72 0 l 72 472 l 125 472 l 125 0 z "},"Ị":{"ha":204,"x_min":63,"x_max":143,"o":"m 129 0 l 75 0 l 75 661 l 129 661 l 129 0 m 143 -107 q 132 -135 143 -124 q 103 -147 121 -147 q 74 -135 86 -147 q 63 -107 63 -124 q 74 -81 63 -93 q 103 -68 86 -68 q 132 -81 121 -68 q 143 -107 143 -93 z "},"ị":{"ha":199,"x_min":54,"x_max":142,"o":"m 126 0 l 72 0 l 72 472 l 126 472 l 126 0 m 142 615 q 129 584 142 596 q 97 572 117 572 q 66 584 78 572 q 54 615 54 596 q 66 647 54 635 q 97 660 78 660 q 129 647 117 660 q 142 615 142 635 m 140 -107 q 129 -135 140 -124 q 100 -147 118 -147 q 72 -135 83 -147 q 60 -107 60 -124 q 72 -81 60 -93 q 100 -68 83 -68 q 129 -81 118 -68 q 140 -107 140 -93 z "},"Ọ":{"ha":675,"x_min":31,"x_max":644,"o":"m 644 329 q 559 83 644 181 q 338 -14 474 -14 q 116 83 201 -14 q 31 329 31 181 q 116 575 31 478 q 338 672 201 672 q 559 575 474 672 q 644 329 644 478 m 590 329 q 519 538 590 451 q 338 625 449 625 q 156 538 226 625 q 85 329 85 451 q 156 120 85 207 q 338 33 226 33 q 519 120 449 33 q 590 329 590 207 m 378 -107 q 367 -135 378 -124 q 338 -147 356 -147 q 309 -135 321 -147 q 297 -107 297 -124 q 309 -81 297 -93 q 338 -68 321 -68 q 367 -81 356 -68 q 378 -107 378 -93 z "},"ọ":{"ha":553,"x_min":39,"x_max":514,"o":"m 514 235 q 449 58 514 131 q 276 -14 383 -14 q 104 58 169 -14 q 39 235 39 131 q 104 410 39 339 q 276 482 169 482 q 449 410 383 482 q 514 235 514 339 m 461 235 q 409 378 461 321 q 276 436 357 436 q 144 378 196 436 q 92 235 92 321 q 144 90 92 149 q 276 32 196 32 q 409 90 357 32 q 461 235 461 149 m 317 -107 q 306 -135 317 -124 q 276 -147 294 -147 q 248 -135 260 -147 q 236 -107 236 -124 q 248 -81 236 -93 q 276 -68 260 -68 q 306 -81 294 -68 q 317 -107 317 -93 z "},"Ỏ":{"ha":675,"x_min":31,"x_max":644,"o":"m 644 329 q 559 83 644 181 q 338 -14 474 -14 q 116 83 201 -14 q 31 329 31 181 q 116 575 31 478 q 338 672 201 672 q 559 575 474 672 q 644 329 644 478 m 590 329 q 519 538 590 451 q 338 625 449 625 q 156 538 226 625 q 85 329 85 451 q 156 120 85 207 q 338 33 226 33 q 519 120 449 33 q 590 329 590 207 m 438 843 q 399 769 438 800 q 360 722 360 739 l 317 722 q 356 786 318 758 q 394 843 394 814 q 381 873 394 863 q 346 883 368 883 q 283 844 310 883 l 257 865 q 353 921 288 921 q 414 901 390 921 q 438 843 438 881 z "},"ỏ":{"ha":553,"x_min":39,"x_max":514,"o":"m 514 235 q 449 58 514 131 q 276 -14 383 -14 q 104 58 169 -14 q 39 235 39 131 q 104 410 39 339 q 276 482 169 482 q 449 410 383 482 q 514 235 514 339 m 461 235 q 409 378 461 321 q 276 436 357 436 q 144 378 196 436 q 92 235 92 321 q 144 90 92 149 q 276 32 196 32 q 409 90 357 32 q 461 235 461 149 m 376 654 q 338 581 376 611 q 299 533 299 550 l 256 533 q 295 597 257 569 q 333 654 333 625 q 320 684 333 674 q 285 694 307 694 q 222 656 249 694 l 196 676 q 292 732 226 732 q 353 712 329 732 q 376 654 376 692 z "},"Ố":{"ha":675,"x_min":31,"x_max":644,"o":"m 644 329 q 559 83 644 181 q 338 -14 474 -14 q 116 83 201 -14 q 31 329 31 181 q 116 575 31 478 q 338 672 201 672 q 559 575 474 672 q 644 329 644 478 m 590 329 q 519 538 590 451 q 338 625 449 625 q 156 538 226 625 q 85 329 85 451 q 156 120 85 207 q 338 33 226 33 q 519 120 449 33 q 590 329 590 207 m 357 842 l 453 733 l 401 733 l 338 806 l 274 733 l 222 733 l 318 842 l 357 842 m 505 806 l 466 806 l 528 919 l 577 907 l 505 806 z "},"ố":{"ha":553,"x_min":39,"x_max":514,"o":"m 514 235 q 449 58 514 131 q 276 -14 383 -14 q 104 58 169 -14 q 39 235 39 131 q 104 410 39 339 q 276 482 169 482 q 449 410 383 482 q 514 235 514 339 m 461 235 q 409 378 461 321 q 276 436 357 436 q 144 378 196 436 q 92 235 92 321 q 144 90 92 149 q 276 32 196 32 q 409 90 357 32 q 461 235 461 149 m 296 653 l 392 544 l 340 544 l 276 617 l 213 544 l 161 544 l 257 653 l 296 653 m 432 619 l 394 619 l 456 733 l 505 721 l 432 619 z "},"Ồ":{"ha":675,"x_min":31,"x_max":644,"o":"m 644 329 q 559 83 644 181 q 338 -14 474 -14 q 116 83 201 -14 q 31 329 31 181 q 116 575 31 478 q 338 672 201 672 q 559 575 474 672 q 644 329 644 478 m 590 329 q 519 538 590 451 q 338 625 449 625 q 156 538 226 625 q 85 329 85 451 q 156 120 85 207 q 338 33 226 33 q 519 120 449 33 q 590 329 590 207 m 357 842 l 453 733 l 401 733 l 338 806 l 274 733 l 222 733 l 318 842 l 357 842 m 534 806 l 495 806 l 423 907 l 472 919 l 534 806 z "},"ồ":{"ha":553,"x_min":39,"x_max":514,"o":"m 514 235 q 449 58 514 131 q 276 -14 383 -14 q 104 58 169 -14 q 39 235 39 131 q 104 410 39 339 q 276 482 169 482 q 449 410 383 482 q 514 235 514 339 m 461 235 q 409 378 461 321 q 276 436 357 436 q 144 378 196 436 q 92 235 92 321 q 144 90 92 149 q 276 32 196 32 q 409 90 357 32 q 461 235 461 149 m 296 653 l 392 544 l 340 544 l 276 617 l 213 544 l 161 544 l 257 653 l 296 653 m 465 619 l 426 619 l 353 721 l 402 733 l 465 619 z "},"Ổ":{"ha":675,"x_min":31,"x_max":644,"o":"m 644 329 q 559 83 644 181 q 338 -14 474 -14 q 116 83 201 -14 q 31 329 31 181 q 116 575 31 478 q 338 672 201 672 q 559 575 474 672 q 644 329 644 478 m 590 329 q 519 538 590 451 q 338 625 449 625 q 156 538 226 625 q 85 329 85 451 q 156 120 85 207 q 338 33 226 33 q 519 120 449 33 q 590 329 590 207 m 357 842 l 453 733 l 401 733 l 338 806 l 274 733 l 222 733 l 318 842 l 357 842 m 575 911 q 540 845 575 872 q 505 802 505 817 l 466 802 q 502 860 467 835 q 536 911 536 885 q 524 938 536 928 q 492 947 512 947 q 436 912 460 947 l 412 931 q 499 981 440 981 q 554 963 532 981 q 575 911 575 945 z "},"ổ":{"ha":553,"x_min":39,"x_max":514,"o":"m 514 235 q 449 58 514 131 q 276 -14 383 -14 q 104 58 169 -14 q 39 235 39 131 q 104 410 39 339 q 276 482 169 482 q 449 410 383 482 q 514 235 514 339 m 461 235 q 409 378 461 321 q 276 436 357 436 q 144 378 196 436 q 92 235 92 321 q 144 90 92 149 q 276 32 196 32 q 409 90 357 32 q 461 235 461 149 m 296 653 l 392 544 l 340 544 l 276 617 l 213 544 l 161 544 l 257 653 l 296 653 m 498 742 q 463 675 498 703 q 428 633 428 648 l 390 633 q 425 690 391 665 q 460 742 460 715 q 448 768 460 759 q 416 778 436 778 q 360 743 383 778 l 336 762 q 422 812 363 812 q 477 793 456 812 q 498 742 498 775 z "},"Ỗ":{"ha":675,"x_min":31,"x_max":644,"o":"m 644 329 q 559 83 644 181 q 338 -14 474 -14 q 116 83 201 -14 q 31 329 31 181 q 116 575 31 478 q 338 672 201 672 q 559 575 474 672 q 644 329 644 478 m 590 329 q 519 538 590 451 q 338 625 449 625 q 156 538 226 625 q 85 329 85 451 q 156 120 85 207 q 338 33 226 33 q 519 120 449 33 q 590 329 590 207 m 357 842 l 453 733 l 401 733 l 338 806 l 274 733 l 222 733 l 318 842 l 357 842 m 457 964 q 388 881 454 881 q 358 888 374 881 q 328 903 343 894 q 301 919 314 913 q 278 926 288 926 q 257 914 267 926 q 246 878 247 901 l 211 878 q 231 940 213 919 q 279 961 250 961 q 309 954 294 961 q 338 938 324 947 q 367 922 353 929 q 394 915 381 915 q 422 964 418 915 l 457 964 z "},"ỗ":{"ha":553,"x_min":39,"x_max":514,"o":"m 514 235 q 449 58 514 131 q 276 -14 383 -14 q 104 58 169 -14 q 39 235 39 131 q 104 410 39 339 q 276 482 169 482 q 449 410 383 482 q 514 235 514 339 m 461 235 q 409 378 461 321 q 276 436 357 436 q 144 378 196 436 q 92 235 92 321 q 144 90 92 149 q 276 32 196 32 q 409 90 357 32 q 461 235 461 149 m 296 653 l 392 544 l 340 544 l 276 617 l 213 544 l 161 544 l 257 653 l 296 653 m 396 774 q 326 690 393 690 q 297 697 313 690 q 267 713 282 704 q 240 729 253 722 q 217 736 226 736 q 196 724 206 736 q 185 688 186 711 l 150 688 q 170 750 151 729 q 218 771 189 771 q 248 764 233 771 q 277 748 263 757 q 306 732 292 739 q 333 725 319 725 q 361 774 357 725 l 396 774 z "},"Ộ":{"ha":675,"x_min":31,"x_max":644,"o":"m 644 329 q 559 83 644 181 q 338 -14 474 -14 q 116 83 201 -14 q 31 329 31 181 q 116 575 31 478 q 338 672 201 672 q 559 575 474 672 q 644 329 644 478 m 590 329 q 519 538 590 451 q 338 625 449 625 q 156 538 226 625 q 85 329 85 451 q 156 120 85 207 q 338 33 226 33 q 519 120 449 33 q 590 329 590 207 m 378 -107 q 367 -135 378 -124 q 338 -147 356 -147 q 309 -135 321 -147 q 297 -107 297 -124 q 309 -81 297 -93 q 338 -68 321 -68 q 367 -81 356 -68 q 378 -107 378 -93 m 357 842 l 453 733 l 401 733 l 338 806 l 274 733 l 222 733 l 318 842 l 357 842 z "},"ộ":{"ha":553,"x_min":39,"x_max":514,"o":"m 514 235 q 449 58 514 131 q 276 -14 383 -14 q 104 58 169 -14 q 39 235 39 131 q 104 410 39 339 q 276 482 169 482 q 449 410 383 482 q 514 235 514 339 m 461 235 q 409 378 461 321 q 276 436 357 436 q 144 378 196 436 q 92 235 92 321 q 144 90 92 149 q 276 32 196 32 q 409 90 357 32 q 461 235 461 149 m 317 -107 q 306 -135 317 -124 q 276 -147 294 -147 q 248 -135 260 -147 q 236 -107 236 -124 q 248 -81 236 -93 q 276 -68 260 -68 q 306 -81 294 -68 q 317 -107 317 -93 m 296 653 l 392 544 l 340 544 l 276 617 l 213 544 l 161 544 l 257 653 l 296 653 z "},"Ớ":{"ha":675,"x_min":31,"x_max":644,"o":"m 644 329 q 559 83 644 181 q 338 -14 474 -14 q 116 83 201 -14 q 31 329 31 181 q 116 575 31 478 q 338 672 201 672 q 542 593 458 672 q 600 724 600 656 l 644 724 q 625 651 644 693 q 564 569 601 603 q 644 329 644 474 m 590 329 q 519 538 590 451 q 338 625 449 625 q 156 538 226 625 q 85 329 85 451 q 156 120 85 207 q 338 33 226 33 q 519 120 449 33 q 590 329 590 207 m 313 731 l 269 731 l 339 857 l 393 843 l 313 731 z "},"ớ":{"ha":553,"x_min":39,"x_max":536,"o":"m 514 235 q 449 58 514 131 q 276 -14 383 -14 q 104 58 169 -14 q 39 235 39 131 q 104 410 39 339 q 276 482 169 482 q 436 422 369 482 q 490 553 486 469 l 536 553 q 458 399 533 468 q 514 235 514 329 m 461 235 q 409 378 461 321 q 276 436 357 436 q 144 378 196 436 q 92 235 92 321 q 144 90 92 149 q 276 32 196 32 q 409 90 357 32 q 461 235 461 149 m 251 542 l 208 542 l 278 668 l 332 654 l 251 542 z "},"Ờ":{"ha":675,"x_min":31,"x_max":644,"o":"m 644 329 q 559 83 644 181 q 338 -14 474 -14 q 116 83 201 -14 q 31 329 31 181 q 116 575 31 478 q 338 672 201 672 q 542 593 458 672 q 600 724 600 656 l 644 724 q 625 651 644 693 q 564 569 601 603 q 644 329 644 474 m 590 329 q 519 538 590 451 q 338 625 449 625 q 156 538 226 625 q 85 329 85 451 q 156 120 85 207 q 338 33 226 33 q 519 120 449 33 q 590 329 590 207 m 407 731 l 364 731 l 283 843 l 338 857 l 407 731 z "},"ờ":{"ha":553,"x_min":39,"x_max":536,"o":"m 514 235 q 449 58 514 131 q 276 -14 383 -14 q 104 58 169 -14 q 39 235 39 131 q 104 410 39 339 q 276 482 169 482 q 436 422 369 482 q 490 553 486 469 l 536 553 q 458 399 533 468 q 514 235 514 329 m 461 235 q 409 378 461 321 q 276 436 357 436 q 144 378 196 436 q 92 235 92 321 q 144 90 92 149 q 276 32 196 32 q 409 90 357 32 q 461 235 461 149 m 346 542 l 303 542 l 222 654 l 276 668 l 346 542 z "},"Ở":{"ha":675,"x_min":31,"x_max":644,"o":"m 644 329 q 559 83 644 181 q 338 -14 474 -14 q 116 83 201 -14 q 31 329 31 181 q 116 575 31 478 q 338 672 201 672 q 542 593 458 672 q 600 724 600 656 l 644 724 q 625 651 644 693 q 564 569 601 603 q 644 329 644 474 m 590 329 q 519 538 590 451 q 338 625 449 625 q 156 538 226 625 q 85 329 85 451 q 156 120 85 207 q 338 33 226 33 q 519 120 449 33 q 590 329 590 207 m 438 843 q 399 769 438 800 q 360 722 360 739 l 317 722 q 356 786 318 758 q 394 843 394 814 q 381 873 394 863 q 346 883 368 883 q 283 844 310 883 l 257 865 q 353 921 288 921 q 414 901 390 921 q 438 843 438 881 z "},"ở":{"ha":553,"x_min":39,"x_max":536,"o":"m 514 235 q 449 58 514 131 q 276 -14 383 -14 q 104 58 169 -14 q 39 235 39 131 q 104 410 39 339 q 276 482 169 482 q 436 422 369 482 q 490 553 486 469 l 536 553 q 458 399 533 468 q 514 235 514 329 m 461 235 q 409 378 461 321 q 276 436 357 436 q 144 378 196 436 q 92 235 92 321 q 144 90 92 149 q 276 32 196 32 q 409 90 357 32 q 461 235 461 149 m 358 642 q 323 575 358 603 q 288 533 288 548 l 249 533 q 285 590 251 565 q 319 642 319 615 q 308 668 319 659 q 276 678 296 678 q 219 643 243 678 l 196 662 q 282 712 223 712 q 337 693 316 712 q 358 642 358 675 z "},"Ỡ":{"ha":675,"x_min":31,"x_max":644,"o":"m 644 329 q 559 83 644 181 q 338 -14 474 -14 q 116 83 201 -14 q 31 329 31 181 q 116 575 31 478 q 338 672 201 672 q 542 593 458 672 q 600 724 600 656 l 644 724 q 625 651 644 693 q 564 569 601 603 q 644 329 644 474 m 590 329 q 519 538 590 451 q 338 625 449 625 q 156 538 226 625 q 85 329 85 451 q 156 120 85 207 q 338 33 226 33 q 519 120 449 33 q 590 329 590 207 m 457 817 q 388 733 454 733 q 358 740 374 733 q 328 756 343 747 q 301 772 314 765 q 278 779 288 779 q 257 767 267 779 q 246 731 247 754 l 211 731 q 231 793 213 772 q 279 814 250 814 q 309 807 294 814 q 338 791 324 800 q 367 775 353 782 q 394 768 381 768 q 422 817 418 768 l 457 817 z "},"ỡ":{"ha":553,"x_min":39,"x_max":536,"o":"m 514 235 q 449 58 514 131 q 276 -14 383 -14 q 104 58 169 -14 q 39 235 39 131 q 104 410 39 339 q 276 482 169 482 q 436 422 369 482 q 490 553 486 469 l 536 553 q 458 399 533 468 q 514 235 514 329 m 461 235 q 409 378 461 321 q 276 436 357 436 q 144 378 196 436 q 92 235 92 321 q 144 90 92 149 q 276 32 196 32 q 409 90 357 32 q 461 235 461 149 m 396 628 q 326 544 393 544 q 297 551 313 544 q 267 567 282 558 q 240 583 253 576 q 217 590 226 590 q 196 578 206 590 q 185 542 186 565 l 150 542 q 170 604 151 583 q 218 625 189 625 q 248 618 233 625 q 277 602 263 611 q 306 586 292 593 q 333 579 319 579 q 361 628 357 579 l 396 628 z "},"Ợ":{"ha":675,"x_min":31,"x_max":644,"o":"m 644 329 q 559 83 644 181 q 338 -14 474 -14 q 116 83 201 -14 q 31 329 31 181 q 116 575 31 478 q 338 672 201 672 q 542 593 458 672 q 600 724 600 656 l 644 724 q 625 651 644 693 q 564 569 601 603 q 644 329 644 474 m 590 329 q 519 538 590 451 q 338 625 449 625 q 156 538 226 625 q 85 329 85 451 q 156 120 85 207 q 338 33 226 33 q 519 120 449 33 q 590 329 590 207 m 378 -107 q 367 -135 378 -124 q 338 -147 356 -147 q 309 -135 321 -147 q 297 -107 297 -124 q 309 -81 297 -93 q 338 -68 321 -68 q 367 -81 356 -68 q 378 -107 378 -93 z "},"ợ":{"ha":553,"x_min":39,"x_max":536,"o":"m 514 235 q 449 58 514 131 q 276 -14 383 -14 q 104 58 169 -14 q 39 235 39 131 q 104 410 39 339 q 276 482 169 482 q 436 422 369 482 q 490 553 486 469 l 536 553 q 458 399 533 468 q 514 235 514 329 m 461 235 q 409 378 461 321 q 276 436 357 436 q 144 378 196 436 q 92 235 92 321 q 144 90 92 149 q 276 32 196 32 q 409 90 357 32 q 461 235 461 149 m 317 -107 q 306 -135 317 -124 q 276 -147 294 -147 q 248 -135 260 -147 q 236 -107 236 -124 q 248 -81 236 -93 q 276 -68 260 -68 q 306 -81 294 -68 q 317 -107 317 -93 z "},"Ụ":{"ha":647,"x_min":75,"x_max":572,"o":"m 572 279 q 324 -12 572 -12 q 75 279 75 -12 l 75 661 l 129 661 l 129 281 q 183 92 129 150 q 324 33 236 33 q 466 92 413 33 q 518 281 519 150 l 518 661 l 572 661 l 572 279 m 364 -107 q 353 -135 364 -124 q 324 -147 342 -147 q 295 -135 307 -147 q 283 -107 283 -124 q 295 -81 283 -93 q 324 -68 307 -68 q 353 -81 342 -68 q 364 -107 364 -93 z "},"ụ":{"ha":542,"x_min":72,"x_max":493,"o":"m 493 1 l 442 -10 q 419 82 425 38 q 242 -12 358 -12 q 72 207 72 -12 l 72 472 l 126 472 l 126 217 q 254 35 126 35 q 363 74 314 35 q 415 186 415 118 l 415 472 l 469 472 l 469 115 q 493 1 469 64 m 311 -107 q 300 -135 311 -124 q 271 -147 289 -147 q 242 -135 254 -147 q 231 -107 231 -124 q 242 -81 231 -93 q 271 -68 254 -68 q 300 -81 289 -68 q 311 -107 311 -93 z "},"Ủ":{"ha":647,"x_min":75,"x_max":572,"o":"m 572 279 q 324 -12 572 -12 q 75 279 75 -12 l 75 661 l 129 661 l 129 281 q 183 92 129 150 q 324 33 236 33 q 466 92 413 33 q 518 281 519 150 l 518 661 l 572 661 l 572 279 m 424 843 q 385 769 424 800 q 346 722 346 739 l 303 722 q 342 786 304 758 q 381 843 381 814 q 367 873 381 863 q 332 883 354 883 q 269 844 296 883 l 243 865 q 339 921 274 921 q 400 901 376 921 q 424 843 424 881 z "},"ủ":{"ha":542,"x_min":72,"x_max":493,"o":"m 493 1 l 442 -10 q 419 82 425 38 q 242 -12 358 -12 q 72 207 72 -12 l 72 472 l 126 472 l 126 217 q 254 35 126 35 q 363 74 314 35 q 415 186 415 118 l 415 472 l 469 472 l 469 115 q 493 1 469 64 m 353 642 q 318 575 353 603 q 283 533 283 548 l 244 533 q 280 590 245 565 q 314 642 314 615 q 302 668 314 659 q 270 678 290 678 q 214 643 238 678 l 190 662 q 276 712 218 712 q 331 693 310 712 q 353 642 353 675 z "},"Ứ":{"ha":647,"x_min":75,"x_max":683,"o":"m 572 279 q 324 -12 572 -12 q 75 279 75 -12 l 75 661 l 129 661 l 129 281 q 183 92 129 150 q 324 33 236 33 q 466 92 413 33 q 518 281 519 150 l 518 661 l 572 661 l 572 600 q 639 724 635 654 l 683 724 q 572 558 671 625 l 572 279 m 331 731 l 288 731 l 357 857 l 411 843 l 331 731 z "},"ứ":{"ha":518,"x_min":72,"x_max":575,"o":"m 493 1 l 442 -10 q 419 82 425 38 q 242 -12 358 -12 q 72 207 72 -12 l 72 472 l 126 472 l 126 217 q 254 35 126 35 q 363 74 314 35 q 415 186 415 118 l 415 472 l 469 472 l 469 415 q 531 553 525 468 l 575 553 q 469 376 565 439 l 469 115 q 493 1 469 64 m 265 542 l 222 542 l 292 668 l 346 654 l 265 542 z "},"Ừ":{"ha":647,"x_min":75,"x_max":683,"o":"m 572 279 q 324 -12 572 -12 q 75 279 75 -12 l 75 661 l 129 661 l 129 281 q 183 92 129 150 q 324 33 236 33 q 466 92 413 33 q 518 281 519 150 l 518 661 l 572 661 l 572 600 q 639 724 635 654 l 683 724 q 572 558 671 625 l 572 279 m 374 731 l 331 731 l 250 843 l 304 857 l 374 731 z "},"ừ":{"ha":518,"x_min":72,"x_max":575,"o":"m 493 1 l 442 -10 q 419 82 425 38 q 242 -12 358 -12 q 72 207 72 -12 l 72 472 l 126 472 l 126 217 q 254 35 126 35 q 363 74 314 35 q 415 186 415 118 l 415 472 l 469 472 l 469 415 q 531 553 525 468 l 575 553 q 469 376 565 439 l 469 115 q 493 1 469 64 m 301 542 l 258 542 l 178 654 l 232 668 l 301 542 z "},"Ử":{"ha":647,"x_min":75,"x_max":683,"o":"m 572 279 q 324 -12 572 -12 q 75 279 75 -12 l 75 661 l 129 661 l 129 281 q 183 92 129 150 q 324 33 236 33 q 466 92 413 33 q 518 281 519 150 l 518 661 l 572 661 l 572 600 q 639 724 635 654 l 683 724 q 572 558 671 625 l 572 279 m 415 843 q 376 769 415 800 q 338 722 338 739 l 294 722 q 334 786 296 758 q 372 843 372 814 q 359 873 372 863 q 324 883 346 883 q 261 844 288 883 l 235 865 q 331 921 265 921 q 392 901 368 921 q 415 843 415 881 z "},"ử":{"ha":518,"x_min":72,"x_max":575,"o":"m 493 1 l 442 -10 q 419 82 425 38 q 242 -12 358 -12 q 72 207 72 -12 l 72 472 l 126 472 l 126 217 q 254 35 126 35 q 363 74 314 35 q 415 186 415 118 l 415 472 l 469 472 l 469 415 q 531 553 525 468 l 575 553 q 469 376 565 439 l 469 115 q 493 1 469 64 m 354 642 q 319 575 354 603 q 284 533 284 548 l 245 533 q 281 590 247 565 q 315 642 315 615 q 303 668 315 659 q 272 678 292 678 q 215 643 239 678 l 192 662 q 278 712 219 712 q 333 693 312 712 q 354 642 354 675 z "},"Ữ":{"ha":647,"x_min":75,"x_max":683,"o":"m 572 279 q 324 -12 572 -12 q 75 279 75 -12 l 75 661 l 129 661 l 129 281 q 183 92 129 150 q 324 33 236 33 q 466 92 413 33 q 518 281 519 150 l 518 661 l 572 661 l 572 600 q 639 724 635 654 l 683 724 q 572 558 671 625 l 572 279 m 450 817 q 381 733 447 733 q 351 740 367 733 q 322 756 336 747 q 294 772 307 765 q 271 779 281 779 q 250 767 260 779 q 239 731 240 754 l 204 731 q 224 793 206 772 q 272 814 243 814 q 302 807 288 814 q 331 791 317 800 q 360 775 346 782 q 388 768 374 768 q 415 817 411 768 l 450 817 z "},"ữ":{"ha":518,"x_min":72,"x_max":575,"o":"m 493 1 l 442 -10 q 419 82 425 38 q 242 -12 358 -12 q 72 207 72 -12 l 72 472 l 126 472 l 126 217 q 254 35 126 35 q 363 74 314 35 q 415 186 415 118 l 415 472 l 469 472 l 469 415 q 531 553 525 468 l 575 553 q 469 376 565 439 l 469 115 q 493 1 469 64 m 399 628 q 329 544 396 544 q 300 551 315 544 q 270 567 285 558 q 242 583 256 576 q 219 590 229 590 q 199 578 208 590 q 188 542 189 565 l 153 542 q 173 604 154 583 q 221 625 192 625 q 251 618 236 625 q 280 602 265 611 q 308 586 294 593 q 336 579 322 579 q 364 628 360 579 l 399 628 z "},"Ự":{"ha":647,"x_min":75,"x_max":683,"o":"m 572 279 q 324 -12 572 -12 q 75 279 75 -12 l 75 661 l 129 661 l 129 281 q 183 92 129 150 q 324 33 236 33 q 466 92 413 33 q 518 281 519 150 l 518 661 l 572 661 l 572 600 q 639 724 635 654 l 683 724 q 572 558 671 625 l 572 279 m 364 -107 q 353 -135 364 -124 q 324 -147 342 -147 q 295 -135 307 -147 q 283 -107 283 -124 q 295 -81 283 -93 q 324 -68 307 -68 q 353 -81 342 -68 q 364 -107 364 -93 z "},"ự":{"ha":518,"x_min":72,"x_max":575,"o":"m 493 1 l 442 -10 q 419 82 425 38 q 242 -12 358 -12 q 72 207 72 -12 l 72 472 l 126 472 l 126 217 q 254 35 126 35 q 363 74 314 35 q 415 186 415 118 l 415 472 l 469 472 l 469 415 q 531 553 525 468 l 575 553 q 469 376 565 439 l 469 115 q 493 1 469 64 m 299 -107 q 288 -135 299 -124 q 258 -147 276 -147 q 230 -135 242 -147 q 218 -107 218 -124 q 230 -81 218 -93 q 258 -68 242 -68 q 288 -81 276 -68 q 299 -107 299 -93 z "},"Ỳ":{"ha":508,"x_min":0,"x_max":508,"o":"m 508 661 l 281 292 l 281 0 l 228 0 l 228 290 l 0 661 l 63 661 l 254 338 l 446 661 l 508 661 m 299 731 l 256 731 l 175 843 l 229 857 l 299 731 z "},"ỳ":{"ha":468,"x_min":4,"x_max":464,"o":"m 256 0 q 38 -217 174 -185 l 25 -174 q 204 15 143 -147 q 200 32 204 19 l 4 472 l 63 472 l 239 72 l 404 472 l 464 472 l 256 0 m 269 542 l 226 542 l 146 654 l 200 668 l 269 542 z "},"Ỵ":{"ha":508,"x_min":0,"x_max":508,"o":"m 508 661 l 281 292 l 281 0 l 228 0 l 228 290 l 0 661 l 63 661 l 254 338 l 446 661 l 508 661 m 294 -107 q 283 -135 294 -124 q 254 -147 272 -147 q 226 -135 238 -147 q 214 -107 214 -124 q 226 -81 214 -93 q 254 -68 238 -68 q 283 -81 272 -68 q 294 -107 294 -93 z "},"ỵ":{"ha":468,"x_min":4,"x_max":464,"o":"m 256 0 q 38 -217 174 -185 l 25 -174 q 204 15 143 -147 q 200 32 204 19 l 4 472 l 63 472 l 239 72 l 404 472 l 464 472 l 256 0 m 369 -107 q 358 -135 369 -124 q 329 -147 347 -147 q 301 -135 313 -147 q 289 -107 289 -124 q 301 -81 289 -93 q 329 -68 313 -68 q 358 -81 347 -68 q 369 -107 369 -93 z "},"Ỷ":{"ha":508,"x_min":0,"x_max":508,"o":"m 508 661 l 281 292 l 281 0 l 228 0 l 228 290 l 0 661 l 63 661 l 254 338 l 446 661 l 508 661 m 354 843 q 315 769 354 800 q 276 722 276 739 l 233 722 q 273 786 235 758 q 311 843 311 814 q 298 873 311 863 q 263 883 285 883 q 200 844 226 883 l 174 865 q 269 921 204 921 q 331 901 307 921 q 354 843 354 881 z "},"ỷ":{"ha":468,"x_min":4,"x_max":464,"o":"m 256 0 q 38 -217 174 -185 l 25 -174 q 204 15 143 -147 q 200 32 204 19 l 4 472 l 63 472 l 239 72 l 404 472 l 464 472 l 256 0 m 315 642 q 280 575 315 603 q 245 533 245 548 l 206 533 q 242 590 208 565 q 276 642 276 615 q 265 668 276 659 q 233 678 253 678 q 176 643 200 678 l 153 662 q 239 712 180 712 q 294 693 273 712 q 315 642 315 675 z "},"Ỹ":{"ha":508,"x_min":0,"x_max":508,"o":"m 508 661 l 281 292 l 281 0 l 228 0 l 228 290 l 0 661 l 63 661 l 254 338 l 446 661 l 508 661 m 374 817 q 304 733 371 733 q 275 740 290 733 q 245 756 260 747 q 217 772 231 765 q 194 779 204 779 q 174 767 183 779 q 163 731 164 754 l 128 731 q 148 793 129 772 q 196 814 167 814 q 226 807 211 814 q 255 791 240 800 q 283 775 269 782 q 311 768 297 768 q 339 817 335 768 l 374 817 z "},"ỹ":{"ha":468,"x_min":4,"x_max":464,"o":"m 256 0 q 38 -217 174 -185 l 25 -174 q 204 15 143 -147 q 200 32 204 19 l 4 472 l 63 472 l 239 72 l 404 472 l 464 472 l 256 0 m 354 628 q 285 544 351 544 q 256 551 271 544 q 226 567 240 558 q 198 583 211 576 q 175 590 185 590 q 154 578 164 590 q 143 542 144 565 l 108 542 q 128 604 110 583 q 176 625 147 625 q 206 618 192 625 q 235 602 221 611 q 264 586 250 593 q 292 579 278 579 q 319 628 315 579 l 354 628 z "},"₣":{"ha":500,"x_min":-18,"x_max":457,"o":"m 324 131 l 138 131 l 138 0 l 83 0 l 83 131 l -18 131 l -18 174 l 83 174 l 83 661 l 457 661 l 457 615 l 138 615 l 138 364 l 436 364 l 436 318 l 138 318 l 138 174 l 324 174 l 324 131 z "},"₫":{"ha":557,"x_min":32,"x_max":551,"o":"m 551 592 l 485 592 l 485 115 q 489 0 485 36 l 439 0 q 436 83 436 36 q 260 -12 372 -12 q 99 58 158 -12 q 39 242 39 128 q 96 414 39 346 q 251 482 153 482 q 431 382 371 482 l 431 592 l 250 592 l 250 638 l 431 638 l 431 701 l 485 701 l 485 638 l 551 638 l 551 592 m 431 189 l 431 268 q 379 392 431 344 q 261 439 328 439 q 136 383 181 439 q 92 240 92 328 q 267 33 92 33 q 383 78 336 33 q 431 189 431 122 m 521 -150 l 32 -150 l 32 -107 l 521 -107 l 521 -150 z "},"Ă":{"ha":556,"x_min":0,"x_max":556,"o":"m 556 0 l 496 0 l 419 213 l 135 213 l 60 0 l 0 0 l 250 671 l 306 671 l 556 0 m 403 258 l 278 611 l 151 258 l 403 258 m 401 818 q 368 757 394 781 q 278 724 332 724 q 186 757 224 724 q 153 818 161 781 l 201 818 q 217 792 207 803 q 278 767 239 767 q 338 792 317 767 q 354 818 349 803 l 401 818 z "},"ă":{"ha":478,"x_min":36,"x_max":422,"o":"m 422 0 l 374 -10 l 354 67 q 186 -12 290 -12 q 81 22 125 -12 q 36 118 36 57 q 343 294 36 294 l 351 294 l 351 303 q 331 383 351 349 q 222 439 299 439 q 72 407 174 439 l 65 457 q 226 482 143 482 q 406 285 406 482 l 406 115 q 422 0 406 57 m 351 153 l 351 247 q 93 128 93 247 q 121 58 93 82 q 190 33 149 33 q 344 126 300 33 q 351 153 351 142 m 363 629 q 329 568 356 592 q 239 535 293 535 q 147 568 185 535 q 114 629 122 592 l 163 629 q 178 603 168 614 q 239 578 200 578 q 299 603 278 578 q 315 629 310 614 l 363 629 z "},"Ć":{"ha":564,"x_min":32,"x_max":526,"o":"m 510 69 l 526 25 q 346 -10 453 -10 q 122 87 211 -10 q 32 332 32 183 q 122 576 32 481 q 346 671 211 671 q 526 636 453 671 l 510 592 q 349 624 435 624 q 167 544 242 624 q 88 331 88 461 q 167 117 88 200 q 349 38 242 38 q 510 69 435 38 m 263 731 l 219 731 l 289 857 l 343 843 l 263 731 z "},"ć":{"ha":460,"x_min":38,"x_max":433,"o":"m 414 65 l 433 21 q 288 -12 374 -12 q 104 55 171 -12 q 38 235 38 122 q 104 415 38 347 q 288 482 171 482 q 433 449 374 482 l 414 404 q 285 438 363 438 q 145 383 200 438 q 90 235 90 329 q 145 86 90 140 q 285 32 200 32 q 414 65 363 32 m 211 542 l 168 542 l 238 668 l 292 654 l 211 542 z "},"Č":{"ha":564,"x_min":32,"x_max":526,"o":"m 510 69 l 526 25 q 346 -10 453 -10 q 122 87 211 -10 q 32 332 32 183 q 122 576 32 481 q 346 671 211 671 q 526 636 453 671 l 510 592 q 349 624 435 624 q 167 544 242 624 q 88 331 88 461 q 167 117 88 200 q 349 38 242 38 q 510 69 435 38 m 346 722 l 307 722 l 211 831 l 263 831 l 326 758 l 390 831 l 442 831 l 346 722 z "},"č":{"ha":460,"x_min":38,"x_max":433,"o":"m 414 65 l 433 21 q 288 -12 374 -12 q 104 55 171 -12 q 38 235 38 122 q 104 415 38 347 q 288 482 171 482 q 433 449 374 482 l 414 404 q 285 438 363 438 q 145 383 200 438 q 90 235 90 329 q 145 86 90 140 q 285 32 200 32 q 414 65 363 32 m 296 533 l 257 533 l 161 642 l 213 642 l 276 569 l 340 642 l 392 642 l 296 533 z "},"Đ":{"ha":599,"x_min":8,"x_max":558,"o":"m 558 344 q 500 94 558 178 q 265 -6 431 -6 q 75 7 203 -6 l 75 313 l 8 313 l 8 358 l 75 358 l 75 651 q 293 668 203 668 q 488 583 418 668 q 558 344 558 497 m 504 344 q 446 551 504 478 q 289 621 389 621 q 129 610 225 621 l 129 358 l 339 358 l 339 313 l 129 313 l 129 50 q 282 42 199 42 q 504 344 504 42 z "},"đ":{"ha":557,"x_min":39,"x_max":551,"o":"m 551 592 l 485 592 l 485 115 q 489 0 485 36 l 439 0 q 436 83 436 36 q 260 -12 372 -12 q 99 58 158 -12 q 39 242 39 128 q 96 414 39 346 q 251 482 153 482 q 431 382 371 482 l 431 592 l 250 592 l 250 638 l 431 638 l 431 701 l 485 701 l 485 638 l 551 638 l 551 592 m 431 189 l 431 268 q 379 392 431 344 q 261 439 328 439 q 136 383 181 439 q 92 240 92 328 q 267 33 92 33 q 383 78 336 33 q 431 189 431 122 z "},"Ğ":{"ha":590,"x_min":32,"x_max":532,"o":"m 532 331 l 532 14 q 503 22 521 22 q 421 8 503 22 q 311 -7 339 -7 q 108 85 185 -7 q 32 332 32 178 q 111 571 32 479 q 335 668 193 668 q 513 635 436 668 l 496 590 q 332 622 413 622 q 158 540 228 622 q 88 331 88 458 q 148 116 88 194 q 319 38 208 38 q 479 72 407 38 l 479 286 l 311 286 l 311 331 l 532 331 m 418 818 q 385 757 411 781 q 294 724 349 724 q 203 757 240 724 q 169 818 178 781 l 218 818 q 233 792 224 803 q 294 767 256 767 q 354 792 333 767 q 371 818 365 803 l 418 818 z "},"ğ":{"ha":432,"x_min":50,"x_max":393,"o":"m 382 317 q 334 193 382 239 q 215 147 286 147 q 142 163 172 147 q 133 122 133 142 q 246 54 133 86 q 379 -82 379 17 q 336 -180 379 -142 q 210 -218 293 -218 q 75 -181 136 -218 l 94 -136 q 214 -171 154 -171 q 299 -147 265 -171 q 332 -86 332 -124 q 222 17 332 -19 q 131 54 156 38 q 88 122 88 81 q 101 189 88 147 q 50 307 50 244 q 97 428 50 382 q 208 474 144 474 l 393 474 l 393 429 l 325 436 q 382 317 382 381 m 335 310 q 306 390 335 356 q 215 432 272 432 q 129 395 160 432 q 99 308 99 358 q 136 219 99 253 q 215 189 171 189 q 300 221 265 189 q 335 310 335 253 m 339 629 q 306 568 332 592 q 215 535 269 535 q 124 568 161 535 q 90 629 99 592 l 139 629 q 154 603 144 614 q 215 578 176 578 q 275 603 254 578 q 292 629 286 614 l 339 629 z "},"Ĩ":{"ha":204,"x_min":-24,"x_max":222,"o":"m 129 0 l 75 0 l 75 661 l 129 661 l 129 0 m 222 817 q 153 733 219 733 q 124 740 139 733 q 94 756 108 747 q 66 772 79 765 q 43 779 53 779 q 22 767 32 779 q 11 731 13 754 l -24 731 q -3 793 -22 772 q 44 814 15 814 q 74 807 60 814 q 103 791 89 800 q 132 775 118 782 q 160 768 146 768 q 188 817 183 768 l 222 817 z "},"ĩ":{"ha":199,"x_min":-26,"x_max":219,"o":"m 125 0 l 72 0 l 72 472 l 125 472 l 125 0 m 219 628 q 150 544 217 544 q 121 551 136 544 q 91 567 106 558 q 63 583 76 576 q 40 590 50 590 q 19 578 29 590 q 8 542 10 565 l -26 542 q -6 604 -25 583 q 42 625 13 625 q 72 618 57 625 q 101 602 86 611 q 129 586 115 593 q 157 579 143 579 q 185 628 181 579 l 219 628 z "},"İ":{"ha":204,"x_min":75,"x_max":169,"o":"m 129 0 l 75 0 l 75 661 l 129 661 l 129 0 m 169 750 q 156 717 169 731 q 121 704 142 704 q 88 717 101 704 q 75 750 75 731 q 88 784 75 769 q 121 799 101 799 q 156 784 142 799 q 169 750 169 769 z "},"Ş":{"ha":496,"x_min":40,"x_max":447,"o":"m 447 172 q 393 47 447 97 q 222 -12 332 -12 q 40 38 114 -12 l 63 85 q 228 33 131 33 q 350 70 306 33 q 394 168 394 107 q 360 258 394 224 q 247 317 326 292 q 63 503 63 376 q 119 625 63 576 q 268 674 176 674 q 419 639 361 674 q 396 596 407 615 q 267 628 336 628 q 147 588 189 628 q 114 510 114 554 q 261 368 114 418 q 399 296 357 335 q 447 172 447 250 m 331 -112 q 233 -193 331 -193 q 167 -175 200 -193 l 181 -144 q 235 -158 210 -158 q 288 -119 288 -158 q 200 -78 288 -85 l 254 6 l 299 6 l 261 -47 q 331 -112 331 -64 z "},"ş":{"ha":400,"x_min":44,"x_max":349,"o":"m 349 125 q 303 26 349 65 q 178 -12 258 -12 q 44 25 108 -12 l 65 69 q 182 33 132 33 q 299 121 299 33 q 189 222 299 189 q 63 350 63 261 q 103 443 63 404 q 218 482 144 482 q 335 450 292 482 l 313 406 q 208 439 271 439 q 139 415 164 439 q 114 357 114 392 q 222 264 114 301 q 349 125 349 221 m 275 -101 q 187 -174 275 -174 q 127 -158 157 -174 l 140 -130 q 188 -143 166 -143 q 236 -108 236 -143 q 157 -70 236 -76 l 206 5 l 246 5 l 212 -43 q 275 -101 275 -58 z "},"Ũ":{"ha":661,"x_min":82,"x_max":579,"o":"m 579 279 q 331 -12 579 -12 q 82 279 82 -12 l 82 661 l 136 661 l 136 281 q 190 92 136 150 q 331 33 243 33 q 473 92 419 33 q 525 281 526 150 l 525 661 l 579 661 l 579 279 m 450 817 q 381 733 447 733 q 351 740 367 733 q 322 756 336 747 q 294 772 307 765 q 271 779 281 779 q 250 767 260 779 q 239 731 240 754 l 204 731 q 224 793 206 772 q 272 814 243 814 q 302 807 288 814 q 331 791 317 800 q 360 775 346 782 q 388 768 374 768 q 415 817 411 768 l 450 817 z "},"ũ":{"ha":563,"x_min":72,"x_max":493,"o":"m 493 1 l 442 -10 q 419 82 425 38 q 242 -12 358 -12 q 72 207 72 -12 l 72 472 l 126 472 l 126 217 q 254 35 126 35 q 363 74 314 35 q 415 186 415 118 l 415 472 l 469 472 l 469 115 q 493 1 469 64 m 400 628 q 331 544 397 544 q 301 551 317 544 q 272 567 286 558 q 244 583 257 576 q 221 590 231 590 q 200 578 210 590 q 189 542 190 565 l 154 542 q 174 604 156 583 q 222 625 193 625 q 252 618 238 625 q 281 602 267 611 q 310 586 296 593 q 338 579 324 579 q 365 628 361 579 l 400 628 z "},"Ơ":{"ha":675,"x_min":31,"x_max":644,"o":"m 644 329 q 559 83 644 181 q 338 -14 474 -14 q 116 83 201 -14 q 31 329 31 181 q 116 575 31 478 q 338 672 201 672 q 542 593 458 672 q 600 724 600 656 l 644 724 q 625 651 644 693 q 564 569 601 603 q 644 329 644 474 m 590 329 q 519 538 590 451 q 338 625 449 625 q 156 538 226 625 q 85 329 85 451 q 156 120 85 207 q 338 33 226 33 q 519 120 449 33 q 590 329 590 207 z "},"ơ":{"ha":553,"x_min":39,"x_max":536,"o":"m 514 235 q 449 58 514 131 q 276 -14 383 -14 q 104 58 169 -14 q 39 235 39 131 q 104 410 39 339 q 276 482 169 482 q 436 422 369 482 q 490 553 486 469 l 536 553 q 458 399 533 468 q 514 235 514 329 m 461 235 q 409 378 461 321 q 276 436 357 436 q 144 378 196 436 q 92 235 92 321 q 144 90 92 149 q 276 32 196 32 q 409 90 357 32 q 461 235 461 149 z "},"Ư":{"ha":647,"x_min":75,"x_max":683,"o":"m 572 279 q 324 -12 572 -12 q 75 279 75 -12 l 75 661 l 129 661 l 129 281 q 183 92 129 150 q 324 33 236 33 q 466 92 413 33 q 518 281 519 150 l 518 661 l 572 661 l 572 600 q 639 724 635 654 l 683 724 q 572 558 671 625 l 572 279 z "},"ư":{"ha":518,"x_min":72,"x_max":575,"o":"m 493 1 l 442 -10 q 419 82 425 38 q 242 -12 358 -12 q 72 207 72 -12 l 72 472 l 126 472 l 126 217 q 254 35 126 35 q 363 74 314 35 q 415 186 415 118 l 415 472 l 469 472 l 469 415 q 531 553 525 468 l 575 553 q 469 376 565 439 l 469 115 q 493 1 469 64 z "},"̉":{"ha":0,"x_min":-318,"x_max":-137,"o":"m -137 654 q -176 581 -137 611 q -215 533 -215 550 l -258 533 q -219 597 -257 569 q -181 654 -181 625 q -194 684 -181 674 q -229 694 -207 694 q -292 656 -265 694 l -318 676 q -222 732 -287 732 q -161 712 -185 732 q -137 654 -137 692 z "},"̃":{"ha":0,"x_min":-271,"x_max":-25,"o":"m -25 628 q -94 544 -28 544 q -124 551 -108 544 q -153 567 -139 558 q -181 583 -168 576 q -204 590 -194 590 q -225 578 -215 590 q -236 542 -235 565 l -271 542 q -251 604 -269 583 q -203 625 -232 625 q -173 618 -187 625 q -144 602 -158 611 q -115 586 -129 593 q -87 579 -101 579 q -60 628 -64 579 l -25 628 z "},"́":{"ha":0,"x_min":-215,"x_max":-92,"o":"m -172 542 l -215 542 l -146 668 l -92 654 l -172 542 z "},"̣":{"ha":0,"x_min":-149,"x_max":-68,"o":"m -68 -107 q -79 -135 -68 -124 q -108 -147 -90 -147 q -137 -135 -125 -147 q -149 -107 -149 -124 q -137 -81 -149 -93 q -108 -68 -125 -68 q -79 -81 -90 -68 q -68 -107 -68 -93 z "},"̀":{"ha":0,"x_min":-201,"x_max":-78,"o":"m -78 542 l -121 542 l -201 654 l -147 668 l -78 542 z "},"⅛":{"ha":744,"x_min":42,"x_max":706,"o":"m 188 -12 l 142 -12 l 536 649 l 582 649 l 188 -12 m 229 258 l 60 258 l 60 292 l 121 292 l 121 571 l 68 525 l 42 558 l 140 646 q 169 607 169 643 l 169 292 l 229 292 l 229 258 m 660 104 q 640 158 660 133 q 582 185 621 182 q 524 158 543 182 q 504 104 504 135 q 526 55 504 74 q 582 36 547 36 q 638 55 615 36 q 660 104 660 74 m 647 290 q 630 328 647 311 q 582 346 613 346 q 534 328 551 346 q 517 290 517 311 q 534 255 517 271 q 582 231 551 239 q 630 255 613 238 q 647 290 647 272 m 706 107 q 673 22 706 53 q 582 -8 640 -8 q 492 22 525 -8 q 458 107 458 53 q 475 167 458 140 q 517 210 492 193 q 481 244 492 224 q 471 288 471 264 q 501 362 471 333 q 582 390 532 390 q 663 362 632 390 q 693 288 693 333 q 683 244 693 264 q 649 210 672 224 q 706 107 706 178 z "},"⅜":{"ha":744,"x_min":49,"x_max":706,"o":"m 188 -12 l 142 -12 l 536 649 l 582 649 l 188 -12 m 299 397 q 257 295 299 333 q 147 256 215 257 q 49 283 86 254 l 69 328 q 143 301 101 301 q 224 328 194 301 q 253 396 253 354 q 194 457 253 457 q 133 438 156 457 l 114 472 q 192 528 183 521 q 224 579 224 554 q 178 607 224 607 q 97 546 115 607 l 57 567 q 182 653 94 653 q 269 581 269 653 q 250 529 269 556 q 207 493 231 503 q 299 397 299 479 m 660 104 q 640 158 660 133 q 582 185 621 182 q 524 158 543 182 q 504 104 504 135 q 526 55 504 74 q 582 36 547 36 q 638 55 615 36 q 660 104 660 74 m 647 290 q 630 328 647 311 q 582 346 613 346 q 534 328 551 346 q 517 290 517 311 q 534 255 517 271 q 582 231 551 239 q 630 255 613 238 q 647 290 647 272 m 706 107 q 673 22 706 53 q 582 -8 640 -8 q 492 22 525 -8 q 458 107 458 53 q 475 167 458 140 q 517 210 492 193 q 481 244 492 224 q 471 288 471 264 q 501 362 471 333 q 582 390 532 390 q 663 362 632 390 q 693 288 693 333 q 683 244 693 264 q 649 210 672 224 q 706 107 706 178 z "}}}
